<svg width="31" height="31" viewBox="0 0 31 31" fill="none" xmlns="http://www.w3.org/2000/svg">
<path d="M1.96253 2.16979C-0.394971 4.61854 0.0875293 7.21979 0.0875293 15.1223C0.0875293 21.6848 -1.05747 28.2635 4.93503 29.8123C6.80628 30.2935 23.3863 30.2935 25.255 29.8098C27.75 29.166 29.78 27.1423 30.0575 23.6135C30.0963 23.121 30.0963 7.13229 30.0563 6.62979C29.7613 2.87104 27.4475 0.704787 24.3988 0.266037C23.7 0.164787 23.56 0.134787 19.975 0.128537C7.25878 0.134787 4.47128 -0.431463 1.96253 2.16979Z" fill="url(#paint0_linear_2352_8191)"/>
<path d="M15.0852 4.05232C10.5464 4.05232 6.23641 3.64857 4.59016 7.87357C3.91016 9.61857 4.00891 11.8848 4.00891 15.1298C4.00891 17.9773 3.91766 20.6536 4.59016 22.3848C6.23266 26.6123 10.5777 26.2073 15.0827 26.2073C19.4289 26.2073 23.9102 26.6598 25.5764 22.3848C26.2577 20.6223 26.1577 18.3898 26.1577 15.1298C26.1577 10.8023 26.3964 8.00857 24.2977 5.91107C22.1727 3.78607 19.2989 4.05232 15.0802 4.05232H15.0852ZM14.0927 6.04857C23.5602 6.03357 24.7652 4.98107 24.1002 19.6023C23.8639 24.7736 19.9264 24.2061 15.0864 24.2061C6.26141 24.2061 6.00766 23.9536 6.00766 15.1248C6.00766 6.19357 6.70766 6.05357 14.0927 6.04607V6.04857ZM20.9977 7.88732C20.6453 7.88732 20.3073 8.02731 20.0581 8.2765C19.8089 8.52569 19.6689 8.86366 19.6689 9.21607C19.6689 9.56847 19.8089 9.90645 20.0581 10.1556C20.3073 10.4048 20.6453 10.5448 20.9977 10.5448C21.3501 10.5448 21.688 10.4048 21.9372 10.1556C22.1864 9.90645 22.3264 9.56847 22.3264 9.21607C22.3264 8.86366 22.1864 8.52569 21.9372 8.2765C21.688 8.02731 21.3501 7.88732 20.9977 7.88732ZM15.0852 9.44107C14.3382 9.44115 13.5985 9.58836 12.9085 9.87429C12.2184 10.1602 11.5914 10.5793 11.0632 11.1075C9.99662 12.1744 9.39749 13.6212 9.39766 15.1298C9.39782 16.6384 9.99727 18.0851 11.0641 19.1517C12.131 20.2184 13.5778 20.8175 15.0864 20.8173C16.595 20.8172 18.0417 20.2177 19.1083 19.1509C20.1749 18.084 20.7741 16.6372 20.7739 15.1286C20.7737 13.62 20.1743 12.1733 19.1075 11.1066C18.0406 10.04 16.5937 9.4409 15.0852 9.44107ZM15.0852 11.4373C19.9664 11.4373 19.9727 18.8223 15.0852 18.8223C10.2052 18.8223 10.1977 11.4373 15.0852 11.4373Z" fill="white"/>
<defs>
<linearGradient id="paint0_linear_2352_8191" x1="30.0864" y1="15.1267" x2="-2.09181" y2="15.1267" gradientUnits="userSpaceOnUse">
<stop stop-color="#FFDA8D"/>
<stop offset="0.456359" stop-color="#E62A21"/>
<stop offset="1" stop-color="#8121A3"/>
</linearGradient>
</defs>
</svg>
