<svg width="30" height="30" viewBox="0 0 30 30" fill="none" xmlns="http://www.w3.org/2000/svg">
<path d="M10.6704 15.5508C8.29149 15.5508 6.36962 17.4727 6.40477 19.8281C6.42821 21.3398 7.26024 22.6523 8.48485 23.3848C8.06883 22.7461 7.82274 21.9902 7.81102 21.1758C7.77587 18.8203 9.69774 16.8984 12.0766 16.8984C12.5454 16.8984 12.9966 16.9746 13.4184 17.1094V12.3926C12.979 12.3281 12.5278 12.293 12.0766 12.293H12.0122V15.7617C11.5903 15.627 11.1391 15.5508 10.6704 15.5508ZM20.9536 1.40625H19.6997C20.0513 3.16992 21.0415 4.70508 22.4243 5.74805C21.5161 4.54688 20.9653 3.04688 20.9536 1.40625Z" fill="#F00044"/>
<path d="M28.125 8.58398C27.6621 8.58398 27.2168 8.53711 26.7773 8.45508V11.8359C25.1836 11.8359 23.6367 11.5254 22.1836 10.9043C21.2461 10.5059 20.373 9.99609 19.5703 9.38086L19.5937 19.8047C19.582 22.1484 18.6562 24.3457 16.9805 26.0039C15.6152 27.3516 13.8867 28.2129 12.0117 28.4883C11.5723 28.5527 11.1211 28.5879 10.6699 28.5879C8.66602 28.5879 6.75586 27.9375 5.20312 26.7363C5.37891 26.9473 5.56641 27.1523 5.77148 27.3516C7.45898 29.0156 9.69727 29.9355 12.082 29.9355C12.5332 29.9355 12.9844 29.9004 13.4238 29.8359C15.2988 29.5605 17.0273 28.6992 18.3926 27.3516C20.0684 25.6934 20.9941 23.4961 21.0059 21.1523L20.918 10.7285C21.7148 11.3438 22.5879 11.8594 23.5312 12.252C24.9902 12.8672 26.5371 13.1836 28.125 13.1836" fill="#F00044"/>
<path d="M5.75393 14.8887C7.42385 13.2305 9.64456 12.3105 12.0117 12.293V11.0449C11.5723 10.9805 11.1211 10.9453 10.6699 10.9453C8.27932 10.9453 6.03518 11.8652 4.34768 13.541C2.68948 15.1875 1.74026 17.4375 1.74612 19.7754C1.74612 22.1309 2.67776 24.3398 4.3594 26.0098C4.62893 26.2734 4.90432 26.5195 5.19729 26.7422C3.87307 25.166 3.15237 23.1973 3.14651 21.123C3.15237 18.7852 4.09573 16.5352 5.75393 14.8887ZM26.7774 8.45508V7.20117H26.7656C25.1367 7.20117 23.6367 6.66211 22.4297 5.74805C23.4785 7.13086 25.0137 8.11523 26.7774 8.45508Z" fill="#08FFF9"/>
<path d="M11.8359 25.3242C12.3926 25.3535 12.9258 25.2773 13.418 25.1191C15.1172 24.5625 16.3418 22.9805 16.3418 21.1172L16.3477 14.1445V1.40625H19.6992C19.6113 0.966797 19.5645 0.521484 19.5586 0.0585938H14.9414V12.791L14.9355 19.7637C14.9355 21.627 13.7109 23.209 12.0117 23.7656C11.5195 23.9297 10.9863 24.0059 10.4297 23.9707C9.7207 23.9297 9.05859 23.7188 8.48438 23.3789C9.20508 24.4922 10.4355 25.248 11.8359 25.3242Z" fill="#08FFF9"/>
<path d="M12.0117 28.4883C13.8867 28.2129 15.6153 27.3516 16.9805 26.0039C18.6563 24.3457 19.5821 22.1484 19.5938 19.8047L19.5703 9.38086C20.3672 9.99609 21.2403 10.5117 22.1836 10.9043C23.6426 11.5195 25.1895 11.8359 26.7774 11.8359V8.45508C25.0137 8.11523 23.4785 7.13086 22.4297 5.74805C21.0469 4.70508 20.0508 3.16992 19.7051 1.40625H16.3477V14.1387L16.3418 21.1113C16.3418 22.9746 15.1172 24.5566 13.418 25.1133C12.9258 25.2773 12.3926 25.3535 11.836 25.3184C10.4297 25.2422 9.2051 24.4863 8.4844 23.3789C7.25979 22.6523 6.42776 21.334 6.40432 19.8223C6.36917 17.4668 8.29104 15.5449 10.6699 15.5449C11.1387 15.5449 11.5899 15.6211 12.0117 15.7559V12.2871C9.64456 12.3047 7.42385 13.2246 5.75393 14.8828C4.09573 16.5293 3.14651 18.7793 3.15237 21.1113C3.15237 23.1855 3.87307 25.1543 5.20315 26.7305C6.76175 27.9316 8.66604 28.582 10.6699 28.582C11.1211 28.5879 11.5723 28.5527 12.0117 28.4883Z" fill="black"/>
</svg>
