<svg width="30" height="30" viewBox="0 0 30 30" fill="none" xmlns="http://www.w3.org/2000/svg">
<g clip-path="url(#clip0_2389_3083)">
<path d="M19.6177 13.9635L12.9899 10.3371C12.6088 10.1286 12.1584 10.1364 11.7849 10.3577C11.4111 10.5792 11.1881 10.9706 11.1881 11.405V18.5956C11.1881 19.028 11.4097 19.4187 11.781 19.6405C11.9748 19.7562 12.1897 19.8144 12.4051 19.8144C12.6067 19.8141 12.805 19.7637 12.9822 19.6677L19.6101 16.1038C19.8032 16 19.9646 15.846 20.0774 15.6581C20.1902 15.4701 20.2502 15.2552 20.251 15.036C20.2518 14.8168 20.1935 14.6014 20.082 14.4126C19.9705 14.2238 19.8101 14.0686 19.6177 13.9635ZM12.9462 17.691V12.3169L17.8997 15.0273L12.9462 17.691Z" fill="black"/>
<path d="M29.7792 9.0018L29.7779 8.98809C29.7524 8.74663 29.4996 6.59883 28.4554 5.50635C27.2485 4.22139 25.8802 4.0653 25.2222 3.99048C25.1724 3.98499 25.1228 3.97903 25.0732 3.97261L25.0207 3.96716C21.0548 3.67876 15.0652 3.63938 15.0052 3.63915L14.9999 3.63892L14.9947 3.63915C14.9347 3.63938 8.94512 3.67876 4.94336 3.96716L4.89051 3.97261C4.84791 3.97835 4.80098 3.98362 4.74994 3.9896C4.0995 4.0646 2.74587 4.22098 1.53556 5.55235C0.541053 6.63316 0.253593 8.73497 0.224062 8.97116L0.220663 9.0018C0.211698 9.10229 0 11.4944 0 13.8958V16.1406C0 18.5421 0.211698 20.9341 0.220663 21.0348L0.222245 21.0499C0.247675 21.2875 0.50033 23.3959 1.53966 24.4888C2.6745 25.7307 4.10934 25.8951 4.88113 25.9834C5.00312 25.9974 5.10818 26.0093 5.17978 26.0219L5.24916 26.0315C7.53911 26.2494 14.7189 26.3567 15.0233 26.3611L15.0325 26.3613L15.0416 26.3611C15.1015 26.3608 21.0909 26.3215 25.057 26.0331L25.1094 26.0276C25.1595 26.0209 25.2158 26.015 25.2776 26.0086C25.9245 25.9399 27.2707 25.7973 28.4643 24.484C29.4588 23.403 29.7465 21.3012 29.7758 21.0652L29.7792 21.0346C29.7882 20.9338 30.0001 18.542 30.0001 16.1406V13.8958C29.9999 11.4943 29.7882 9.10253 29.7792 9.0018ZM28.2418 16.1406C28.2418 18.3633 28.0478 20.6523 28.0294 20.8624C27.9549 21.4413 27.6515 22.771 27.167 23.2977C26.4199 24.1196 25.6525 24.2011 25.0922 24.2604C25.0297 24.2668 24.9673 24.2738 24.905 24.2815C21.0689 24.5589 15.3055 24.6014 15.04 24.603C14.7422 24.5987 7.66749 24.4904 5.44738 24.2842C5.33359 24.2656 5.21066 24.2515 5.08117 24.2368C4.42405 24.1615 3.52452 24.0585 2.83288 23.2977L2.81659 23.2803C2.34052 22.7843 2.04597 21.5408 1.97109 20.8693C1.95714 20.7105 1.75804 18.3944 1.75804 16.1406V13.8958C1.75804 11.6757 1.95169 9.38911 1.97044 9.17466C2.0595 8.4928 2.36847 7.24359 2.83288 6.73863C3.6028 5.89178 4.41467 5.79797 4.95162 5.73592C5.00289 5.72994 5.0507 5.72449 5.09488 5.71875C8.98678 5.43996 14.7916 5.39854 14.9999 5.39696C15.2082 5.3983 21.011 5.43996 24.8684 5.71875C24.9157 5.72473 24.9675 5.73065 25.0231 5.73709C25.5754 5.80002 26.4101 5.89524 27.1762 6.71232L27.1832 6.71988C27.6594 7.21587 27.9539 8.48114 28.0287 9.16616C28.042 9.3161 28.2418 11.6372 28.2418 13.8958V16.1406Z" fill="black"/>
</g>
<defs>
<clipPath id="clip0_2389_3083">
<rect width="30" height="30" fill="white"/>
</clipPath>
</defs>
</svg>
