<svg width="30" height="30" viewBox="0 0 30 30" fill="none" xmlns="http://www.w3.org/2000/svg">
<g clip-path="url(#clip0_2389_1862)">
<path d="M26.2499 30.0001H18.7501V18.7501H22.3873L23.3437 14.9999H18.7501V10.4999C18.7501 9.25734 19.7572 8.2499 21.0001 8.2499H23.2501V4.5H21.0001C17.6885 4.5052 15.0051 7.18832 14.9999 10.4999V14.9999H11.25V18.7501H14.9999V30.0001H3.7499C1.67899 30.0001 0 28.3211 0 26.2499V3.7499C0 1.67899 1.67899 0 3.7499 0H26.2499C28.3211 0 30.0001 1.67899 30.0001 3.7499V26.2499C30.0001 28.3211 28.3211 30.0001 26.2499 30.0001ZM20.25 28.4999H26.2499C27.4927 28.4999 28.4999 27.4927 28.4999 26.2499V3.7499C28.4999 2.50734 27.4927 1.49991 26.2499 1.49991H3.7499C2.50734 1.49991 1.49991 2.50734 1.49991 3.7499V26.2499C1.49991 27.4927 2.50734 28.4999 3.7499 28.4999H13.5V20.25H9.75009V13.5H13.5V10.4999C13.5052 6.35997 16.8599 3.00501 21.0001 3.00009H24.75V9.75009H21.0001C20.5859 9.75009 20.25 10.0857 20.25 10.4999V13.5H25.2749L23.55 20.25H20.25V28.4999Z" fill="black"/>
</g>
<defs>
<clipPath id="clip0_2389_1862">
<rect width="30" height="30" fill="white"/>
</clipPath>
</defs>
</svg>
