<svg width="30" height="30" viewBox="0 0 30 30" fill="none" xmlns="http://www.w3.org/2000/svg">
<g clip-path="url(#clip0_2389_1175)">
<path d="M21.8792 0H8.12073C3.64288 0 0 3.64288 0 8.12073V21.8794C0 26.3571 3.64288 29.9999 8.12073 29.9999H21.8794C26.3571 29.9999 29.9999 26.3571 29.9999 21.8794V8.12073C29.9999 3.64288 26.3571 0 21.8792 0ZM28.2412 21.8794C28.2412 25.3873 25.3873 28.2412 21.8792 28.2412H8.12073C4.61267 28.2412 1.75875 25.3873 1.75875 21.8794V8.12073C1.75875 4.61267 4.61267 1.75875 8.12073 1.75875H21.8794C25.3873 1.75875 28.2412 4.61267 28.2412 8.12073V21.8794Z" fill="#191A1C"/>
<path d="M15 6.79701C10.4769 6.79701 6.79711 10.4767 6.79711 14.9999C6.79711 19.5231 10.4768 23.2028 15 23.2028C19.5232 23.2028 23.2029 19.5231 23.2029 14.9999C23.2029 10.4767 19.5232 6.79701 15 6.79701ZM15 21.444C11.4469 21.444 8.55586 18.5533 8.55586 14.9999C8.55586 11.4468 11.4469 8.55576 15 8.55576C18.5534 8.55576 21.4441 11.4468 21.4441 14.9999C21.4441 18.5533 18.5534 21.444 15 21.444ZM23.3991 3.88379C22.0624 3.88379 20.9752 4.97123 20.9752 6.30764C20.9752 7.64434 22.0624 8.73172 23.3991 8.73172C24.7358 8.73172 25.8231 7.64434 25.8231 6.3077C25.8231 4.97105 24.7357 3.88379 23.3991 3.88379ZM23.3991 6.97279C23.0324 6.97279 22.7339 6.67432 22.7339 6.30764C22.7339 5.94078 23.0324 5.64254 23.3991 5.64254C23.7659 5.64254 24.0644 5.94078 24.0644 6.30764C24.0644 6.67432 23.7659 6.97279 23.3991 6.97279Z" fill="#191A1C"/>
</g>
<defs>
<clipPath id="clip0_2389_1175">
<rect width="30" height="30" fill="white"/>
</clipPath>
</defs>
</svg>
