<svg width="30" height="31" viewBox="0 0 30 31" fill="none" xmlns="http://www.w3.org/2000/svg">
<g clip-path="url(#clip0_2352_8205)">
<path d="M16.0033 14.5684L22.7544 24.2248H19.9838L14.4747 16.3451V16.3446L13.6659 15.1879L7.23047 5.98254H10.0011L15.1945 13.4116L16.0033 14.5684Z" fill="black"/>
<path d="M26.7584 0.0805664H3.24156C1.45134 0.0805664 0 1.53191 0 3.32213V26.839C0 28.6292 1.45134 30.0806 3.24156 30.0806H26.7584C28.5487 30.0806 30 28.6292 30 26.839V3.32213C30 1.53191 28.5487 0.0805664 26.7584 0.0805664ZM19.135 25.5212L13.5601 17.4077L6.58044 25.5212H4.77653L12.7592 16.2424L4.77653 4.62458H10.865L16.144 12.3075L22.7533 4.62458H24.5572L16.9452 13.473H16.9447L25.2235 25.5212H19.135Z" fill="black"/>
</g>
<defs>
<clipPath id="clip0_2352_8205">
<rect width="30" height="30" fill="white" transform="translate(0 0.0805664)"/>
</clipPath>
</defs>
</svg>
