<svg width="30" height="31" viewBox="0 0 30 31" fill="none" xmlns="http://www.w3.org/2000/svg">
<g clip-path="url(#clip0_2352_8192)">
<path fill-rule="evenodd" clip-rule="evenodd" d="M28.2447 5.94344C27.6387 5.39335 26.8715 5.03264 26.0323 4.93994C24.2082 4.7358 22.3676 4.63302 20.5208 4.58146C18.6861 4.53024 16.8434 4.53024 15.0048 4.53142C13.1664 4.53024 11.324 4.53024 9.48878 4.58146C7.64186 4.63302 5.8008 4.7358 3.9758 4.93994C3.1373 5.03264 2.37041 5.39347 1.765 5.94379C1.16358 6.49048 0.721658 7.2248 0.528294 8.0688C0.267311 9.20016 0.135355 10.3805 0.0686735 11.5683C0.00164066 12.761 0 13.9386 0 15.0819C0 16.2236 0 17.3998 0.065275 18.5932C0.130433 19.7804 0.260865 20.9608 0.521965 22.0924C0.716384 22.9367 1.15866 23.6713 1.75996 24.2179C2.36502 24.7678 3.13121 25.1284 3.96935 25.2212C5.79471 25.4254 7.63576 25.5282 9.48268 25.5796C11.3178 25.6308 13.1603 25.6308 14.9989 25.6296C16.8384 25.6308 18.6809 25.6308 20.5158 25.5796C22.3624 25.5282 24.2029 25.4254 26.028 25.2212C26.8661 25.1284 27.6322 24.7678 28.2373 24.2181C28.839 23.6715 29.2819 22.937 29.4776 22.0924C29.7376 20.9608 29.8679 19.7804 29.9333 18.5932C29.9978 17.4226 29.9982 16.2349 29.9982 15.0819H29.9994V15.024H29.9982C29.9982 12.7331 29.9982 10.3069 29.4839 8.0688C29.2895 7.22433 28.8468 6.49002 28.2447 5.94344Z" fill="#E42B26"/>
<path fill-rule="evenodd" clip-rule="evenodd" d="M20.6922 14.5173C18.983 13.6247 17.2855 12.7389 15.5898 11.8542C14.1803 11.1186 12.7721 10.3838 11.3597 9.64648L10.8936 9.40295V20.1609L11.3586 19.9201C12.9184 19.112 14.4716 18.3071 16.0246 17.5017L20.6909 15.082L21.2341 14.8003L20.6922 14.5173Z" fill="#FFFFFE"/>
</g>
<defs>
<clipPath id="clip0_2352_8192">
<rect width="30" height="30" fill="white" transform="translate(0 0.0805664)"/>
</clipPath>
</defs>
</svg>
