<svg width="30" height="34" viewBox="0 0 30 34" fill="none" xmlns="http://www.w3.org/2000/svg">
<path d="M11.3704 33C9.04098 33 6.8441 32.2569 5.01723 30.8506C4.67598 30.5881 4.34785 30.3013 4.0416 29.9988C1.9091 27.8913 0.835979 25.0844 1.02035 22.095C1.15973 19.8356 2.06973 17.6575 3.5841 15.9619C5.58973 13.7162 8.35473 12.4794 11.371 12.4794C11.8891 12.4794 12.4122 12.5181 12.9272 12.5944L13.7272 12.7131V19.8125L12.4954 19.4056C12.1366 19.2869 11.7635 19.2269 11.386 19.2269C10.4322 19.2269 9.5391 19.6006 8.87098 20.2787C8.20598 20.9537 7.84785 21.8463 7.8616 22.7931C7.87973 24.0138 8.52285 25.12 9.5816 25.7537C10.0691 26.045 10.6241 26.2156 11.1879 26.2469C11.6329 26.2713 12.0722 26.2131 12.4947 26.0737C13.9391 25.5969 14.9097 24.2569 14.9097 22.74L14.916 15.3775V1H21.701L21.7091 1.92875C21.7129 2.34938 21.756 2.77 21.8372 3.1775C22.156 4.78 23.0547 6.20813 24.3679 7.19812C25.5335 8.0775 26.9247 8.54187 28.3897 8.54187C28.4241 8.54187 28.4241 8.54187 28.7372 8.56375L29.6091 8.625V14.375V15.3125L29.2966 15.3119H28.6735C28.6685 15.3119 28.6635 15.3119 28.6579 15.3119H28.3585C28.3572 15.3119 28.3554 15.3119 28.3535 15.3119C26.5466 15.3119 24.8535 14.9675 23.1754 14.2594C22.6754 14.0481 22.1885 13.8069 21.7185 13.5375L21.7397 22.7756C21.7285 25.5081 20.6485 28.0713 18.6991 29.9981C17.1172 31.5613 15.121 32.56 12.926 32.885C12.4141 32.9613 11.891 33 11.3704 33ZM11.3704 14.3544C8.89598 14.3544 6.62723 15.3687 4.98223 17.2106C3.74723 18.5938 3.00473 20.3694 2.89098 22.21C2.74098 24.6506 3.61723 26.9431 5.3591 28.6644C5.61098 28.9131 5.88035 29.1487 6.16035 29.3644C7.6566 30.5162 9.45848 31.125 11.3704 31.125C11.7991 31.125 12.2297 31.0931 12.6516 31.0306C14.4497 30.7644 16.0854 29.9463 17.3816 28.665C18.9741 27.0913 19.856 24.9994 19.8654 22.7744L19.836 9.875L21.3504 11.0431C22.1322 11.6462 22.9922 12.1475 23.9054 12.5331C25.1535 13.06 26.4116 13.3525 27.7335 13.4219V10.3938C26.0997 10.2712 24.5566 9.69063 23.2385 8.69625C21.5572 7.42875 20.4066 5.59875 19.9979 3.54437C19.9541 3.32375 19.9185 3.10063 19.8922 2.87563H16.7904V15.3781L16.7841 22.7406C16.7841 25.0675 15.2966 27.1225 13.0822 27.8538C12.4366 28.0669 11.7647 28.1556 11.0847 28.1187C10.2185 28.0712 9.36598 27.8094 8.61848 27.3625C6.99785 26.3931 6.01348 24.695 5.98598 22.8206C5.96473 21.3681 6.5141 19.9981 7.5341 18.9625C8.55723 17.9237 9.92473 17.3519 11.3847 17.3519C11.541 17.3519 11.696 17.3588 11.851 17.3719V14.3675C11.691 14.3588 11.5304 14.3544 11.3704 14.3544Z" fill="black"/>
</svg>
