<svg width="30" height="31" viewBox="0 0 30 31" fill="none" xmlns="http://www.w3.org/2000/svg">
<path d="M25.9571 0.0805664H4.04256C1.80996 0.0805664 0 1.89045 0 4.12313V26.0379C0 28.2705 1.80989 30.0804 4.04256 30.0804H14.8507L14.8691 19.3601H12.084C11.9102 19.3601 11.7434 19.2912 11.6202 19.1685C11.4971 19.0458 11.4276 18.8793 11.4269 18.7055L11.4135 15.2499C11.4132 15.1634 11.43 15.0776 11.4629 14.9976C11.4957 14.9176 11.5441 14.8448 11.6051 14.7836C11.6662 14.7223 11.7388 14.6736 11.8187 14.6405C11.8986 14.6073 11.9842 14.5902 12.0707 14.5902H14.8508V11.2512C14.8508 7.37633 17.2173 5.26643 20.674 5.26643H23.5104C23.6847 5.26643 23.8519 5.33567 23.9751 5.45892C24.0983 5.58216 24.1676 5.74932 24.1676 5.92362V8.8374C24.1676 9.01164 24.0984 9.17874 23.9752 9.30197C23.8521 9.42521 23.685 9.49449 23.5108 9.49459L21.7701 9.4954C19.8903 9.4954 19.5263 10.3887 19.5263 11.6996V14.5903H23.6569C24.0505 14.5903 24.3558 14.9339 24.3094 15.3248L23.8999 18.7804C23.8809 18.9402 23.804 19.0875 23.6838 19.1943C23.5635 19.3012 23.4082 19.3602 23.2473 19.3602H19.5447L19.5263 30.0806H25.9573C28.1899 30.0806 29.9998 28.2707 29.9998 26.0381V4.12313C29.9997 1.89045 28.1898 0.0805664 25.9571 0.0805664Z" fill="#475993"/>
</svg>
