<svg width="18" height="18" viewBox="0 0 18 18" fill="none" xmlns="http://www.w3.org/2000/svg">
<g clip-path="url(#clip0_293_11913)">
<path d="M9.75 15C10.7442 14.9988 11.6973 14.6034 12.4003 13.9003C13.1033 13.1973 13.4988 12.2442 13.5 11.25V4.68226C13.5012 4.28803 13.4241 3.89749 13.2732 3.53328C13.1223 3.16906 12.9006 2.83842 12.621 2.56051L10.9395 0.879013C10.6616 0.599393 10.331 0.377715 9.96674 0.226828C9.60252 0.0759412 9.21198 -0.00115346 8.81775 1.30422e-05H5.25C4.2558 0.00120394 3.30267 0.396675 2.59966 1.09968C1.89666 1.80268 1.50119 2.75582 1.5 3.75001V11.25C1.50119 12.2442 1.89666 13.1973 2.59966 13.9003C3.30267 14.6034 4.2558 14.9988 5.25 15H9.75ZM3 11.25V3.75001C3 3.15328 3.23705 2.58098 3.65901 2.15902C4.08097 1.73707 4.65326 1.50001 5.25 1.50001C5.25 1.50001 8.93925 1.51051 9 1.51801V3.00001C9 3.39784 9.15804 3.77937 9.43934 4.06067C9.72064 4.34198 10.1022 4.50001 10.5 4.50001H11.982C11.9895 4.56076 12 11.25 12 11.25C12 11.8468 11.7629 12.419 11.341 12.841C10.919 13.263 10.3467 13.5 9.75 13.5H5.25C4.65326 13.5 4.08097 13.263 3.65901 12.841C3.23705 12.419 3 11.8468 3 11.25ZM16.5 6.00001V14.25C16.4988 15.2442 16.1033 16.1973 15.4003 16.9003C14.6973 17.6034 13.7442 17.9988 12.75 18H6C5.80109 18 5.61032 17.921 5.46967 17.7803C5.32902 17.6397 5.25 17.4489 5.25 17.25C5.25 17.0511 5.32902 16.8603 5.46967 16.7197C5.61032 16.579 5.80109 16.5 6 16.5H12.75C13.3467 16.5 13.919 16.263 14.341 15.841C14.7629 15.419 15 14.8468 15 14.25V6.00001C15 5.8011 15.079 5.61034 15.2197 5.46968C15.3603 5.32903 15.5511 5.25001 15.75 5.25001C15.9489 5.25001 16.1397 5.32903 16.2803 5.46968C16.421 5.61034 16.5 5.8011 16.5 6.00001Z" fill="#007AFF"/>
</g>
<defs>
<clipPath id="clip0_293_11913">
<rect width="18" height="18" fill="white"/>
</clipPath>
</defs>
</svg>
