<svg width="69" height="67" viewBox="0 0 69 67" fill="none" xmlns="http://www.w3.org/2000/svg">
<path d="M2.34899 26.1543C2.67664 25.7529 3.11376 25.4541 3.60793 25.2937C4.13417 25.1423 4.6896 25.1207 5.22612 25.2308C5.76264 25.3409 6.26409 25.5794 6.6871 25.9256C7.07849 26.2692 7.36255 26.7172 7.50561 27.2166C7.65471 27.7688 7.66676 28.3489 7.54069 28.9068L7.08467 31.1049L1.17969 29.8992L1.63571 27.7011C1.74147 27.1349 1.98652 26.6035 2.34899 26.1543ZM6.09465 27.3949C5.9599 27.2024 5.78636 27.0399 5.58505 26.9178C5.38375 26.7957 5.15907 26.7165 4.92535 26.6854C4.69867 26.6146 4.45901 26.5948 4.2237 26.6275C3.98839 26.6602 3.76334 26.7446 3.56485 26.8745C3.36636 27.0043 3.1994 27.1765 3.07607 27.3785C2.95274 27.5805 2.87613 27.8072 2.85178 28.0423L2.71147 28.7207L6.13752 29.4224L6.27785 28.744C6.33784 28.5176 6.35149 28.2815 6.31801 28.0498C6.28453 27.818 6.20461 27.5953 6.08297 27.3949H6.09465Z" fill="#161616"/>
<path d="M6.5891 17.8813L10.8765 19.9864L10.2295 21.2929L9.64486 21.006C9.77316 21.2443 9.83887 21.511 9.83586 21.7813C9.83791 22.0723 9.76974 22.3594 9.63708 22.6187C9.49511 22.9313 9.27005 23.1993 8.98617 23.394C8.71319 23.5728 8.39312 23.6672 8.06631 23.6654C7.69022 23.6588 7.32076 23.5659 6.98667 23.394L4.47656 22.1612L5.12357 20.8626L7.46217 22.0062C7.69878 22.1396 7.978 22.1771 8.24171 22.1108C8.35997 22.0731 8.46878 22.0107 8.56087 21.9278C8.65295 21.8449 8.72618 21.7434 8.77568 21.6301C8.83625 21.5209 8.87278 21.4002 8.88286 21.2758C8.89294 21.1515 8.87634 21.0265 8.83416 20.9091C8.72838 20.6607 8.52796 20.4641 8.27679 20.3624L5.93819 19.2188L6.5891 17.8813Z" fill="#161616"/>
<path d="M9.14598 15.9623C8.9854 15.6092 8.92995 15.2177 8.98618 14.8342C9.03957 14.4618 9.20071 14.1129 9.44998 13.8301C9.64505 13.5923 9.89701 13.407 10.1827 13.2912C10.429 13.1895 10.6984 13.156 10.9623 13.1943L10.4556 12.764L11.4066 11.6514L15.051 14.7527L14.1038 15.8615L13.5854 15.4273C13.6631 15.6868 13.6725 15.9618 13.6127 16.2259C13.5439 16.5252 13.4005 16.8025 13.1957 17.0323C12.9534 17.3198 12.6326 17.5312 12.2719 17.6409C11.8901 17.7516 11.4844 17.7516 11.1026 17.6409C10.6728 17.5179 10.2743 17.3053 9.93358 17.0172C9.59284 16.7291 9.31772 16.3721 9.12649 15.97L9.14598 15.9623ZM11.4222 13.9696C11.2832 13.9753 11.1469 14.0103 11.0226 14.0725C10.8982 14.1347 10.7886 14.2225 10.7011 14.3302C10.6078 14.4349 10.5379 14.5582 10.4962 14.6919C10.4546 14.8256 10.4421 14.9666 10.4595 15.1055C10.4805 15.2587 10.532 15.4061 10.611 15.5393C10.69 15.6724 10.7948 15.7885 10.9194 15.8809C11.1514 16.0997 11.4612 16.2183 11.7808 16.2104C11.9195 16.2038 12.0553 16.1691 12.1799 16.1083C12.3046 16.0475 12.4154 15.9621 12.5056 15.8571C12.5957 15.7522 12.6634 15.63 12.7043 15.498C12.7452 15.3661 12.7586 15.2273 12.7435 15.09C12.722 14.9366 12.6699 14.7889 12.5903 14.6558C12.5106 14.5226 12.405 14.4067 12.2797 14.3147C12.1667 14.2038 12.0328 14.1162 11.8856 14.057C11.7384 13.9978 11.581 13.9681 11.4222 13.9696Z" fill="#161616"/>
<path d="M13.8198 7.56104L17.7954 12.4806L16.6534 13.3955L12.6777 8.47594L13.8198 7.56104Z" fill="#161616"/>
<path d="M27.7965 1.31982L28.2253 7.49159L26.5415 8.05369L24.3705 4.6228L24.6862 8.67399L23.0063 9.23612L19.6426 4.04517L21.1276 3.54894L23.3454 7.40241L22.9556 2.93256L24.4835 2.42471L26.8533 6.22777L26.2881 1.81994L27.7965 1.31982Z" fill="#161616"/>
<path d="M31.1329 1.61859C31.0495 1.55507 30.9809 1.47438 30.9318 1.38204C30.8827 1.28971 30.8542 1.1879 30.8483 1.0836C30.8363 0.977501 30.8479 0.870079 30.8823 0.768924C30.9166 0.667769 30.9729 0.575347 31.0471 0.498211C31.2082 0.332059 31.4272 0.233584 31.6591 0.222979C31.8861 0.198265 32.1139 0.262187 32.2944 0.401293C32.3771 0.467471 32.4454 0.54976 32.495 0.643115C32.5446 0.73647 32.5746 0.838918 32.583 0.944186C32.5913 1.04945 32.578 1.15532 32.5438 1.25529C32.5096 1.35526 32.4552 1.44723 32.384 1.52555C32.2195 1.68445 32.0041 1.78082 31.7754 1.79783C31.5467 1.81483 31.3193 1.75139 31.1329 1.61859ZM32.5438 2.235L32.9141 6.98011L31.4525 7.09253L31.0822 2.34742L32.5438 2.235Z" fill="#161616"/>
<path d="M37.4849 2.5176C37.7556 2.38528 38.0575 2.32899 38.358 2.35479L38.2411 3.90548L37.8513 3.87834C37.56 3.83495 37.2626 3.89684 37.0133 4.05279C36.9028 4.15397 36.8156 4.27772 36.7577 4.41557C36.6999 4.55343 36.6727 4.70211 36.6781 4.8514L36.5144 7.05338L35.0527 6.94482L35.4074 2.19971L36.8691 2.30827L36.8106 3.08361C36.9889 2.84615 37.2196 2.65251 37.4849 2.5176Z" fill="#161616"/>
<path d="M44.553 6.65072L41.3569 5.75908C41.292 6.0049 41.3255 6.26619 41.4504 6.4879C41.5094 6.58431 41.5869 6.66819 41.6785 6.73472C41.7702 6.80125 41.8741 6.84912 41.9844 6.87558C42.1354 6.92832 42.2991 6.93353 42.4532 6.89053C42.6073 6.84753 42.7444 6.7584 42.8458 6.63522L44.3464 7.05391C44.1862 7.33192 43.965 7.57043 43.6994 7.75172C43.4255 7.93874 43.1122 8.06075 42.7834 8.10837C42.3883 8.15777 41.9872 8.12056 41.6081 7.99934C41.229 7.87812 40.8812 7.67583 40.589 7.40669C40.2918 7.12158 40.0846 6.75649 39.9927 6.35608C39.9066 5.91373 39.9251 5.45752 40.0469 5.02353C40.1687 4.58954 40.3903 4.18969 40.6943 3.85562C40.9804 3.56206 41.3459 3.35736 41.7467 3.26635C42.1753 3.17346 42.6207 3.19081 43.0407 3.31674C43.4573 3.42379 43.8395 3.6346 44.1515 3.92927C44.4436 4.20619 44.6482 4.56186 44.7401 4.95271C44.8367 5.37854 44.8205 5.82201 44.6933 6.23979C44.6543 6.37935 44.6076 6.51503 44.553 6.65072ZM43.3525 5.4877C43.3858 5.38064 43.3954 5.26768 43.3806 5.15658C43.3658 5.04548 43.3269 4.93891 43.2667 4.84418C43.1356 4.65077 42.937 4.51263 42.7094 4.4565C42.4924 4.38869 42.258 4.40248 42.0507 4.49526C41.8393 4.59743 41.6739 4.77439 41.5868 4.99149L43.3525 5.4877Z" fill="#161616"/>
<path d="M48.8898 12.4501L47.6504 11.6747L51.9729 4.86719L53.2124 5.64253L48.8898 12.4501Z" fill="#161616"/>
<path d="M55.435 16.8968L56.3315 14.4739L56.0976 14.2103L54.3826 15.6951L53.4082 14.5941L57.949 10.6631L59.5626 12.5123C59.8466 12.8183 60.0548 13.186 60.1707 13.5861C60.2745 13.9142 60.2745 14.266 60.1707 14.5941C60.0585 14.9107 59.8635 15.1917 59.6055 15.4082C59.3187 15.664 58.9563 15.8204 58.5726 15.854C58.1582 15.8852 57.7456 15.7744 57.4033 15.54L56.5263 18.1413L55.435 16.8968ZM56.881 13.5318L57.4774 14.218C57.611 14.391 57.8064 14.5063 58.0231 14.5398C58.1248 14.5444 58.2264 14.5282 58.3216 14.4922C58.4168 14.4562 58.5036 14.4011 58.5765 14.3305C58.6546 14.2695 58.7193 14.1934 58.7669 14.1067C58.8145 14.0201 58.8438 13.9247 58.8532 13.8265C58.8511 13.6062 58.7615 13.3958 58.6038 13.2411L58.0075 12.5588L56.881 13.5318Z" fill="#161616"/>
<path d="M60.8128 17.9506C61.2012 17.9395 61.5848 18.0375 61.9197 18.2335C62.2455 18.4249 62.5082 18.7064 62.6759 19.0438C62.8227 19.314 62.8991 19.6166 62.898 19.9238C62.8982 20.1968 62.8242 20.4647 62.6837 20.6991L63.2878 20.3929L63.9543 21.6916L59.698 23.8626L59.0276 22.5639L59.6318 22.2537C59.3608 22.2276 59.1015 22.1314 58.8795 21.9746C58.6287 21.7952 58.4266 21.5567 58.291 21.2806C58.1165 20.9495 58.0421 20.5752 58.0766 20.2029C58.1155 19.8151 58.2627 19.4458 58.5015 19.1368C58.7755 18.7831 59.1276 18.4966 59.5305 18.2995C59.9249 18.0857 60.3639 17.9662 60.8128 17.9506ZM61.7911 20.8038C61.8364 20.6736 61.8548 20.5357 61.8452 20.3982C61.8356 20.2608 61.7982 20.1267 61.7352 20.004C61.6723 19.8812 61.585 19.7724 61.4787 19.684C61.3725 19.5956 61.2494 19.5295 61.1168 19.4896C60.9657 19.4483 60.8077 19.4377 60.6524 19.4584C60.497 19.479 60.3475 19.5305 60.2125 19.6098C59.9211 19.7387 59.6927 19.977 59.5772 20.2727C59.5272 20.4022 59.5058 20.541 59.5145 20.6795C59.5233 20.8179 59.562 20.9529 59.6279 21.0752C59.6889 21.1996 59.7757 21.3099 59.8825 21.3987C59.9893 21.4876 60.1137 21.553 60.2476 21.5908C60.5575 21.659 60.8815 21.6192 61.1653 21.478C61.4492 21.3368 61.6756 21.1029 61.8067 20.8155L61.7911 20.8038Z" fill="#161616"/>
<path d="M64.4071 27.1623L64.1928 26.4063L60.7589 27.36L60.3691 25.9566L63.803 24.999L63.6588 24.4912L64.8281 24.1655L64.9723 24.6734L65.1048 24.6385C65.3375 24.5555 65.5855 24.5236 65.8318 24.545C66.078 24.5664 66.3167 24.6406 66.5314 24.7626C66.9659 25.075 67.2665 25.5386 67.3733 26.0613C67.3975 26.1375 67.417 26.2152 67.4317 26.2939L66.2313 26.6273C66.2113 26.4211 66.1139 26.23 65.9584 26.0923C65.8742 26.0482 65.7813 26.0233 65.6862 26.0193C65.5912 26.0152 65.4965 26.0322 65.4088 26.069H65.366L65.5803 26.8211L64.4071 27.1623Z" fill="#161616"/>
<path d="M65.101 31.7602L65.0075 30.9849L61.4684 31.4074L61.293 29.9614L64.836 29.5389L64.7697 29.0155L65.9819 28.8682L66.0442 29.3954H66.1807C66.4237 29.3506 66.6734 29.3579 66.9134 29.4167C67.1533 29.4756 67.3779 29.5846 67.5721 29.7366C67.9519 30.1124 68.177 30.6155 68.2036 31.1477C68.2093 31.2277 68.2093 31.308 68.2036 31.388L66.9719 31.5354C66.9798 31.3286 66.9119 31.1261 66.7809 30.9655C66.7043 30.9087 66.6159 30.8695 66.5223 30.8508C66.4286 30.832 66.3319 30.8341 66.2391 30.8569H66.1962L66.2937 31.6323L65.101 31.7602Z" fill="#161616"/>
<path d="M67.9197 35.5474L61.5938 35.4078L61.6288 33.9502L67.9703 34.0898L67.9197 35.5474Z" fill="#161616"/>
<path d="M62.5706 42.258L63.2332 39.0209C62.9815 38.9754 62.7218 39.0281 62.5082 39.1682C62.321 39.3009 62.1937 39.5013 62.1536 39.7265C62.1121 39.8793 62.1186 40.041 62.1723 40.19C62.2259 40.339 62.3241 40.4681 62.4537 40.56L62.1458 42.0835C61.8511 41.9425 61.5927 41.7365 61.3901 41.4813C61.1875 41.226 61.046 40.9282 60.9765 40.6104C60.8985 40.2579 60.8985 39.8928 60.9765 39.5404C61.0536 39.1129 61.2402 38.7123 61.5182 38.3774C61.7831 38.0612 62.1355 37.8293 62.5316 37.7106C62.9659 37.5808 63.4268 37.5661 63.8686 37.6679C64.3148 37.7466 64.7334 37.9374 65.0846 38.2223C65.4021 38.4829 65.6353 38.8308 65.755 39.2225C65.87 39.638 65.8858 40.0745 65.8012 40.4972C65.7166 40.9198 65.534 41.317 65.2678 41.6571C65.0091 41.9659 64.6669 42.1946 64.2817 42.3161C63.8621 42.4452 63.4156 42.4613 62.9877 42.3626C62.8513 42.3394 62.7148 42.3006 62.5706 42.258ZM63.6659 40.9825C63.7759 41.0073 63.8901 41.008 64.0005 40.9845C64.1108 40.9611 64.2148 40.9141 64.3051 40.8469C64.4888 40.7021 64.6123 40.4951 64.652 40.2653C64.7029 40.0459 64.671 39.8155 64.5623 39.6179C64.4446 39.414 64.254 39.2617 64.0283 39.1915L63.6659 40.9825Z" fill="#161616"/>
<path d="M56.4374 50.0699L57.1936 49.8916C57.1393 49.1821 57.326 48.4749 57.7236 47.8834C57.9398 47.5308 58.2263 47.226 58.5655 46.9879C58.8501 46.7909 59.1856 46.6792 59.5322 46.6661C59.8774 46.662 60.2158 46.762 60.5027 46.953C60.8128 47.1437 61.0575 47.4235 61.2043 47.7555C61.3576 48.123 61.4075 48.525 61.3485 48.9185C61.5523 48.8847 61.7604 48.8847 61.9643 48.9185C62.1484 48.9586 62.3239 49.0307 62.4827 49.1317C62.7165 49.2779 62.9032 49.4878 63.0206 49.7365C63.1381 49.9991 63.1799 50.289 63.1414 50.5739C63.0847 50.9167 62.9515 51.2426 62.7516 51.5275C62.5736 51.8246 62.3263 52.0746 62.0306 52.2564C61.7862 52.4056 61.5024 52.4785 61.216 52.4657C60.936 52.4575 60.6648 52.3672 60.4364 52.206L61.177 51.043C61.2278 51.0823 61.2862 51.1108 61.3485 51.1268C61.4109 51.1428 61.4758 51.1459 61.5394 51.136C61.5981 51.1208 61.6532 51.0941 61.7014 51.0575C61.7495 51.0209 61.7899 50.9751 61.8201 50.9228C61.8905 50.8207 61.9209 50.6967 61.9058 50.5739C61.8972 50.516 61.8756 50.4609 61.8425 50.4125C61.8094 50.3642 61.7658 50.3239 61.7148 50.2948C61.5981 50.2224 61.4625 50.186 61.3251 50.1901C61.1297 50.1879 60.9348 50.2087 60.7443 50.2521L58.7526 50.7173L58.8111 50.8142L58.8929 50.9422L59.1775 51.4965L58.3979 52.7255L58.0082 51.9811C57.8079 51.6761 57.632 51.3559 57.482 51.0236L55.502 51.481L56.4374 50.0699ZM58.4135 49.6047L60.222 49.1705C60.2604 48.9876 60.244 48.7975 60.1747 48.6238C60.1054 48.4501 59.9863 48.3005 59.8323 48.1936C59.745 48.1372 59.6461 48.101 59.5429 48.0876C59.4398 48.0742 59.3349 48.0839 59.2359 48.116C59.0027 48.1965 58.8071 48.3593 58.6863 48.5735C58.4871 48.8751 58.3914 49.2328 58.4135 49.5931V49.6047Z" fill="#161616"/>
<path d="M51.5407 60.234C51.7408 60.333 51.9667 60.3682 52.1877 60.3348C52.4324 60.297 52.664 60.1998 52.862 60.0519C53.0403 59.9362 53.1912 59.7834 53.3043 59.604C53.4173 59.4246 53.4899 59.2229 53.5168 59.0129C53.5356 58.5539 53.398 58.102 53.1264 57.7305C52.8547 57.359 52.4649 57.0896 52.0201 56.966C51.7945 56.9294 51.5637 56.9405 51.3428 56.9986C51.1218 57.0567 50.9157 57.1605 50.7378 57.3033C50.4661 57.4834 50.262 57.7478 50.157 58.0554C50.0539 58.3636 50.0539 58.6969 50.157 59.0052L51.6693 57.9313L52.2969 58.8036L49.7049 60.6489L48.9254 59.5479C48.7979 59.1741 48.7488 58.7783 48.7811 58.3849C48.8169 57.9673 48.9403 57.5618 49.1436 57.1947C49.3725 56.7891 49.691 56.4404 50.0752 56.1751C50.5212 55.8444 51.0467 55.6359 51.5992 55.5704C52.1179 55.5103 52.6433 55.5963 53.1154 55.8185C53.6086 56.0672 54.0342 56.4309 54.3559 56.8784C54.6775 57.3259 54.8858 57.844 54.9628 58.3887C55.0238 58.9047 54.9374 59.4274 54.7134 59.8968C54.4737 60.3935 54.1067 60.8188 53.6493 61.1296C53.1364 61.5226 52.5114 61.7438 51.8642 61.7615C51.2612 61.7665 50.6774 61.5513 50.2233 61.1567L51.5407 60.234Z" fill="#161616"/>
<path d="M46.6695 63.5488L44.7207 59.1991L46.0615 58.606L48.0103 62.9556L46.6695 63.5488ZM48.2052 63.6573C48.3057 63.6898 48.398 63.7432 48.476 63.8141C48.554 63.885 48.6158 63.9716 48.6573 64.0683C48.6997 64.1655 48.7216 64.2704 48.7216 64.3765C48.7216 64.4825 48.6997 64.5874 48.6573 64.6847C48.5612 64.8941 48.3884 65.0591 48.174 65.146C47.9673 65.2453 47.7301 65.262 47.5114 65.1925C47.4097 65.159 47.3166 65.1039 47.2385 65.0309C47.1604 64.9579 47.0992 64.8689 47.0593 64.77C47.015 64.6746 46.992 64.5707 46.992 64.4656C46.992 64.3605 47.015 64.2567 47.0593 64.1613C47.1602 63.9567 47.3305 63.794 47.54 63.7018C47.7496 63.6097 47.9851 63.5939 48.2052 63.6573Z" fill="#161616"/>
<path d="M41.0177 61.8119L40.8072 65.3513L39.291 65.7157L39.8211 60.676L41.5828 60.2573L44.3502 64.4907L42.8262 64.8551L41.0177 61.8119Z" fill="#161616"/>
<path d="M32.1275 63.274H35.4444C35.4387 63.0207 35.3354 62.7793 35.1559 62.5995C34.986 62.4448 34.7626 62.3615 34.5323 62.3669C34.3698 62.3536 34.2071 62.3913 34.0673 62.4748C33.9275 62.5582 33.8175 62.6832 33.7528 62.8321H32.1937C32.2729 62.5166 32.4231 62.2232 32.6331 61.974C32.8432 61.7248 33.1074 61.5264 33.4059 61.3938C33.7368 61.2463 34.0956 61.171 34.4583 61.1728C34.8936 61.1645 35.324 61.2658 35.7094 61.4675C36.0747 61.659 36.3755 61.9529 36.5747 62.3126C36.7884 62.7107 36.897 63.1562 36.8904 63.6074C36.904 64.0588 36.8006 64.506 36.5903 64.9061C36.3991 65.2681 36.1049 65.5661 35.7445 65.7629C35.3576 65.9692 34.9245 66.0746 34.4855 66.0691C34.0563 66.08 33.6312 65.9826 33.25 65.7862C32.8921 65.6006 32.5967 65.3149 32.4003 64.9643C32.1866 64.5817 32.079 64.1496 32.0885 63.7121C32.0936 63.5655 32.1066 63.4193 32.1275 63.274ZM33.6047 64.0765C33.6026 64.1883 33.6249 64.2991 33.67 64.4015C33.7151 64.5039 33.7819 64.5954 33.8658 64.6697C34.0468 64.8199 34.2772 64.8986 34.5128 64.8906C34.7389 64.8948 34.959 64.8177 35.1325 64.6735C35.3073 64.5155 35.4171 64.2986 35.4405 64.0649L33.6047 64.0765Z" fill="#161616"/>
<path d="M29.542 64.6344C29.2979 64.9364 28.9739 65.1646 28.6065 65.2934C28.2482 65.4137 27.8629 65.4298 27.4957 65.3399C27.1946 65.2806 26.9132 65.1474 26.6772 64.9523C26.4732 64.7762 26.3188 64.5504 26.2289 64.2971L26.0769 64.9523L24.6465 64.6189L25.7417 59.9668L27.1683 60.3002L27.0124 60.9554C27.211 60.7692 27.4536 60.6358 27.7179 60.5677C28.0158 60.4921 28.3281 60.4921 28.626 60.5677C28.9934 60.6494 29.3291 60.8352 29.5926 61.1027C29.8649 61.3828 30.0526 61.7335 30.1344 62.1145C30.2227 62.551 30.2155 63.0013 30.1133 63.4347C30.0111 63.8682 29.8162 64.2747 29.542 64.6266V64.6344ZM26.7201 63.5295C26.7904 63.648 26.884 63.7513 26.9954 63.833C27.1067 63.9147 27.2335 63.9732 27.3682 64.0051C27.5028 64.0369 27.6425 64.0414 27.7789 64.0183C27.9154 63.9952 28.0457 63.945 28.1622 63.8706C28.2933 63.7816 28.4048 63.6669 28.4899 63.5336C28.575 63.4003 28.6319 63.2512 28.6572 63.0953C28.7452 62.7906 28.7103 62.4637 28.5597 62.1843C28.4902 62.0643 28.3968 61.9599 28.2852 61.8771C28.1736 61.7944 28.0462 61.7353 27.9107 61.7033C27.7753 61.6714 27.6348 61.6673 27.4977 61.6914C27.3606 61.7154 27.23 61.767 27.1137 61.8431C26.8681 62.0383 26.696 62.3103 26.6252 62.615C26.5545 62.9197 26.5893 63.2392 26.7239 63.5218L26.7201 63.5295Z" fill="#161616"/>
<path d="M15.5352 60.2118L18.9885 56.6763L20.4072 57.4516L19.5576 60.5142L21.7481 58.1882L23.1551 58.9635L21.9858 63.7513L20.7035 63.0457L21.7714 59.7428L19.4055 62.3285L18.0492 61.5803L18.9924 58.227L16.7512 60.8631L15.5352 60.2118Z" fill="#161616"/>
<path d="M14.1901 57.6403C13.8241 57.7717 13.4281 57.7973 13.0481 57.714C12.6796 57.63 12.3428 57.443 12.0776 57.1751C11.8519 56.9617 11.6843 56.695 11.5904 56.3997C11.5128 56.1484 11.5007 55.8816 11.5553 55.6244L11.0798 56.1012L10.0391 55.0739L13.4106 51.6973L14.4512 52.7246L13.9718 53.2014C14.2379 53.1431 14.5148 53.1551 14.7747 53.2363C15.0695 53.3304 15.3369 53.494 15.5543 53.7132C15.8246 53.9748 16.0128 54.3087 16.0961 54.6746C16.1778 55.0553 16.1522 55.4511 16.022 55.8182C15.8656 56.235 15.6216 56.6137 15.3064 56.9292C14.9912 57.2448 14.612 57.4898 14.194 57.6481L14.1901 57.6403ZM12.3699 55.229C12.3678 55.3665 12.3934 55.503 12.4454 55.6305C12.4973 55.758 12.5745 55.8738 12.6723 55.971C12.7701 56.0683 12.8865 56.145 13.0147 56.1967C13.1428 56.2484 13.2801 56.2739 13.4184 56.2718C13.7315 56.2379 14.0235 56.0982 14.2456 55.8759C14.4676 55.6537 14.6063 55.3623 14.6383 55.0506C14.6432 54.9124 14.6195 54.7746 14.5685 54.6459C14.5176 54.5171 14.4405 54.4002 14.3421 54.3024C14.2438 54.2046 14.1262 54.1279 13.9968 54.0772C13.8674 54.0266 13.7289 54.0029 13.5899 54.0078C13.2767 54.0417 12.9847 54.1814 12.7626 54.4037C12.5406 54.6259 12.402 54.9173 12.3699 55.229Z" fill="#161616"/>
<path d="M5.54492 48.4489L13.1298 47.3247L13.9561 48.6622L11.3057 48.9994L8.38242 53.0545L7.52882 51.6628L9.50105 49.17L6.38291 49.7942L5.54492 48.4489Z" fill="#161616"/>
<path d="M8.66309 43.8327C8.64302 44.1587 8.53826 44.4739 8.35906 44.7476C8.19015 45.0012 7.94842 45.1984 7.66529 45.3136L7.20146 43.949C7.27469 43.9168 7.34007 43.8693 7.39321 43.8098C7.44634 43.7503 7.48596 43.6801 7.50937 43.6039C7.5673 43.4329 7.5673 43.2477 7.50937 43.0767C7.47087 42.9333 7.38763 42.8057 7.27162 42.7123C7.22831 42.6781 7.17691 42.6555 7.12232 42.6466C7.06773 42.6378 7.01178 42.6431 6.95981 42.6619C6.89672 42.6829 6.84178 42.7229 6.80266 42.7764C6.76353 42.8299 6.74217 42.8942 6.74154 42.9604C6.72131 43.2003 6.72131 43.4415 6.74154 43.6815C6.77379 43.9775 6.7868 44.2754 6.78051 44.5731C6.76827 44.8168 6.696 45.0538 6.57004 45.2632C6.42007 45.5002 6.18657 45.673 5.91524 45.7478C5.66345 45.8322 5.39212 45.8403 5.1357 45.771C4.8561 45.6907 4.60571 45.5319 4.41462 45.3136C4.17663 45.0443 3.99746 44.7288 3.88844 44.387C3.69849 43.9136 3.68603 43.388 3.85335 42.9061C4.02816 42.484 4.36271 42.1471 4.7849 41.968L5.22144 43.2434C5.15091 43.2759 5.08765 43.3222 5.03543 43.3794C4.98321 43.4367 4.9431 43.5038 4.91743 43.5768C4.86101 43.7401 4.86101 43.9175 4.91743 44.0808C4.95472 44.2133 5.0323 44.3311 5.13958 44.4181C5.18166 44.4503 5.23142 44.4712 5.28401 44.4787C5.3366 44.4861 5.39023 44.4799 5.43971 44.4607C5.50322 44.4387 5.55851 44.398 5.59819 44.3439C5.63788 44.2899 5.66009 44.2252 5.66188 44.1583C5.67548 43.9216 5.66766 43.6842 5.63849 43.4489C5.61068 43.1499 5.60286 42.8495 5.61511 42.5495C5.63372 42.2964 5.71689 42.0522 5.85676 41.84C6.01313 41.6008 6.24904 41.4238 6.52327 41.3399C6.77666 41.2584 7.04942 41.2584 7.30281 41.3399C7.57846 41.4278 7.82409 41.5902 8.01219 41.809C8.24107 42.0742 8.41345 42.3828 8.51888 42.7162C8.64603 43.0739 8.69519 43.4545 8.66309 43.8327Z" fill="#161616"/>
<path d="M8.12869 34.6206L8.19885 36.0783L0.115077 36.4659L0.0449219 35.0122L8.12869 34.6206Z" fill="#161616"/>
</svg>
