<svg width="24" height="24" viewBox="0 0 30 30" fill="none" xmlns="http://www.w3.org/2000/svg">
<mask id="path-1-inside-1_1540_2052" fill="white">
<path fill-rule="evenodd" clip-rule="evenodd" d="M6.38214 23.6179C1.62262 18.8583 1.62262 11.1417 6.38214 6.38214C11.1417 1.62262 18.8583 1.62262 23.6179 6.38214C28.3774 11.1417 28.3774 18.8584 23.6179 23.6179C18.8583 28.3774 11.1417 28.3774 6.38214 23.6179ZM4.3934 4.3934C-1.46447 10.2513 -1.46447 19.7487 4.3934 25.6066C10.2513 31.4645 19.7487 31.4645 25.6066 25.6066C31.4645 19.7487 31.4645 10.2513 25.6066 4.3934C19.7487 -1.46447 10.2513 -1.46447 4.3934 4.3934ZM11.3083 9.31813C10.7591 8.76896 9.86871 8.76896 9.31953 9.31813C8.77036 9.86731 8.77036 10.7577 9.31953 11.3069L13.0127 15L9.31953 18.6931C8.77035 19.2423 8.77035 20.1327 9.31953 20.6819C9.8687 21.231 10.7591 21.231 11.3083 20.6819L15.0014 16.9887L18.6945 20.6819C19.2437 21.231 20.1341 21.231 20.6833 20.6819C21.2324 20.1327 21.2324 19.2423 20.6833 18.6931L16.9901 15L20.6833 11.3069C21.2324 10.7577 21.2324 9.86732 20.6833 9.31814C20.1341 8.76897 19.2437 8.76897 18.6945 9.31814L15.0014 13.0113L11.3083 9.31813Z"/>
</mask>
<path fill-rule="evenodd" clip-rule="evenodd" d="M6.38214 23.6179C1.62262 18.8583 1.62262 11.1417 6.38214 6.38214C11.1417 1.62262 18.8583 1.62262 23.6179 6.38214C28.3774 11.1417 28.3774 18.8584 23.6179 23.6179C18.8583 28.3774 11.1417 28.3774 6.38214 23.6179ZM4.3934 4.3934C-1.46447 10.2513 -1.46447 19.7487 4.3934 25.6066C10.2513 31.4645 19.7487 31.4645 25.6066 25.6066C31.4645 19.7487 31.4645 10.2513 25.6066 4.3934C19.7487 -1.46447 10.2513 -1.46447 4.3934 4.3934ZM11.3083 9.31813C10.7591 8.76896 9.86871 8.76896 9.31953 9.31813C8.77036 9.86731 8.77036 10.7577 9.31953 11.3069L13.0127 15L9.31953 18.6931C8.77035 19.2423 8.77035 20.1327 9.31953 20.6819C9.8687 21.231 10.7591 21.231 11.3083 20.6819L15.0014 16.9887L18.6945 20.6819C19.2437 21.231 20.1341 21.231 20.6833 20.6819C21.2324 20.1327 21.2324 19.2423 20.6833 18.6931L16.9901 15L20.6833 11.3069C21.2324 10.7577 21.2324 9.86732 20.6833 9.31814C20.1341 8.76897 19.2437 8.76897 18.6945 9.31814L15.0014 13.0113L11.3083 9.31813Z" fill="#161616"/>
<path d="M6.38214 6.38214L6.73569 6.73569L6.73569 6.73569L6.38214 6.38214ZM6.38214 23.6179L6.02858 23.9714L6.02858 23.9714L6.38214 23.6179ZM23.6179 6.38214L23.9714 6.02858L23.9714 6.02858L23.6179 6.38214ZM23.6179 23.6179L23.9714 23.9714L23.9714 23.9714L23.6179 23.6179ZM4.3934 25.6066L4.03984 25.9602L4.3934 25.6066ZM4.3934 4.3934L4.74695 4.74695L4.74695 4.74695L4.3934 4.3934ZM25.6066 25.6066L25.9602 25.9602L25.9602 25.9602L25.6066 25.6066ZM25.6066 4.3934L25.9602 4.03984L25.9602 4.03984L25.6066 4.3934ZM9.31953 9.31813L8.96598 8.96458L8.96598 8.96458L9.31953 9.31813ZM11.3083 9.31813L10.9547 9.67168L10.9547 9.67168L11.3083 9.31813ZM9.31953 11.3069L9.67309 10.9533L9.67309 10.9533L9.31953 11.3069ZM13.0127 15L13.3662 15.3536L13.7198 15L13.3662 14.6464L13.0127 15ZM9.31953 18.6931L8.96598 18.3396L8.96598 18.3396L9.31953 18.6931ZM9.31953 20.6819L8.96597 21.0354L8.96597 21.0354L9.31953 20.6819ZM11.3083 20.6819L10.9547 20.3283L10.9547 20.3283L11.3083 20.6819ZM15.0014 16.9887L15.355 16.6352L15.0014 16.2816L14.6478 16.6352L15.0014 16.9887ZM18.6945 20.6819L19.0481 20.3283L19.0481 20.3283L18.6945 20.6819ZM20.6833 20.6819L21.0368 21.0354L21.0368 21.0354L20.6833 20.6819ZM20.6833 18.6931L21.0368 18.3396L21.0368 18.3396L20.6833 18.6931ZM16.9901 15L16.6366 14.6464L16.283 15L16.6366 15.3536L16.9901 15ZM20.6833 11.3069L21.0368 11.6604L21.0368 11.6604L20.6833 11.3069ZM20.6833 9.31814L21.0368 8.96459L21.0368 8.96459L20.6833 9.31814ZM18.6945 9.31814L19.0481 9.67169L19.0481 9.67169L18.6945 9.31814ZM15.0014 13.0113L14.6478 13.3648L15.0014 13.7184L15.355 13.3648L15.0014 13.0113ZM6.02858 6.02858C1.07381 10.9834 1.07381 19.0166 6.02858 23.9714L6.73569 23.2643C2.17144 18.7001 2.17144 11.2999 6.73569 6.73569L6.02858 6.02858ZM23.9714 6.02858C19.0166 1.07381 10.9834 1.07381 6.02858 6.02858L6.73569 6.73569C11.2999 2.17144 18.7001 2.17144 23.2643 6.73569L23.9714 6.02858ZM23.9714 23.9714C28.9262 19.0166 28.9262 10.9834 23.9714 6.02858L23.2643 6.73569C27.8286 11.2999 27.8286 18.7001 23.2643 23.2643L23.9714 23.9714ZM6.02858 23.9714C10.9834 28.9262 19.0166 28.9262 23.9714 23.9714L23.2643 23.2643C18.7001 27.8286 11.2999 27.8286 6.73569 23.2643L6.02858 23.9714ZM4.74695 25.253C-0.91565 19.5904 -0.91565 10.4096 4.74695 4.74695L4.03984 4.03984C-2.01328 10.093 -2.01328 19.907 4.03984 25.9602L4.74695 25.253ZM25.2531 25.253C19.5904 30.9157 10.4096 30.9157 4.74695 25.253L4.03984 25.9602C10.093 32.0133 19.907 32.0133 25.9602 25.9602L25.2531 25.253ZM25.2531 4.74695C30.9157 10.4096 30.9157 19.5904 25.2531 25.253L25.9602 25.9602C32.0133 19.907 32.0133 10.093 25.9602 4.03984L25.2531 4.74695ZM4.74695 4.74695C10.4096 -0.915651 19.5904 -0.915651 25.2531 4.74695L25.9602 4.03984C19.907 -2.01328 10.093 -2.01328 4.03984 4.03984L4.74695 4.74695ZM9.67309 9.67168C10.027 9.31777 10.6008 9.31777 10.9547 9.67168L11.6618 8.96458C10.9174 8.22014 9.71042 8.22014 8.96598 8.96458L9.67309 9.67168ZM9.67309 10.9533C9.31917 10.5994 9.31917 10.0256 9.67309 9.67168L8.96598 8.96458C8.22154 9.70901 8.22154 10.916 8.96598 11.6604L9.67309 10.9533ZM13.3662 14.6464L9.67309 10.9533L8.96598 11.6604L12.6591 15.3536L13.3662 14.6464ZM9.67308 19.0467L13.3662 15.3536L12.6591 14.6464L8.96598 18.3396L9.67308 19.0467ZM9.67308 20.3283C9.31917 19.9744 9.31917 19.4006 9.67308 19.0467L8.96598 18.3396C8.22154 19.084 8.22154 20.291 8.96597 21.0354L9.67308 20.3283ZM10.9547 20.3283C10.6008 20.6822 10.027 20.6822 9.67308 20.3283L8.96597 21.0354C9.71041 21.7798 10.9174 21.7798 11.6618 21.0354L10.9547 20.3283ZM14.6478 16.6352L10.9547 20.3283L11.6618 21.0354L15.355 17.3423L14.6478 16.6352ZM19.0481 20.3283L15.355 16.6352L14.6478 17.3423L18.341 21.0354L19.0481 20.3283ZM20.3297 20.3283C19.9758 20.6822 19.402 20.6822 19.0481 20.3283L18.341 21.0354C19.0854 21.7799 20.2924 21.7799 21.0368 21.0354L20.3297 20.3283ZM20.3297 19.0467C20.6836 19.4006 20.6836 19.9744 20.3297 20.3283L21.0368 21.0354C21.7813 20.291 21.7813 19.084 21.0368 18.3396L20.3297 19.0467ZM16.6366 15.3536L20.3297 19.0467L21.0368 18.3396L17.3437 14.6464L16.6366 15.3536ZM20.3297 10.9533L16.6366 14.6464L17.3437 15.3536L21.0368 11.6604L20.3297 10.9533ZM20.3297 9.6717C20.6836 10.0256 20.6836 10.5994 20.3297 10.9533L21.0368 11.6604C21.7813 10.916 21.7813 9.70903 21.0368 8.96459L20.3297 9.6717ZM19.0481 9.67169C19.402 9.31778 19.9758 9.31778 20.3297 9.6717L21.0368 8.96459C20.2924 8.22015 19.0854 8.22015 18.341 8.96459L19.0481 9.67169ZM15.355 13.3648L19.0481 9.67169L18.341 8.96459L14.6478 12.6577L15.355 13.3648ZM10.9547 9.67168L14.6478 13.3648L15.355 12.6577L11.6618 8.96458L10.9547 9.67168Z" fill="#F9765F" mask="url(#path-1-inside-1_1540_2052)"/>
</svg>
