<svg width="24" height="24" viewBox="0 0 24 24" fill="none" xmlns="http://www.w3.org/2000/svg">
<path fill-rule="evenodd" clip-rule="evenodd" d="M5.55212 11.9317C5.97298 11.3109 6.81877 10.1815 7.9654 9.21477C9.11904 8.2421 10.4978 7.5 12 7.5C13.5021 7.5 14.881 8.2421 16.0346 9.21477C17.1812 10.1815 18.027 11.3109 18.4479 11.9317C18.4773 11.975 18.4773 12.025 18.4479 12.0683C18.027 12.6891 17.1812 13.8185 16.0346 14.7852C14.881 15.7579 13.5021 16.5 12 16.5C10.4978 16.5 9.11904 15.7579 7.9654 14.7852C6.81877 13.8185 5.97298 12.6891 5.55212 12.0683C5.52272 12.025 5.52272 11.975 5.55212 11.9317ZM12 6C9.97892 6 8.25559 6.99167 6.96771 8.07751C5.67283 9.16926 4.73772 10.4231 4.27787 11.1013C3.90738 11.6477 3.90738 12.3523 4.27787 12.8987C4.73773 13.5769 5.67283 14.8307 6.96771 15.9225C8.25559 17.0083 9.97892 18 12 18C14.0211 18 15.7444 17.0083 17.0323 15.9225C18.3271 14.8307 19.2623 13.5769 19.7221 12.8987C20.0926 12.3523 20.0926 11.6477 19.7221 11.1013C19.2623 10.4231 18.3271 9.16926 17.0323 8.07751C15.7444 6.99167 14.0211 6 12 6ZM12 14C13.1267 14 14.0401 13.1046 14.0401 12C14.0401 10.8954 13.1267 10 12 10C10.8733 10 9.9599 10.8954 9.9599 12C9.9599 13.1046 10.8733 14 12 14Z" fill="#161616"/>
</svg>
