<svg width="20" height="20" viewBox="0 0 20 20" fill="none" xmlns="http://www.w3.org/2000/svg">
<path d="M8.23121 10.4688C8.17313 10.4688 6.95477 10.4692 6.39284 10.4686C6.10356 10.4684 6.00035 10.363 6.00035 10.0679C5.99988 9.30984 5.99988 8.55177 6.00035 7.79371C6.00053 7.50233 6.10966 7.39114 6.39525 7.39095C6.95717 7.39058 8.16888 7.39077 8.23121 7.39077V5.74038C8.23158 4.99526 8.36272 4.282 8.73617 3.62894C9.11849 2.9605 9.67487 2.50262 10.3879 2.23787C10.8446 2.06818 11.3187 2.00049 11.8033 2.00012C12.4096 1.99974 13.0159 2.0003 13.6224 2.00143C13.883 2.0018 13.9986 2.11862 13.9992 2.38468C14.0003 3.09775 14.0003 3.81081 13.9992 4.52369C13.9988 4.79257 13.888 4.90057 13.6215 4.90357C13.1245 4.909 12.6271 4.90563 12.1306 4.92588C11.6292 4.92588 11.3654 5.17413 11.3654 5.70026C11.3534 6.25676 11.3605 6.81383 11.3605 7.39058C11.4074 7.39058 12.8344 7.39039 13.5014 7.39058C13.8044 7.39058 13.908 7.49614 13.908 7.80496C13.908 8.5589 13.9078 9.31303 13.9072 10.067C13.9071 10.3713 13.8098 10.4684 13.5049 10.4686C12.838 10.469 11.4165 10.4688 11.3543 10.4688V16.571C11.3543 16.8963 11.2534 17 10.9367 17H8.62038C8.34053 17 8.2314 16.8897 8.2314 16.6061L8.23121 10.4688Z" fill="#3D6AD6"/>
</svg>
