<svg width="24" height="25" viewBox="0 0 24 25" fill="none" xmlns="http://www.w3.org/2000/svg">
<path d="M11.9991 22.8961C11.7228 22.8961 11.4565 22.796 11.249 22.6142C10.4651 21.9288 9.70931 21.2846 9.04251 20.7164L9.0391 20.7135C7.08417 19.0475 5.39602 17.6088 4.22144 16.1916C2.90846 14.6073 2.29688 13.105 2.29688 11.4639C2.29688 9.86951 2.84361 8.39852 3.83623 7.3218C4.84072 6.23235 6.21901 5.63232 7.71766 5.63232C8.83778 5.63232 9.86356 5.98646 10.7665 6.68479C11.2222 7.03725 11.6352 7.46866 11.9991 7.97185C12.3631 7.46866 12.7761 7.03725 13.2319 6.68479C14.1348 5.98646 15.1606 5.63232 16.2807 5.63232C17.7792 5.63232 19.1577 6.23235 20.1621 7.3218C21.1548 8.39852 21.7014 9.86951 21.7014 11.4639C21.7014 13.105 21.0899 14.6072 19.7769 16.1914C18.6023 17.6088 16.9143 19.0474 14.9597 20.7132C14.2917 21.2823 13.5348 21.9274 12.7491 22.6145C12.5415 22.7961 12.275 22.8962 11.9991 22.8961ZM7.71766 6.769C6.54028 6.769 5.45867 7.23892 4.6718 8.09222C3.87326 8.95845 3.4334 10.1558 3.4334 11.4639C3.4334 12.8442 3.94637 14.0785 5.09654 15.4663C6.2082 16.8077 7.86172 18.2168 9.77624 19.8485L9.77976 19.8514C10.4491 20.4218 11.2078 21.0685 11.9975 21.759C12.7919 21.0671 13.5518 20.4194 14.2224 19.8482C16.1368 18.2165 17.7902 16.8077 18.9018 15.4663C20.0519 14.0785 20.5648 12.8442 20.5648 11.4639C20.5648 10.1558 20.125 8.95841 19.3264 8.09222C18.5397 7.23892 17.458 6.769 16.2807 6.769C15.4182 6.769 14.6263 7.0432 13.9271 7.58384C13.304 8.06588 12.8699 8.67523 12.6154 9.10159C12.4846 9.32084 12.2542 9.45171 11.9991 9.45171C11.744 9.45171 11.5137 9.32084 11.3828 9.10159C11.1285 8.67523 10.6944 8.06588 10.0711 7.58384C9.37193 7.0432 8.58002 6.769 7.71766 6.769Z" fill="#191A1C"/>
</svg>
