<svg width="24" height="24" viewBox="0 0 24 24" fill="none" xmlns="http://www.w3.org/2000/svg">
<g clip-path="url(#clip0_284_1859)">
<path d="M23.9278 7.05248C23.8695 5.77514 23.6666 4.9028 23.37 4.13967C23.0687 3.33893 22.5963 2.61356 21.9858 2.01417C21.3864 1.40361 20.6611 0.931149 19.8603 0.629719C19.097 0.333234 18.2249 0.130547 16.9475 0.0725156C15.6678 0.0139219 15.2589 0 12 0C8.74111 0 8.33222 0.0139219 7.05248 0.0721875C5.77514 0.130547 4.90303 0.333422 4.13967 0.630047C3.33891 0.931338 2.61353 1.40371 2.01412 2.01422C1.40357 2.61354 0.931106 3.33884 0.629672 4.13953C0.333187 4.90289 0.1305 5.77519 0.0724688 7.05234C0.0139219 8.33222 0 8.74092 0 11.9998C0 15.2589 0.0139219 15.6678 0.0725156 16.9475C0.130734 18.2247 0.333609 19.097 0.630234 19.8604C0.931522 20.6611 1.40388 21.3864 2.01436 21.9857C2.61371 22.5962 3.33907 23.0685 4.13981 23.3698C4.90303 23.6666 5.77533 23.8693 7.05267 23.9277C8.33259 23.9861 8.74125 23.9999 12.0002 23.9999C15.2591 23.9999 15.668 23.9861 16.9477 23.9277C18.225 23.8693 19.0972 23.6666 19.8605 23.3698C20.6577 23.0615 21.3816 22.5901 21.986 21.9858C22.5903 21.3814 23.0617 20.6575 23.37 19.8603C23.6668 19.097 23.8695 18.2247 23.9279 16.9475C23.9861 15.6676 24 15.2589 24 12C24 8.74092 23.9861 8.33222 23.9278 7.05248ZM21.7678 16.8492C21.7145 18.0193 21.519 18.6547 21.3547 19.0774C21.1551 19.595 20.8493 20.065 20.4571 20.4572C20.0648 20.8495 19.5948 21.1553 19.0772 21.3549C18.6544 21.5191 18.0191 21.7147 16.849 21.768C15.584 21.8258 15.2044 21.8379 12 21.8379C8.79553 21.8379 8.41612 21.8258 7.15083 21.768C5.98102 21.7147 5.34567 21.5191 4.92267 21.3549C4.40148 21.1625 3.93003 20.8557 3.54295 20.4571C3.14436 20.0701 2.83759 19.5986 2.6452 19.0774C2.48095 18.6546 2.28539 18.0193 2.23209 16.8492C2.17444 15.584 2.16216 15.2044 2.16216 12.0002C2.16216 8.79586 2.17444 8.4165 2.23209 7.15101C2.28553 5.98101 2.48095 5.34562 2.6452 4.92286C2.83765 4.40162 3.14441 3.93011 3.54295 3.54295C3.93002 3.14435 4.40156 2.83764 4.92286 2.64539C5.34567 2.48095 5.98102 2.28558 7.15106 2.23209C8.41631 2.17444 8.79591 2.16216 12 2.16216H11.9999C15.204 2.16216 15.5836 2.17444 16.8491 2.23228C18.0191 2.28558 18.6543 2.48114 19.0772 2.64539C19.5984 2.83782 20.0698 3.14451 20.457 3.54295C20.8556 3.93002 21.1623 4.40156 21.3546 4.92286C21.519 5.34567 21.7146 5.98102 21.7678 7.15106C21.8255 8.41631 21.8377 8.79591 21.8377 12C21.8377 15.2044 21.8257 15.5837 21.7678 16.8492Z" fill="url(#paint0_linear_284_1859)"/>
<path d="M11.9999 5.83789C8.59677 5.83789 5.83789 8.59686 5.83789 12.0001C5.83789 15.4033 8.59677 18.1621 11.9999 18.1621C15.4033 18.1621 18.1622 15.4033 18.1622 12.0001C18.1622 8.59686 15.4033 5.83789 11.9999 5.83789ZM11.9999 16C9.79095 15.9998 8 14.2091 8.00019 11.9999C8.00019 9.79091 9.79095 7.99995 12.0001 7.99995C14.2093 8.00014 16.0001 9.79091 16.0001 11.9999C16.0001 14.2091 14.2091 16 11.9999 16Z" fill="url(#paint1_linear_284_1859)"/>
<path d="M19.8459 5.59444C19.8459 6.38967 19.2011 7.03434 18.4059 7.03434C17.6105 7.03434 16.9658 6.38963 16.9658 5.59444C16.9658 4.79897 17.6105 4.1543 18.4059 4.1543C19.2011 4.1543 19.8459 4.79902 19.8459 5.59444H19.8459Z" fill="url(#paint2_linear_284_1859)"/>
</g>
<defs>
<linearGradient id="paint0_linear_284_1859" x1="2.01403" y1="21.9858" x2="21.986" y2="2.01384" gradientUnits="userSpaceOnUse">
<stop stop-color="#FFD600"/>
<stop offset="0.5" stop-color="#FF0100"/>
<stop offset="1" stop-color="#D800B9"/>
</linearGradient>
<linearGradient id="paint1_linear_284_1859" x1="7.64277" y1="16.3573" x2="16.3573" y2="7.64272" gradientUnits="userSpaceOnUse">
<stop stop-color="#FF6400"/>
<stop offset="0.5" stop-color="#FF0100"/>
<stop offset="1" stop-color="#FD0056"/>
</linearGradient>
<linearGradient id="paint2_linear_284_1859" x1="17.3876" y1="6.61256" x2="19.4241" y2="4.57612" gradientUnits="userSpaceOnUse">
<stop stop-color="#F30072"/>
<stop offset="1" stop-color="#E50097"/>
</linearGradient>
<clipPath id="clip0_284_1859">
<rect width="24" height="24" fill="white"/>
</clipPath>
</defs>
</svg>
