<svg width="60" height="61" viewBox="0 0 60 61" fill="none" xmlns="http://www.w3.org/2000/svg">
<g opacity="0.5">
<path d="M58.1007 20.3355L57.4236 19.71C55.8513 18.2182 54.0833 16.9474 52.1682 15.9324C48.0547 13.7446 43.4504 12.644 38.7922 12.7351C35.2875 12.797 31.8218 13.4824 28.5574 14.7592C26.3958 15.5842 24.3269 16.6341 22.3848 17.8918C21.0782 18.6886 19.8525 19.6111 18.7253 20.6463C18.5569 20.8243 18.3721 20.986 18.1733 21.1292C17.526 21.5929 16.9362 22.1322 16.4165 22.7355C15.3046 23.9393 14.1129 25.1028 13.2705 26.522C12.4759 27.453 11.7787 28.4628 11.1896 29.5356C9.10725 33.0454 7.55805 36.8451 6.59275 40.8103C6.38745 41.6909 6.32852 42.5992 6.41829 43.4989C6.48612 44.2711 6.72579 45.0184 7.11974 45.686C7.18153 45.7867 7.26434 45.8728 7.36253 45.9384C7.46071 46.0041 7.57196 46.0478 7.68859 46.0664C7.86532 46.1098 8.05048 46.1046 8.22446 46.0512C8.39844 45.9979 8.55476 45.8984 8.67676 45.7634C9.02277 45.4163 9.29702 45.0044 9.48388 44.5514C9.93706 43.4894 10.3103 42.395 10.6005 41.2774C11.2386 38.9301 12.1066 36.6515 13.1919 34.4746C14.3968 32.1428 15.8321 29.9374 17.4764 27.8916C18.9342 26.0694 20.6113 24.4342 22.4697 23.0228C24.1442 21.7016 25.9642 20.5759 27.8941 19.6677C31.0084 18.1675 34.3864 17.2917 37.8373 17.0899C39.8089 16.9909 41.7851 17.1394 43.7198 17.5318C47.5177 18.2295 51.0526 19.9518 53.9428 22.5126C54.9012 23.3457 55.7992 24.246 56.63 25.2064L59.6598 21.9261C59.17 21.3674 58.6495 20.8363 58.1007 20.3355Z" fill="url(#paint0_linear_2357_6711)"/>
<path d="M43.281 36.1267C39.8407 34.515 35.9416 34.1708 32.2721 35.1548C27.8203 36.2922 23.7913 38.6899 20.6684 42.0603C20.4211 42.3281 20.1709 42.599 19.9235 42.8668C19.0092 43.8562 18.3644 45.0637 18.0507 46.3738C17.9023 46.8973 17.8785 47.4483 17.9812 47.9827C18.0356 48.2111 18.1255 48.4296 18.2475 48.6302C18.345 48.7783 18.4965 48.8825 18.6697 48.9206C18.8429 48.9587 19.0241 48.9276 19.1747 48.834C19.7576 48.4992 20.2932 48.088 20.7671 47.6111C21.4314 46.8919 22.1559 46.2282 22.8114 45.5064C24.0159 44.2069 25.3683 43.0527 26.841 42.0675C29.0433 40.5429 31.5608 39.5343 34.2065 39.1165C36.5177 38.7522 38.8845 39.0335 41.046 39.9292C41.5116 40.1199 41.9609 40.3484 42.3893 40.6123L45.3997 37.353C44.731 36.8826 44.022 36.4722 43.281 36.1267Z" fill="url(#paint1_linear_2357_6711)"/>
<path d="M33.8818 46.0499C32.7054 45.7674 31.4819 45.7414 30.2946 45.9736C29.1072 46.2058 27.9837 46.6909 27.0005 47.3958C26.1378 47.9878 25.5189 48.8724 25.2584 49.8858C25.1037 50.4089 25.1259 50.9685 25.3216 51.4778C25.4188 51.6949 25.5844 51.8743 25.7931 51.9885C26.0018 52.1027 26.2421 52.1455 26.4774 52.1103C26.7132 52.0584 26.9433 51.9832 27.1642 51.8859C27.7749 51.6135 28.3561 51.2796 28.899 50.8893C29.1959 50.6772 29.5093 50.4893 29.8363 50.3274C30.371 50.0383 30.9717 49.8936 31.5794 49.9073C32.2235 49.926 32.8599 50.0537 33.4614 50.2849L36.4579 47.0406C35.6571 46.576 34.7875 46.2416 33.8818 46.0499Z" fill="url(#paint2_linear_2357_6711)"/>
</g>
<defs>
<linearGradient id="paint0_linear_2357_6711" x1="41.6727" y1="41.4005" x2="17.1384" y2="18.7399" gradientUnits="userSpaceOnUse">
<stop stop-color="#FFDA8D"/>
<stop offset="0.456359" stop-color="#E62A21"/>
<stop offset="1" stop-color="#8121A3"/>
</linearGradient>
<linearGradient id="paint1_linear_2357_6711" x1="36.3326" y1="47.1698" x2="24.5681" y2="36.3038" gradientUnits="userSpaceOnUse">
<stop stop-color="#FFDA8D"/>
<stop offset="0.456359" stop-color="#E62A21"/>
<stop offset="1" stop-color="#8121A3"/>
</linearGradient>
<linearGradient id="paint2_linear_2357_6711" x1="32.7589" y1="51.0454" x2="27.4052" y2="46.1006" gradientUnits="userSpaceOnUse">
<stop stop-color="#FFDA8D"/>
<stop offset="0.456359" stop-color="#E62A21"/>
<stop offset="1" stop-color="#8121A3"/>
</linearGradient>
</defs>
</svg>
