<svg width="24" height="24" viewBox="0 0 24 24" fill="none" xmlns="http://www.w3.org/2000/svg">
<path d="M19.478 12.4223C19.814 11.9913 20 11.4632 20 10.9137C20 10.042 19.498 9.21685 18.69 8.75671C18.482 8.63827 18.2452 8.57594 18.004 8.57615H13.208L13.328 6.19004C13.356 5.61341 13.146 5.0659 12.738 4.64848C12.5378 4.44273 12.2962 4.27903 12.0282 4.1675C11.7603 4.05596 11.4716 3.99896 11.18 4.00001C10.14 4.00001 9.22 4.67954 8.944 5.65224L7.226 11.6903H4.64C4.286 11.6903 4 11.968 4 12.3116V19.3787C4 19.7224 4.286 20 4.64 20H16.666C16.85 20 17.03 19.9651 17.196 19.8952C18.148 19.501 18.762 18.5982 18.762 17.5964C18.762 17.3518 18.726 17.111 18.654 16.8781C18.99 16.447 19.176 15.9189 19.176 15.3695C19.176 15.1249 19.14 14.8841 19.068 14.6511C19.404 14.2201 19.59 13.692 19.59 13.1426C19.586 12.898 19.55 12.6553 19.478 12.4223ZM5.44 18.6021V13.0882H7.06V18.6021H5.44ZM18.168 11.7486L17.73 12.1175L18.008 12.6106C18.0996 12.7731 18.1471 12.9555 18.146 13.1406C18.146 13.461 18.002 13.7658 17.754 13.9755L17.316 14.3444L17.594 14.8375C17.6856 15 17.7331 15.1824 17.732 15.3676C17.732 15.6879 17.588 15.9927 17.34 16.2024L16.902 16.5713L17.18 17.0644C17.2716 17.2269 17.3191 17.4093 17.318 17.5945C17.318 18.0294 17.054 18.4216 16.646 18.6002H8.34V13.0261L10.33 6.02695C10.3813 5.84756 10.4915 5.68929 10.6438 5.57613C10.7961 5.46296 10.9822 5.40108 11.174 5.39984C11.326 5.39984 11.476 5.44256 11.596 5.52992C11.794 5.6736 11.9 5.89105 11.888 6.12209L11.696 9.97404H17.984C18.34 10.1857 18.56 10.5429 18.56 10.9137C18.56 11.2341 18.416 11.537 18.168 11.7486Z" fill="#161616"/>
</svg>
