<svg width="20" height="20" viewBox="0 0 20 20" fill="none" xmlns="http://www.w3.org/2000/svg">
<path fill-rule="evenodd" clip-rule="evenodd" d="M13.2545 1.25H18.4375C18.6101 1.25 18.75 1.38991 18.75 1.5625V6.74556C18.75 7.02396 18.4134 7.1634 18.2165 6.96652L16.2879 5.03791L11.6004 9.72541C11.2343 10.0915 10.6407 10.0915 10.2746 9.72541C9.90848 9.3593 9.90848 8.7657 10.2746 8.39959L14.9621 3.71209L13.0335 1.78347C12.8366 1.58661 12.976 1.25 13.2545 1.25ZM4.6875 2.5C3.47938 2.5 2.5 3.47938 2.5 4.6875V15.3125C2.5 16.5206 3.47938 17.5 4.6875 17.5H15.3125C16.5206 17.5 17.5 16.5206 17.5 15.3125V10.9375C17.5 10.4197 17.0802 10 16.5625 10C16.0448 10 15.625 10.4197 15.625 10.9375V15.3125C15.625 15.4851 15.4851 15.625 15.3125 15.625H4.6875C4.51491 15.625 4.375 15.4851 4.375 15.3125V4.6875C4.375 4.51491 4.51491 4.375 4.6875 4.375H9.0625C9.58026 4.375 10 3.95526 10 3.4375C10 2.91974 9.58026 2.5 9.0625 2.5H4.6875Z" fill="#161616" stroke="white" stroke-width="0.5"/>
</svg>
