<svg width="229" height="83" viewBox="0 0 229 83" fill="none" xmlns="http://www.w3.org/2000/svg">
<path d="M20.4607 42.9598C20.4607 45.3307 19.8295 47.3629 18.567 49.0564C17.3354 50.7499 15.7034 51.9969 13.6712 52.7975L20.2759 59.2175C20.4299 59.3714 20.5223 59.5869 20.553 59.8641C20.5838 60.1412 20.5069 60.3567 20.3221 60.5107C20.1374 60.6646 19.9218 60.757 19.6755 60.7878C19.4292 60.7878 19.1982 60.6954 18.9827 60.5107L11.5928 53.4441C10.6691 53.6289 9.71458 53.7212 8.72927 53.7212H3.64874V59.9103C3.64874 60.1566 3.55637 60.3721 3.37162 60.5569C3.18688 60.7416 2.97134 60.834 2.72501 60.834C2.47868 60.834 2.26314 60.7416 2.0784 60.5569C1.89365 60.3721 1.80128 60.1566 1.80128 59.9103V32.614C1.80128 32.4908 1.78588 32.383 1.75509 32.2907C1.7243 32.1675 1.7243 32.0597 1.75509 31.9674C1.78588 31.875 1.86286 31.8134 1.98602 31.7826C2.10919 31.721 2.32473 31.6902 2.63264 31.6902H8.72927C10.3304 31.6902 11.8392 31.9827 13.2556 32.5678C14.7027 33.122 15.9498 33.9072 16.9967 34.9233C18.0744 35.9086 18.9211 37.0941 19.5369 38.4797C20.1528 39.8653 20.4607 41.3586 20.4607 42.9598ZM18.6132 42.9598C18.6132 41.605 18.3515 40.3579 17.828 39.2187C17.3046 38.0486 16.5964 37.0479 15.7034 36.2165C14.8105 35.3852 13.7636 34.7386 12.5628 34.2767C11.3619 33.784 10.0841 33.5377 8.72927 33.5377H3.64874V51.8738H8.72927C10.0841 51.8738 11.3619 51.6736 12.5628 51.2734C13.7636 50.8423 14.8105 50.2419 15.7034 49.4721C16.5964 48.7023 17.3046 47.7632 17.828 46.6547C18.3515 45.5462 18.6132 44.3146 18.6132 42.9598ZM43.1343 54.9683C42.8572 55.7073 42.3953 56.4309 41.7487 57.1391C41.1329 57.8473 40.3939 58.4785 39.5318 59.0327C38.6696 59.5869 37.6997 60.0334 36.622 60.3721C35.5751 60.7108 34.482 60.8802 33.3428 60.8802C31.8032 60.8802 30.3714 60.5877 29.0474 60.0026C27.7542 59.4176 26.6303 58.617 25.6758 57.6009C24.7213 56.5848 23.9669 55.3994 23.4126 54.0446C22.8892 52.6897 22.6275 51.2426 22.6275 49.703C22.6275 48.1635 22.8892 46.7163 23.4126 45.3615C23.9669 44.0067 24.7213 42.8212 25.6758 41.8051C26.6303 40.789 27.7542 39.9884 29.0474 39.4034C30.3714 38.8184 31.8032 38.5259 33.3428 38.5259C34.6052 38.5259 35.7753 38.726 36.8529 39.1263C37.9614 39.5266 38.9467 40.0346 39.8089 40.6504C40.671 41.2355 41.3792 41.8667 41.9335 42.5441C42.5185 43.2215 42.9188 43.8527 43.1343 44.4377V41.8975C43.1343 40.7274 43.2421 39.8807 43.4576 39.3572C43.6732 38.8338 44.0119 38.572 44.4737 38.572C44.8124 38.572 44.9818 38.7414 44.9818 39.0801V60.3259C44.9818 60.6646 44.8124 60.834 44.4737 60.834C44.0119 60.834 43.6732 60.5723 43.4576 60.0488C43.2421 59.5254 43.1343 58.6786 43.1343 57.5085V54.9683ZM24.6135 49.703C24.6135 50.9962 24.8136 52.2279 25.2139 53.3979C25.645 54.5372 26.2454 55.5379 27.0152 56.4001C27.785 57.2622 28.7087 57.9396 29.7864 58.4323C30.8641 58.9249 32.0495 59.1713 33.3428 59.1713C34.636 59.1713 35.8676 58.9249 37.0377 58.4323C38.2385 57.9396 39.27 57.2622 40.1322 56.4001C41.0251 55.5379 41.7333 54.5372 42.2568 53.3979C42.7802 52.2279 43.042 50.9962 43.042 49.703C43.042 48.4406 42.7648 47.2397 42.2106 46.1005C41.6871 44.9304 40.9789 43.9143 40.086 43.0521C39.1931 42.19 38.1616 41.5126 36.9915 41.0199C35.8214 40.4965 34.6052 40.2348 33.3428 40.2348C32.0495 40.2348 30.8641 40.4811 29.7864 40.9737C28.7087 41.4664 27.785 42.1438 27.0152 43.006C26.2454 43.8681 25.645 44.8842 25.2139 46.0543C24.8136 47.1935 24.6135 48.4098 24.6135 49.703ZM59.5645 32.2907C59.5645 32.537 59.4721 32.7525 59.2874 32.9373C59.1026 33.122 58.8871 33.2144 58.6408 33.2144C57.0704 33.2452 55.8696 33.8456 55.0382 35.0157C54.2376 36.1857 53.8219 37.6175 53.7912 39.311V41.8051L57.717 41.6204H57.9018C58.5792 41.6204 58.9179 41.9591 58.9179 42.6365C58.9179 42.8828 58.8255 43.0983 58.6408 43.2831C58.456 43.4678 58.2097 43.5602 57.9018 43.5602H57.7632L53.7912 43.4216V59.9103C53.7912 60.1566 53.6988 60.3721 53.514 60.5569C53.3293 60.7416 53.1138 60.834 52.8674 60.834C52.6211 60.834 52.4056 60.7416 52.2208 60.5569C52.0361 60.3721 51.9437 60.1566 51.9437 59.9103V43.4216L48.1564 43.5602H47.9716C47.7253 43.5602 47.5098 43.4678 47.325 43.2831C47.1403 43.0983 47.0479 42.8828 47.0479 42.6365C47.0479 42.3285 47.1403 42.0822 47.325 41.8975C47.5098 41.7127 47.7253 41.6204 47.9716 41.6204H48.1564L51.9437 41.8051V39.311C51.9745 37.0325 52.5595 35.1542 53.6988 33.6763C54.8688 32.1675 56.5162 31.3977 58.6408 31.3669C58.8871 31.3669 59.1026 31.4593 59.2874 31.644C59.4721 31.8288 59.5645 32.0443 59.5645 32.2907ZM73.637 32.2907C73.637 32.537 73.5446 32.7525 73.3598 32.9373C73.1751 33.122 72.9596 33.2144 72.7132 33.2144C71.1429 33.2452 69.942 33.8456 69.1107 35.0157C68.3101 36.1857 67.8944 37.6175 67.8636 39.311V41.8051L71.7895 41.6204H71.9742C72.6517 41.6204 72.9904 41.9591 72.9904 42.6365C72.9904 42.8828 72.898 43.0983 72.7132 43.2831C72.5285 43.4678 72.2822 43.5602 71.9742 43.5602H71.8357L67.8636 43.4216V59.9103C67.8636 60.1566 67.7713 60.3721 67.5865 60.5569C67.4018 60.7416 67.1862 60.834 66.9399 60.834C66.6936 60.834 66.478 60.7416 66.2933 60.5569C66.1086 60.3721 66.0162 60.1566 66.0162 59.9103V43.4216L62.2289 43.5602H62.0441C61.7978 43.5602 61.5823 43.4678 61.3975 43.2831C61.2128 43.0983 61.1204 42.8828 61.1204 42.6365C61.1204 42.3285 61.2128 42.0822 61.3975 41.8975C61.5823 41.7127 61.7978 41.6204 62.0441 41.6204H62.2289L66.0162 41.8051V39.311C66.047 37.0325 66.632 35.1542 67.7713 33.6763C68.9413 32.1675 70.5887 31.3977 72.7132 31.3669C72.9596 31.3669 73.1751 31.4593 73.3598 31.644C73.5446 31.8288 73.637 32.0443 73.637 32.2907ZM76.8772 31.7364C77.1236 31.7364 77.3391 31.8288 77.5239 32.0135C77.7086 32.1983 77.801 32.4138 77.801 32.6602V59.9103C77.801 60.1566 77.7086 60.3721 77.5239 60.5569C77.3391 60.7416 77.1236 60.834 76.8772 60.834C76.6309 60.834 76.4154 60.7416 76.2306 60.5569C76.0459 60.3721 75.9535 60.1566 75.9535 59.9103V32.6602C75.9535 32.4138 76.0459 32.1983 76.2306 32.0135C76.4154 31.8288 76.6309 31.7364 76.8772 31.7364ZM138.194 37.6021C137.27 36.2473 136.285 35.262 135.238 34.6462C134.222 33.9996 132.928 33.6609 131.358 33.6301C130.557 33.6301 129.757 33.7532 128.956 33.9996C128.186 34.2459 127.494 34.6 126.878 35.0619C126.262 35.5237 125.754 36.0934 125.354 36.7708C124.953 37.4174 124.753 38.1256 124.753 38.8953C124.753 39.7267 124.969 40.4503 125.4 41.0661C125.862 41.6511 126.416 42.1746 127.063 42.6365C127.74 43.0983 128.464 43.4986 129.233 43.8373C130.003 44.1452 130.727 44.4069 131.404 44.6225C132.451 44.992 133.513 45.4231 134.591 45.9157C135.669 46.3776 136.654 46.9472 137.547 47.6246C138.471 48.2712 139.21 49.041 139.764 49.9339C140.349 50.8269 140.657 51.843 140.688 52.9823C140.718 54.0907 140.488 55.1222 139.995 56.0768C139.533 57.0313 138.871 57.8626 138.009 58.5708C137.147 59.279 136.131 59.8333 134.961 60.2336C133.79 60.6338 132.513 60.834 131.127 60.834C130.019 60.834 128.987 60.7108 128.033 60.4645C127.078 60.1874 126.2 59.8179 125.4 59.356C124.63 58.8941 123.968 58.3707 123.414 57.7857C122.89 57.1698 122.49 56.5386 122.213 55.892C122.059 55.5533 121.967 55.2608 121.936 55.0145C121.936 54.7681 122.059 54.568 122.305 54.414C122.521 54.2601 122.752 54.2139 122.998 54.2755C123.275 54.3371 123.46 54.491 123.552 54.7374C123.768 55.2916 124.091 55.8304 124.522 56.3539C124.984 56.8465 125.538 57.293 126.185 57.6933C126.832 58.0936 127.571 58.4323 128.402 58.7094C129.233 58.9557 130.142 59.0789 131.127 59.0789C132.082 59.0789 133.021 58.9403 133.944 58.6632C134.868 58.3861 135.699 57.9858 136.438 57.4624C137.177 56.9389 137.763 56.2923 138.194 55.5225C138.655 54.7527 138.871 53.906 138.84 52.9823C138.809 52.1509 138.548 51.3965 138.055 50.7191C137.593 50.0109 136.993 49.3951 136.254 48.8717C135.546 48.3174 134.76 47.8402 133.898 47.4399C133.036 47.0396 132.205 46.7163 131.404 46.4699C130.234 46.1005 129.141 45.7002 128.125 45.2691C127.109 44.8072 126.2 44.2838 125.4 43.6988C124.63 43.1137 124.014 42.4363 123.552 41.6665C123.121 40.866 122.906 39.9422 122.906 38.8953C122.906 37.8484 123.152 36.8939 123.645 36.0318C124.137 35.1388 124.769 34.3845 125.538 33.7686C126.339 33.1528 127.247 32.6755 128.263 32.3368C129.28 31.9674 130.311 31.7826 131.358 31.7826C132.436 31.7826 133.39 31.9212 134.222 32.1983C135.084 32.4754 135.853 32.8449 136.531 33.3068C137.208 33.7378 137.809 34.2459 138.332 34.8309C138.856 35.416 139.317 36.0318 139.718 36.6784C139.872 36.8939 139.902 37.1095 139.81 37.325C139.749 37.5405 139.61 37.7253 139.394 37.8792C139.179 38.0332 138.963 38.0794 138.748 38.0178C138.532 37.9562 138.348 37.8177 138.194 37.6021ZM154.413 60.834C152.873 60.834 151.426 60.5415 150.071 59.9564C148.717 59.3714 147.531 58.5862 146.515 57.6009C145.499 56.5848 144.698 55.3994 144.113 54.0446C143.528 52.6897 143.236 51.2426 143.236 49.703C143.236 47.9787 143.544 46.4238 144.16 45.0382C144.775 43.6526 145.607 42.4825 146.654 41.528C147.731 40.5427 148.963 39.7883 150.349 39.2648C151.765 38.7414 153.243 38.4797 154.783 38.4797C156.322 38.4797 157.754 38.7722 159.078 39.3572C160.402 39.9114 161.541 40.6966 162.496 41.7127C163.481 42.698 164.251 43.8681 164.805 45.2229C165.359 46.5777 165.636 48.0403 165.636 49.6106C165.636 49.857 165.544 50.0725 165.359 50.2573C165.174 50.442 164.913 50.5344 164.574 50.5344H145.176C145.268 51.7352 145.576 52.8591 146.099 53.906C146.623 54.9529 147.285 55.8612 148.085 56.631C148.917 57.4008 149.871 58.0166 150.949 58.4785C152.027 58.9095 153.181 59.1251 154.413 59.1251C155.552 59.1251 156.676 58.9249 157.785 58.5247C158.893 58.0936 159.848 57.4778 160.648 56.6772C160.833 56.4924 161.064 56.4001 161.341 56.4001C161.618 56.4001 161.849 56.4924 162.034 56.6772C162.188 56.8619 162.28 57.0929 162.311 57.37C162.342 57.6163 162.249 57.8473 162.034 58.0628C161.664 58.3707 161.218 58.694 160.694 59.0327C160.202 59.3406 159.632 59.6331 158.985 59.9103C158.37 60.1874 157.677 60.4183 156.907 60.6031C156.137 60.757 155.306 60.834 154.413 60.834ZM154.783 40.1886C153.551 40.1886 152.381 40.4195 151.272 40.8814C150.164 41.3124 149.179 41.9129 148.316 42.6826C147.454 43.4524 146.746 44.3608 146.192 45.4077C145.668 46.4546 145.345 47.5784 145.222 48.7793H163.743C163.65 47.5784 163.358 46.4546 162.865 45.4077C162.403 44.3608 161.772 43.4524 160.972 42.6826C160.202 41.9129 159.278 41.3124 158.2 40.8814C157.153 40.4195 156.014 40.1886 154.783 40.1886ZM169.025 31.7364C169.271 31.7364 169.487 31.8288 169.672 32.0135C169.856 32.1983 169.949 32.4138 169.949 32.6602V59.9103C169.949 60.1566 169.856 60.3721 169.672 60.5569C169.487 60.7416 169.271 60.834 169.025 60.834C168.779 60.834 168.563 60.7416 168.378 60.5569C168.194 60.3721 168.101 60.1566 168.101 59.9103V32.6602C168.101 32.4138 168.194 32.1983 168.378 32.0135C168.563 31.8288 168.779 31.7364 169.025 31.7364ZM183.686 60.834C182.146 60.834 180.699 60.5415 179.344 59.9564C177.989 59.3714 176.804 58.5862 175.788 57.6009C174.772 56.5848 173.971 55.3994 173.386 54.0446C172.801 52.6897 172.508 51.2426 172.508 49.703C172.508 47.9787 172.816 46.4238 173.432 45.0382C174.048 43.6526 174.879 42.4825 175.926 41.528C177.004 40.5427 178.236 39.7883 179.621 39.2648C181.038 38.7414 182.516 38.4797 184.055 38.4797C185.595 38.4797 187.026 38.7722 188.35 39.3572C189.674 39.9114 190.814 40.6966 191.768 41.7127C192.754 42.698 193.523 43.8681 194.078 45.2229C194.632 46.5777 194.909 48.0403 194.909 49.6106C194.909 49.857 194.817 50.0725 194.632 50.2573C194.447 50.442 194.185 50.5344 193.847 50.5344H174.448C174.541 51.7352 174.849 52.8591 175.372 53.906C175.895 54.9529 176.557 55.8612 177.358 56.631C178.189 57.4008 179.144 58.0166 180.222 58.4785C181.299 58.9095 182.454 59.1251 183.686 59.1251C184.825 59.1251 185.949 58.9249 187.057 58.5247C188.166 58.0936 189.12 57.4778 189.921 56.6772C190.106 56.4924 190.336 56.4001 190.614 56.4001C190.891 56.4001 191.122 56.4924 191.306 56.6772C191.46 56.8619 191.553 57.0929 191.583 57.37C191.614 57.6163 191.522 57.8473 191.306 58.0628C190.937 58.3707 190.49 58.694 189.967 59.0327C189.474 59.3406 188.905 59.6331 188.258 59.9103C187.642 60.1874 186.949 60.4183 186.18 60.6031C185.41 60.757 184.579 60.834 183.686 60.834ZM184.055 40.1886C182.823 40.1886 181.653 40.4195 180.545 40.8814C179.436 41.3124 178.451 41.9129 177.589 42.6826C176.727 43.4524 176.019 44.3608 175.464 45.4077C174.941 46.4546 174.618 47.5784 174.494 48.7793H193.015C192.923 47.5784 192.63 46.4546 192.138 45.4077C191.676 44.3608 191.045 43.4524 190.244 42.6826C189.474 41.9129 188.551 41.3124 187.473 40.8814C186.426 40.4195 185.287 40.1886 184.055 40.1886ZM214.634 42.5903C213.833 41.8513 212.894 41.2817 211.816 40.8814C210.769 40.4503 209.661 40.2348 208.491 40.2348C207.197 40.2348 205.981 40.4811 204.842 40.9737C203.733 41.4664 202.764 42.1438 201.932 43.006C201.101 43.8681 200.439 44.8842 199.946 46.0543C199.484 47.1935 199.253 48.4098 199.253 49.703C199.253 50.9962 199.484 52.2279 199.946 53.3979C200.439 54.5372 201.101 55.5379 201.932 56.4001C202.764 57.2622 203.733 57.9396 204.842 58.4323C205.981 58.9249 207.197 59.1713 208.491 59.1713C209.63 59.1713 210.754 58.9711 211.862 58.5708C212.971 58.1398 213.925 57.5239 214.726 56.7234C214.911 56.5386 215.142 56.4463 215.419 56.4463C215.634 56.4463 215.865 56.5386 216.111 56.7234C216.296 56.9697 216.389 57.2006 216.389 57.4162C216.389 57.6933 216.296 57.9242 216.111 58.109C215.742 58.4169 215.296 58.7402 214.772 59.0789C214.279 59.3868 213.71 59.6793 213.063 59.9564C212.447 60.2336 211.755 60.4645 210.985 60.6492C210.215 60.8032 209.384 60.8802 208.491 60.8802C206.951 60.8802 205.504 60.5877 204.149 60.0026C202.794 59.4176 201.609 58.617 200.593 57.6009C199.577 56.5848 198.776 55.3994 198.191 54.0446C197.606 52.6897 197.314 51.2426 197.314 49.703C197.314 48.1635 197.606 46.7163 198.191 45.3615C198.776 44.0067 199.577 42.8212 200.593 41.8051C201.609 40.789 202.794 39.9884 204.149 39.4034C205.504 38.8184 206.951 38.5259 208.491 38.5259C209.784 38.5259 211.123 38.7414 212.509 39.1725C213.895 39.5727 215.065 40.2502 216.019 41.2047C216.204 41.451 216.296 41.6819 216.296 41.8975C216.296 42.1746 216.204 42.4055 216.019 42.5903C215.773 42.775 215.542 42.8674 215.326 42.8674C215.049 42.8674 214.818 42.775 214.634 42.5903ZM222.278 32.3368C222.525 32.3368 222.74 32.4446 222.925 32.6602C223.141 32.8449 223.248 33.0604 223.248 33.3068L223.156 39.4958C223.341 39.4958 223.633 39.4958 224.034 39.4958C224.434 39.465 224.85 39.4342 225.281 39.4034C225.712 39.3726 226.112 39.3572 226.481 39.3572C226.851 39.3264 227.097 39.311 227.22 39.311C227.898 39.311 228.237 39.6497 228.237 40.3271C228.237 40.5735 228.144 40.789 227.959 40.9737C227.775 41.1585 227.528 41.2509 227.22 41.2509C227.097 41.2509 226.836 41.2509 226.435 41.2509C226.066 41.2201 225.65 41.2047 225.188 41.2047C224.757 41.1739 224.341 41.1585 223.941 41.1585C223.572 41.1277 223.31 41.1123 223.156 41.1123L223.248 59.8641C223.248 60.1104 223.141 60.3413 222.925 60.5569C222.74 60.7416 222.525 60.834 222.278 60.834C222.032 60.834 221.801 60.7416 221.586 60.5569C221.401 60.3413 221.309 60.1104 221.309 59.8641L221.401 41.1123L217.383 41.2509C217.136 41.2509 216.921 41.1585 216.736 40.9737C216.551 40.789 216.459 40.5735 216.459 40.3271C216.459 40.0192 216.551 39.7729 216.736 39.5881C216.921 39.4034 217.136 39.311 217.383 39.311L221.401 39.4958L221.309 33.3068C221.309 33.0604 221.401 32.8449 221.586 32.6602C221.801 32.4446 222.032 32.3368 222.278 32.3368Z" fill="black"/>
<path d="M72.686 72.6C72.266 72.1426 71.8227 71.8066 71.356 71.592C70.8893 71.368 70.362 71.256 69.774 71.256C69.242 71.256 68.7427 71.3586 68.276 71.564C67.8093 71.76 67.3987 72.0353 67.044 72.39C66.6987 72.7353 66.4233 73.1413 66.218 73.608C66.022 74.0746 65.924 74.574 65.924 75.106C65.924 75.638 66.022 76.1373 66.218 76.604C66.4233 77.0706 66.6987 77.4813 67.044 77.836C67.3987 78.1813 67.8093 78.4566 68.276 78.662C68.7427 78.858 69.242 78.956 69.774 78.956C70.362 78.956 70.9033 78.8393 71.398 78.606C71.902 78.3633 72.3313 78.032 72.686 77.612C72.7327 77.556 72.7747 77.5233 72.812 77.514C72.8493 77.4953 72.8867 77.486 72.924 77.486C72.9987 77.486 73.064 77.514 73.12 77.57C73.176 77.626 73.204 77.6866 73.204 77.752C73.204 77.836 73.1667 77.9153 73.092 77.99C72.8493 78.2513 72.6067 78.48 72.364 78.676C72.1307 78.8626 71.8833 79.0213 71.622 79.152C71.37 79.2733 71.09 79.3666 70.782 79.432C70.4833 79.488 70.1473 79.516 69.774 79.516C69.1673 79.516 68.5933 79.404 68.052 79.18C67.52 78.9466 67.0533 78.6293 66.652 78.228C66.2507 77.8266 65.9333 77.36 65.7 76.828C65.476 76.2866 65.364 75.7126 65.364 75.106C65.364 74.4993 65.476 73.93 65.7 73.398C65.9333 72.8566 66.2507 72.39 66.652 71.998C67.0533 71.5966 67.52 71.2793 68.052 71.046C68.5933 70.8126 69.1673 70.696 69.774 70.696C70.1473 70.696 70.4833 70.7286 70.782 70.794C71.09 70.8593 71.3747 70.9573 71.636 71.088C71.8973 71.2186 72.1447 71.382 72.378 71.578C72.6207 71.7646 72.868 71.9886 73.12 72.25C73.176 72.306 73.204 72.3713 73.204 72.446C73.204 72.5206 73.176 72.586 73.12 72.642C73.064 72.698 72.9987 72.726 72.924 72.726C72.84 72.726 72.7607 72.684 72.686 72.6ZM74.3225 76.114C74.3225 75.6473 74.4111 75.2086 74.5885 74.798C74.7658 74.3873 75.0085 74.028 75.3165 73.72C75.6245 73.412 75.9838 73.1693 76.3945 72.992C76.8051 72.8146 77.2438 72.726 77.7105 72.726C78.1771 72.726 78.6158 72.8146 79.0265 72.992C79.4371 73.1693 79.7965 73.412 80.1045 73.72C80.4125 74.028 80.6551 74.3873 80.8325 74.798C81.0098 75.2086 81.0985 75.6473 81.0985 76.114C81.0985 76.5806 81.0098 77.0193 80.8325 77.43C80.6551 77.8406 80.4125 78.2 80.1045 78.508C79.7965 78.816 79.4371 79.0586 79.0265 79.236C78.6158 79.4133 78.1771 79.502 77.7105 79.502C77.2438 79.502 76.8051 79.4133 76.3945 79.236C75.9838 79.0586 75.6245 78.816 75.3165 78.508C75.0085 78.2 74.7658 77.8406 74.5885 77.43C74.4111 77.0193 74.3225 76.5806 74.3225 76.114ZM74.9105 76.114C74.9105 76.506 74.9805 76.8793 75.1205 77.234C75.2698 77.5793 75.4705 77.8826 75.7225 78.144C75.9745 78.4053 76.2685 78.6106 76.6045 78.76C76.9498 78.9093 77.3185 78.984 77.7105 78.984C78.1025 78.984 78.4665 78.9093 78.8025 78.76C79.1478 78.6106 79.4465 78.4053 79.6985 78.144C79.9505 77.8826 80.1465 77.5793 80.2865 77.234C80.4358 76.8793 80.5105 76.506 80.5105 76.114C80.5105 75.722 80.4358 75.3533 80.2865 75.008C80.1465 74.6533 79.9505 74.3453 79.6985 74.084C79.4465 73.8226 79.1478 73.6173 78.8025 73.468C78.4665 73.3186 78.1025 73.244 77.7105 73.244C77.3185 73.244 76.9498 73.3186 76.6045 73.468C76.2685 73.6173 75.9745 73.8226 75.7225 74.084C75.4705 74.3453 75.2698 74.6533 75.1205 75.008C74.9805 75.3533 74.9105 75.722 74.9105 76.114ZM82.9009 74.238C82.9289 74.0793 82.9942 73.9113 83.0969 73.734C83.2089 73.5566 83.3582 73.3933 83.5449 73.244C83.7409 73.0946 83.9789 72.9733 84.2589 72.88C84.5389 72.7866 84.8655 72.74 85.2389 72.74C85.8549 72.7493 86.3309 72.9126 86.6669 73.23C87.0122 73.5473 87.2502 73.9626 87.3809 74.476C87.4275 74.2986 87.5069 74.112 87.6189 73.916C87.7309 73.7106 87.8849 73.524 88.0809 73.356C88.2862 73.1786 88.5335 73.034 88.8229 72.922C89.1122 72.8006 89.4529 72.74 89.8449 72.74C90.3022 72.74 90.6802 72.8286 90.9789 73.006C91.2775 73.1833 91.5155 73.426 91.6929 73.734C91.8702 74.0326 91.9915 74.3873 92.0569 74.798C92.1222 75.2086 92.1549 75.6473 92.1549 76.114V79.208C92.1549 79.292 92.1269 79.362 92.0709 79.418C92.0242 79.474 91.9589 79.502 91.8749 79.502C91.7909 79.502 91.7209 79.474 91.6649 79.418C91.6182 79.362 91.5949 79.292 91.5949 79.208V76.128C91.5949 75.736 91.5715 75.3673 91.5249 75.022C91.4875 74.6673 91.4035 74.3593 91.2729 74.098C91.1422 73.8366 90.9555 73.6313 90.7129 73.482C90.4702 73.3326 90.1529 73.258 89.7609 73.258C89.3782 73.258 89.0469 73.3373 88.7669 73.496C88.4962 73.6453 88.2675 73.8506 88.0809 74.112C87.9035 74.364 87.7682 74.6626 87.6749 75.008C87.5909 75.3533 87.5442 75.722 87.5349 76.114V79.208C87.5349 79.292 87.5069 79.362 87.4509 79.418C87.4042 79.474 87.3389 79.502 87.2549 79.502C87.1709 79.502 87.1009 79.474 87.0449 79.418C86.9982 79.362 86.9749 79.292 86.9749 79.208V76.128C86.9749 75.736 86.9515 75.3673 86.9049 75.022C86.8675 74.6673 86.7835 74.3593 86.6529 74.098C86.5315 73.8366 86.3495 73.6313 86.1069 73.482C85.8735 73.3326 85.5609 73.258 85.1689 73.258C84.7862 73.258 84.4502 73.3373 84.1609 73.496C83.8809 73.6546 83.6475 73.8693 83.4609 74.14C83.2742 74.4013 83.1342 74.7093 83.0409 75.064C82.9475 75.4093 82.9009 75.7733 82.9009 76.156V79.208C82.9009 79.292 82.8729 79.362 82.8169 79.418C82.7702 79.474 82.7049 79.502 82.6209 79.502C82.5369 79.502 82.4669 79.474 82.4109 79.418C82.3642 79.362 82.3409 79.292 82.3409 79.208V72.894C82.3409 72.7913 82.3922 72.74 82.4949 72.74C82.6349 72.74 82.7375 72.8193 82.8029 72.978C82.8682 73.1366 82.9009 73.3933 82.9009 73.748V74.238ZM94.4153 74.238C94.4433 74.0793 94.5086 73.9113 94.6113 73.734C94.7233 73.5566 94.8726 73.3933 95.0593 73.244C95.2553 73.0946 95.4933 72.9733 95.7733 72.88C96.0533 72.7866 96.38 72.74 96.7533 72.74C97.3693 72.7493 97.8453 72.9126 98.1813 73.23C98.5266 73.5473 98.7646 73.9626 98.8953 74.476C98.942 74.2986 99.0213 74.112 99.1333 73.916C99.2453 73.7106 99.3993 73.524 99.5953 73.356C99.8006 73.1786 100.048 73.034 100.337 72.922C100.627 72.8006 100.967 72.74 101.359 72.74C101.817 72.74 102.195 72.8286 102.493 73.006C102.792 73.1833 103.03 73.426 103.207 73.734C103.385 74.0326 103.506 74.3873 103.571 74.798C103.637 75.2086 103.669 75.6473 103.669 76.114V79.208C103.669 79.292 103.641 79.362 103.585 79.418C103.539 79.474 103.473 79.502 103.389 79.502C103.305 79.502 103.235 79.474 103.179 79.418C103.133 79.362 103.109 79.292 103.109 79.208V76.128C103.109 75.736 103.086 75.3673 103.039 75.022C103.002 74.6673 102.918 74.3593 102.787 74.098C102.657 73.8366 102.47 73.6313 102.227 73.482C101.985 73.3326 101.667 73.258 101.275 73.258C100.893 73.258 100.561 73.3373 100.281 73.496C100.011 73.6453 99.782 73.8506 99.5953 74.112C99.418 74.364 99.2826 74.6626 99.1893 75.008C99.1053 75.3533 99.0586 75.722 99.0493 76.114V79.208C99.0493 79.292 99.0213 79.362 98.9653 79.418C98.9186 79.474 98.8533 79.502 98.7693 79.502C98.6853 79.502 98.6153 79.474 98.5593 79.418C98.5126 79.362 98.4893 79.292 98.4893 79.208V76.128C98.4893 75.736 98.466 75.3673 98.4193 75.022C98.382 74.6673 98.298 74.3593 98.1673 74.098C98.046 73.8366 97.864 73.6313 97.6213 73.482C97.388 73.3326 97.0753 73.258 96.6833 73.258C96.3006 73.258 95.9646 73.3373 95.6753 73.496C95.3953 73.6546 95.162 73.8693 94.9753 74.14C94.7886 74.4013 94.6486 74.7093 94.5553 75.064C94.462 75.4093 94.4153 75.7733 94.4153 76.156V79.208C94.4153 79.292 94.3873 79.362 94.3313 79.418C94.2846 79.474 94.2193 79.502 94.1353 79.502C94.0513 79.502 93.9813 79.474 93.9253 79.418C93.8786 79.362 93.8553 79.292 93.8553 79.208V72.894C93.8553 72.7913 93.9066 72.74 94.0093 72.74C94.1493 72.74 94.252 72.8193 94.3173 72.978C94.3826 73.1366 94.4153 73.3933 94.4153 73.748V74.238ZM108.467 79.502C108 79.502 107.561 79.4133 107.151 79.236C106.74 79.0586 106.381 78.8206 106.073 78.522C105.765 78.214 105.522 77.8546 105.345 77.444C105.167 77.0333 105.079 76.5946 105.079 76.128C105.079 75.6053 105.172 75.134 105.359 74.714C105.545 74.294 105.797 73.9393 106.115 73.65C106.441 73.3513 106.815 73.1226 107.235 72.964C107.664 72.8053 108.112 72.726 108.579 72.726C109.045 72.726 109.479 72.8146 109.881 72.992C110.282 73.16 110.627 73.398 110.917 73.706C111.215 74.0046 111.449 74.3593 111.617 74.77C111.785 75.1806 111.869 75.624 111.869 76.1C111.869 76.1746 111.841 76.24 111.785 76.296C111.729 76.352 111.649 76.38 111.547 76.38H105.667C105.695 76.744 105.788 77.0846 105.947 77.402C106.105 77.7193 106.306 77.9946 106.549 78.228C106.801 78.4613 107.09 78.648 107.417 78.788C107.743 78.9186 108.093 78.984 108.467 78.984C108.812 78.984 109.153 78.9233 109.489 78.802C109.825 78.6713 110.114 78.4846 110.357 78.242C110.413 78.186 110.483 78.158 110.567 78.158C110.651 78.158 110.721 78.186 110.777 78.242C110.823 78.298 110.851 78.368 110.861 78.452C110.87 78.5266 110.842 78.5966 110.777 78.662C110.665 78.7553 110.529 78.8533 110.371 78.956C110.221 79.0493 110.049 79.138 109.853 79.222C109.666 79.306 109.456 79.376 109.223 79.432C108.989 79.4786 108.737 79.502 108.467 79.502ZM108.579 73.244C108.205 73.244 107.851 73.314 107.515 73.454C107.179 73.5846 106.88 73.7666 106.619 74C106.357 74.2333 106.143 74.5086 105.975 74.826C105.816 75.1433 105.718 75.484 105.681 75.848H111.295C111.267 75.484 111.178 75.1433 111.029 74.826C110.889 74.5086 110.697 74.2333 110.455 74C110.221 73.7666 109.941 73.5846 109.615 73.454C109.297 73.314 108.952 73.244 108.579 73.244ZM113.808 74.532C113.873 74.3546 113.994 74.1633 114.172 73.958C114.358 73.7526 114.587 73.5613 114.858 73.384C115.128 73.1973 115.432 73.0433 115.768 72.922C116.113 72.8006 116.477 72.74 116.86 72.74C117.326 72.74 117.751 72.8286 118.134 73.006C118.526 73.1833 118.862 73.426 119.142 73.734C119.422 74.0326 119.636 74.3873 119.786 74.798C119.944 75.2086 120.024 75.6473 120.024 76.114V79.208C120.024 79.292 119.996 79.362 119.94 79.418C119.893 79.474 119.828 79.502 119.744 79.502C119.66 79.502 119.59 79.474 119.534 79.418C119.487 79.362 119.464 79.292 119.464 79.208V76.128C119.464 75.736 119.403 75.3673 119.282 75.022C119.16 74.6673 118.983 74.3593 118.75 74.098C118.526 73.8366 118.25 73.6313 117.924 73.482C117.606 73.3326 117.252 73.258 116.86 73.258C116.477 73.258 116.099 73.3373 115.726 73.496C115.362 73.6546 115.035 73.8693 114.745 74.14C114.466 74.4013 114.237 74.7093 114.06 75.064C113.892 75.4093 113.808 75.7733 113.808 76.156V79.208C113.808 79.292 113.78 79.362 113.724 79.418C113.677 79.474 113.612 79.502 113.528 79.502C113.444 79.502 113.374 79.474 113.318 79.418C113.271 79.362 113.248 79.292 113.248 79.208V72.894C113.248 72.7913 113.299 72.74 113.402 72.74C113.542 72.74 113.644 72.8193 113.71 72.978C113.775 73.1366 113.808 73.3933 113.808 73.748V74.532ZM122.508 70.864C122.583 70.864 122.648 70.8966 122.704 70.962C122.77 71.018 122.802 71.0833 122.802 71.158L122.774 73.034C122.83 73.034 122.919 73.034 123.04 73.034C123.162 73.0246 123.288 73.0153 123.418 73.006C123.549 72.9966 123.67 72.992 123.782 72.992C123.894 72.9826 123.969 72.978 124.006 72.978C124.212 72.978 124.314 73.0806 124.314 73.286C124.314 73.3606 124.286 73.426 124.23 73.482C124.174 73.538 124.1 73.566 124.006 73.566C123.969 73.566 123.89 73.566 123.768 73.566C123.656 73.5566 123.53 73.552 123.39 73.552C123.26 73.5426 123.134 73.538 123.012 73.538C122.9 73.5286 122.821 73.524 122.774 73.524L122.802 79.208C122.802 79.2826 122.77 79.3526 122.704 79.418C122.648 79.474 122.583 79.502 122.508 79.502C122.434 79.502 122.364 79.474 122.298 79.418C122.242 79.3526 122.214 79.2826 122.214 79.208L122.242 73.524L121.024 73.566C120.95 73.566 120.884 73.538 120.828 73.482C120.772 73.426 120.744 73.3606 120.744 73.286C120.744 73.1926 120.772 73.118 120.828 73.062C120.884 73.006 120.95 72.978 121.024 72.978L122.242 73.034L122.214 71.158C122.214 71.0833 122.242 71.018 122.298 70.962C122.364 70.8966 122.434 70.864 122.508 70.864ZM135.099 74.084C135.099 74.5786 135.006 75.0266 134.819 75.428C134.632 75.82 134.376 76.1606 134.049 76.45C133.732 76.7393 133.354 76.9633 132.915 77.122C132.486 77.2713 132.028 77.346 131.543 77.346H130.003V79.222C130.003 79.2966 129.975 79.362 129.919 79.418C129.863 79.474 129.798 79.502 129.723 79.502C129.648 79.502 129.583 79.474 129.527 79.418C129.471 79.362 129.443 79.2966 129.443 79.222V70.948C129.443 70.9106 129.438 70.878 129.429 70.85C129.42 70.8126 129.42 70.78 129.429 70.752C129.438 70.724 129.462 70.7053 129.499 70.696C129.536 70.6773 129.602 70.668 129.695 70.668H131.543C132.028 70.668 132.486 70.7566 132.915 70.934C133.354 71.102 133.732 71.34 134.049 71.648C134.376 71.9466 134.632 72.306 134.819 72.726C135.006 73.146 135.099 73.5986 135.099 74.084ZM134.539 74.084C134.539 73.6733 134.46 73.2953 134.301 72.95C134.142 72.5953 133.928 72.292 133.657 72.04C133.386 71.788 133.069 71.592 132.705 71.452C132.341 71.3026 131.954 71.228 131.543 71.228H130.003V76.786H131.543C131.954 76.786 132.341 76.7253 132.705 76.604C133.069 76.4733 133.386 76.2913 133.657 76.058C133.928 75.8246 134.142 75.54 134.301 75.204C134.46 74.868 134.539 74.4946 134.539 74.084ZM136.562 72.726C136.636 72.726 136.702 72.754 136.758 72.81C136.814 72.866 136.842 72.9313 136.842 73.006V79.222C136.842 79.2966 136.814 79.362 136.758 79.418C136.702 79.474 136.636 79.502 136.562 79.502C136.487 79.502 136.422 79.474 136.366 79.418C136.31 79.362 136.282 79.2966 136.282 79.222V73.006C136.282 72.9313 136.31 72.866 136.366 72.81C136.422 72.754 136.487 72.726 136.562 72.726ZM136.17 71.074C136.17 70.962 136.207 70.8686 136.282 70.794C136.356 70.71 136.45 70.668 136.562 70.668C136.674 70.668 136.767 70.71 136.842 70.794C136.926 70.8686 136.968 70.962 136.968 71.074C136.968 71.186 136.926 71.2793 136.842 71.354C136.767 71.4286 136.674 71.466 136.562 71.466C136.45 71.466 136.356 71.4286 136.282 71.354C136.207 71.2793 136.17 71.186 136.17 71.074ZM143.458 73.972C143.215 73.748 142.93 73.5753 142.604 73.454C142.286 73.3233 141.95 73.258 141.596 73.258C141.204 73.258 140.835 73.3326 140.49 73.482C140.154 73.6313 139.86 73.8366 139.608 74.098C139.356 74.3593 139.155 74.6673 139.006 75.022C138.866 75.3673 138.796 75.736 138.796 76.128C138.796 76.52 138.866 76.8933 139.006 77.248C139.155 77.5933 139.356 77.8966 139.608 78.158C139.86 78.4193 140.154 78.6246 140.49 78.774C140.835 78.9233 141.204 78.998 141.596 78.998C141.941 78.998 142.282 78.9373 142.618 78.816C142.954 78.6853 143.243 78.4986 143.486 78.256C143.542 78.2 143.612 78.172 143.696 78.172C143.761 78.172 143.831 78.2 143.906 78.256C143.962 78.3306 143.99 78.4006 143.99 78.466C143.99 78.55 143.962 78.62 143.906 78.676C143.794 78.7693 143.658 78.8673 143.5 78.97C143.35 79.0633 143.178 79.152 142.982 79.236C142.795 79.32 142.585 79.39 142.352 79.446C142.118 79.4926 141.866 79.516 141.596 79.516C141.129 79.516 140.69 79.4273 140.28 79.25C139.869 79.0726 139.51 78.83 139.202 78.522C138.894 78.214 138.651 77.8546 138.474 77.444C138.296 77.0333 138.208 76.5946 138.208 76.128C138.208 75.6613 138.296 75.2226 138.474 74.812C138.651 74.4013 138.894 74.042 139.202 73.734C139.51 73.426 139.869 73.1833 140.28 73.006C140.69 72.8286 141.129 72.74 141.596 72.74C141.988 72.74 142.394 72.8053 142.814 72.936C143.234 73.0573 143.588 73.2626 143.878 73.552C143.934 73.6266 143.962 73.6966 143.962 73.762C143.962 73.846 143.934 73.916 143.878 73.972C143.803 74.028 143.733 74.056 143.668 74.056C143.584 74.056 143.514 74.028 143.458 73.972ZM146.213 76.912L151.575 72.656C151.64 72.6093 151.71 72.5906 151.785 72.6C151.859 72.6093 151.92 72.6466 151.967 72.712C152.013 72.768 152.032 72.838 152.023 72.922C152.023 72.9966 151.99 73.0573 151.925 73.104L149.489 75.036L151.925 79.082C152.018 79.2406 151.985 79.3666 151.827 79.46C151.761 79.5066 151.691 79.5206 151.617 79.502C151.542 79.4833 151.486 79.4413 151.449 79.376L149.041 75.386L146.213 77.64V79.222C146.213 79.2966 146.185 79.362 146.129 79.418C146.073 79.474 146.007 79.502 145.933 79.502C145.858 79.502 145.793 79.474 145.737 79.418C145.681 79.362 145.653 79.2966 145.653 79.222V70.962C145.653 70.9246 145.648 70.892 145.639 70.864C145.629 70.8266 145.629 70.794 145.639 70.766C145.648 70.738 145.671 70.7193 145.709 70.71C145.746 70.6913 145.811 70.682 145.905 70.682C146.007 70.682 146.082 70.71 146.129 70.766C146.185 70.822 146.213 70.8873 146.213 70.962V76.912ZM155.875 79.502C155.409 79.502 154.97 79.4133 154.559 79.236C154.149 79.0586 153.789 78.8206 153.481 78.522C153.173 78.214 152.931 77.8546 152.753 77.444C152.576 77.0333 152.487 76.5946 152.487 76.128C152.487 75.6053 152.581 75.134 152.767 74.714C152.954 74.294 153.206 73.9393 153.523 73.65C153.85 73.3513 154.223 73.1226 154.643 72.964C155.073 72.8053 155.521 72.726 155.987 72.726C156.454 72.726 156.888 72.8146 157.289 72.992C157.691 73.16 158.036 73.398 158.325 73.706C158.624 74.0046 158.857 74.3593 159.025 74.77C159.193 75.1806 159.277 75.624 159.277 76.1C159.277 76.1746 159.249 76.24 159.193 76.296C159.137 76.352 159.058 76.38 158.955 76.38H153.075C153.103 76.744 153.197 77.0846 153.355 77.402C153.514 77.7193 153.715 77.9946 153.957 78.228C154.209 78.4613 154.499 78.648 154.825 78.788C155.152 78.9186 155.502 78.984 155.875 78.984C156.221 78.984 156.561 78.9233 156.897 78.802C157.233 78.6713 157.523 78.4846 157.765 78.242C157.821 78.186 157.891 78.158 157.975 78.158C158.059 78.158 158.129 78.186 158.185 78.242C158.232 78.298 158.26 78.368 158.269 78.452C158.279 78.5266 158.251 78.5966 158.185 78.662C158.073 78.7553 157.938 78.8533 157.779 78.956C157.63 79.0493 157.457 79.138 157.261 79.222C157.075 79.306 156.865 79.376 156.631 79.432C156.398 79.4786 156.146 79.502 155.875 79.502ZM155.987 73.244C155.614 73.244 155.259 73.314 154.923 73.454C154.587 73.5846 154.289 73.7666 154.027 74C153.766 74.2333 153.551 74.5086 153.383 74.826C153.225 75.1433 153.127 75.484 153.089 75.848H158.703C158.675 75.484 158.587 75.1433 158.437 74.826C158.297 74.5086 158.106 74.2333 157.863 74C157.63 73.7666 157.35 73.5846 157.023 73.454C156.706 73.314 156.361 73.244 155.987 73.244ZM161.271 74.49C161.308 74.3406 161.401 74.1633 161.551 73.958C161.709 73.7526 161.91 73.5613 162.153 73.384C162.395 73.2066 162.675 73.0573 162.993 72.936C163.319 72.8053 163.669 72.74 164.043 72.74C164.173 72.74 164.299 72.754 164.421 72.782C164.542 72.8006 164.645 72.824 164.729 72.852C164.906 72.908 164.99 73.02 164.981 73.188C164.962 73.272 164.92 73.3373 164.855 73.384C164.799 73.4306 164.729 73.4493 164.645 73.44C164.523 73.4306 164.411 73.4026 164.309 73.356C164.215 73.3093 164.099 73.286 163.959 73.286C163.595 73.286 163.249 73.3653 162.923 73.524C162.605 73.6733 162.321 73.8786 162.069 74.14C161.826 74.4013 161.63 74.7093 161.481 75.064C161.341 75.4093 161.271 75.7733 161.271 76.156V79.208C161.271 79.292 161.243 79.362 161.187 79.418C161.14 79.474 161.075 79.502 160.991 79.502C160.907 79.502 160.837 79.474 160.781 79.418C160.734 79.362 160.711 79.292 160.711 79.208V72.894C160.711 72.7913 160.762 72.74 160.865 72.74C161.005 72.74 161.107 72.8193 161.173 72.978C161.238 73.1366 161.271 73.3933 161.271 73.748V74.49Z" fill="black"/>
<path d="M86.2366 58.9194C85.0059 57.9944 84.0254 56.8915 83.2951 55.6107C82.5647 54.3299 82.0904 52.9911 81.8721 51.5944C81.6723 50.1732 81.747 48.7463 82.096 47.3138C82.445 45.8813 83.0835 44.5508 84.0116 43.3224C85.051 41.9466 86.2344 40.8909 87.5619 40.1554C88.8894 39.4198 90.2593 38.9857 91.6715 38.8531C93.127 38.7145 94.5663 38.8526 95.9894 39.2674C97.4372 39.7008 98.7764 40.38 100.007 41.305C101.238 42.23 102.206 43.3237 102.912 44.586C103.636 45.8237 104.073 47.1347 104.224 48.519C104.418 49.8972 104.328 51.2933 103.954 52.7073C103.58 54.1213 102.92 55.4548 101.974 56.7078C101.825 56.9043 101.621 57.0208 101.362 57.0572C101.103 57.0936 100.838 57.01 100.568 56.8065L85.0611 45.1513C84.411 46.165 83.9797 47.2467 83.7671 48.3965C83.5544 49.5463 83.5361 50.6689 83.712 51.7641C83.9126 52.8778 84.3044 53.9427 84.8875 54.9587C85.4891 55.9502 86.2822 56.8159 87.2667 57.5559C88.1774 58.2404 89.1965 58.756 90.3238 59.1026C91.4698 59.4247 92.604 59.5068 93.7265 59.3491C93.9856 59.3127 94.2259 59.3777 94.4474 59.5442C94.6689 59.7107 94.7978 59.9232 94.8342 60.1816C94.8459 60.4215 94.7805 60.6613 94.6381 60.9009C94.5142 61.1159 94.3011 61.2447 93.9989 61.2872C93.518 61.3108 92.9662 61.3005 92.3436 61.2563C91.7641 61.206 91.1325 61.0971 90.4485 60.9297C89.7892 60.7808 89.0962 60.5488 88.3695 60.2337C87.6614 59.894 86.9504 59.456 86.2366 58.9194ZM98.9769 42.6685C97.9924 41.9285 96.9179 41.4098 95.7534 41.1123C94.6074 40.7902 93.4579 40.6773 92.3047 40.7735C91.1515 40.8697 90.0378 41.1689 88.9637 41.6712C87.9142 42.192 86.9783 42.8945 86.156 43.7787L100.961 54.9066C101.611 53.893 102.055 52.8205 102.292 51.6892C102.554 50.5764 102.597 49.4723 102.421 48.3771C102.27 47.3004 101.893 46.2663 101.291 45.2749C100.733 44.2773 99.9615 43.4085 98.9769 42.6685Z" fill="url(#paint0_linear_2201_2401)"/>
<path d="M110.257 24.2747C110.679 24.0487 110.837 23.5244 110.61 23.1035C110.383 22.6826 109.858 22.5245 109.436 22.7505L110.257 24.2747ZM85.1205 43.8849C85.723 43.2632 85.7235 43.2637 85.7239 43.264C85.724 43.2641 85.7243 43.2645 85.7245 43.2647C85.7249 43.265 85.7251 43.2652 85.7252 43.2653C85.7254 43.2656 85.7251 43.2653 85.7244 43.2645C85.7229 43.263 85.7194 43.2596 85.7141 43.2542C85.7035 43.2434 85.6855 43.225 85.661 43.1988C85.6119 43.1465 85.5367 43.0636 85.4417 42.9504C85.2518 42.7238 84.9834 42.3768 84.6874 41.9119C84.0952 40.9821 83.3945 39.5843 82.9848 37.7363C82.1717 34.0688 82.4762 28.4932 87.3342 21.1145L85.8847 20.1642C80.8046 27.88 80.3646 33.9273 81.2916 38.1089C81.7519 40.1853 82.5423 41.7688 83.2238 42.8389C83.5646 43.374 83.8787 43.7817 84.112 44.0599C84.2286 44.199 84.3253 44.306 84.3951 44.3804C84.43 44.4177 84.4583 44.4468 84.479 44.4678C84.4894 44.4783 84.4979 44.4868 84.5044 44.4932C84.5077 44.4965 84.5105 44.4992 84.5127 44.5014C84.5138 44.5025 84.5148 44.5035 84.5157 44.5043C84.5161 44.5047 84.5167 44.5053 84.5169 44.5055C84.5175 44.506 84.5179 44.5065 85.1205 43.8849ZM86.6095 20.6393C87.4313 20.9153 87.4313 20.9154 87.4313 20.9155C87.4313 20.9154 87.4313 20.9153 87.4314 20.9151C87.4315 20.9148 87.4317 20.9141 87.4321 20.9132C87.4327 20.9113 87.4337 20.9082 87.4352 20.9041C87.438 20.8957 87.4424 20.8828 87.4483 20.8656C87.4602 20.8312 87.4782 20.7793 87.5022 20.7113C87.5501 20.5755 87.6217 20.3755 87.7155 20.1225C87.9033 19.6162 88.1795 18.8983 88.5318 18.0567C89.2385 16.3686 90.2428 14.2037 91.4442 12.2518C92.6628 10.2719 94.0131 8.63114 95.3714 7.85532C96.0308 7.47868 96.6502 7.32989 97.2427 7.40155C97.8334 7.473 98.5028 7.77628 99.2412 8.4961L100.453 7.25921C99.5092 6.3393 98.5035 5.81159 97.4504 5.68422C96.3991 5.55707 95.4061 5.84162 94.5091 6.35394C92.7546 7.35604 91.216 9.31563 89.9663 11.346C88.6993 13.4044 87.6557 15.6597 86.9316 17.3893C86.5685 18.2565 86.2836 18.9968 86.0891 19.5215C85.9918 19.7839 85.917 19.9926 85.8662 20.1366C85.8409 20.2086 85.8215 20.2644 85.8083 20.3026C85.8017 20.3218 85.7967 20.3365 85.7932 20.3467C85.7915 20.3518 85.7902 20.3557 85.7892 20.3585C85.7887 20.3599 85.7884 20.361 85.7881 20.3618C85.788 20.3622 85.7878 20.3626 85.7878 20.3628C85.7877 20.3631 85.7876 20.3633 86.6095 20.6393ZM99.2412 8.4961C99.981 9.21729 100.281 9.86035 100.349 10.4139C100.417 10.9678 100.268 11.5529 99.8781 12.1858C99.0732 13.4935 97.3738 14.7944 95.3201 15.9674C93.2976 17.1226 91.0565 18.085 89.3098 18.7613C88.4389 19.0985 87.6962 19.3625 87.1723 19.5419C86.9104 19.6315 86.7035 19.7 86.5628 19.7457C86.4925 19.7686 86.4387 19.7858 86.403 19.7972C86.3851 19.8028 86.3717 19.8071 86.363 19.8098C86.3587 19.8112 86.3555 19.8122 86.3535 19.8128C86.3526 19.8131 86.3519 19.8133 86.3515 19.8134C86.3513 19.8135 86.3512 19.8135 86.3511 19.8135C86.3511 19.8135 86.3512 19.8135 86.6095 20.6393C86.8677 21.4652 86.8679 21.4651 86.8682 21.465C86.8685 21.465 86.8688 21.4648 86.8693 21.4647C86.8701 21.4645 86.8712 21.4641 86.8726 21.4637C86.8755 21.4628 86.8795 21.4615 86.8847 21.4599C86.8952 21.4566 86.9104 21.4518 86.9301 21.4455C86.9695 21.433 87.027 21.4146 87.1012 21.3904C87.2497 21.3421 87.4652 21.2709 87.7361 21.1781C88.2778 20.9927 89.0423 20.7209 89.9381 20.3741C91.7247 19.6823 94.0545 18.6842 96.1824 17.4688C98.2791 16.2712 100.31 14.7916 101.356 13.0916C101.892 12.2206 102.198 11.2451 102.07 10.2044C101.943 9.16328 101.395 8.17774 100.453 7.25921L99.2412 8.4961ZM86.6095 20.6393C86.1311 19.9176 86.1312 19.9176 86.1313 19.9176C86.1312 19.9176 86.1312 19.9176 86.1311 19.9177C86.1308 19.9179 86.1303 19.9182 86.1297 19.9186C86.1283 19.9195 86.1261 19.9209 86.123 19.9229C86.1169 19.927 86.1074 19.9332 86.0946 19.9415C86.069 19.9581 86.0303 19.9832 85.9791 20.0159C85.8768 20.0814 85.725 20.1776 85.53 20.2983C85.1397 20.5399 84.5768 20.8793 83.8908 21.2684C82.5155 22.0482 80.6595 23.019 78.7138 23.8001C76.7525 24.5876 74.7734 25.1519 73.1314 25.1797C71.5105 25.2071 70.3941 24.7228 69.7928 23.5982L68.2629 24.4116C69.2873 26.3276 71.1814 26.9429 73.1619 26.9094C75.1213 26.8762 77.3344 26.2191 79.362 25.405C81.4054 24.5846 83.335 23.5738 84.7483 22.7724C85.4566 22.3708 86.0386 22.0198 86.4447 21.7685C86.6478 21.6428 86.8071 21.5419 86.9163 21.472C86.9709 21.437 87.013 21.4098 87.0419 21.391C87.0563 21.3817 87.0674 21.3744 87.0751 21.3694C87.0789 21.3669 87.0819 21.3649 87.084 21.3635C87.0851 21.3628 87.0859 21.3623 87.0865 21.3619C87.0868 21.3617 87.0872 21.3615 87.0873 21.3614C87.0876 21.3612 87.0878 21.3611 86.6095 20.6393ZM69.7928 23.5982C69.0653 22.2374 69.0695 21.2034 69.4326 20.4697C69.8052 19.7167 70.6697 19.0469 72.1498 18.6749C75.1218 17.9278 80.1115 18.5223 86.2383 21.4208L86.9806 19.8579C80.6756 16.875 75.2488 16.1117 71.7251 16.9974C69.9573 17.4418 68.5542 18.3361 67.8776 19.7031C67.1914 21.0896 67.3647 22.7318 68.2629 24.4116L69.7928 23.5982ZM86.2383 21.4208C92.4976 24.382 97.1852 25.8057 100.973 26.1305C104.795 26.4583 107.664 25.6637 110.257 24.2747L109.436 22.7505C107.114 23.9943 104.58 24.7036 101.12 24.407C97.6264 24.1073 93.1531 22.778 86.9806 19.8579L86.2383 21.4208Z" fill="url(#paint1_linear_2201_2401)"/>
<path fill-rule="evenodd" clip-rule="evenodd" d="M12.1746 52.6701C12.5413 52.2895 13.1185 52.2493 13.4638 52.5803L40.3466 78.3529C40.6919 78.6839 40.6745 79.2607 40.3077 79.6413C39.941 80.0219 39.3638 80.0621 39.0186 79.7311L12.1357 53.9585C11.7905 53.6275 11.8079 53.0506 12.1746 52.6701Z" fill="black"/>
<defs>
<linearGradient id="paint0_linear_2201_2401" x1="102.582" y1="58.0697" x2="81.2476" y2="41.9522" gradientUnits="userSpaceOnUse">
<stop stop-color="#FFDA8D"/>
<stop offset="0.456359" stop-color="#E62A21"/>
<stop offset="1" stop-color="#8121A3"/>
</linearGradient>
<linearGradient id="paint1_linear_2201_2401" x1="102.748" y1="11.4646" x2="73.9565" y2="34.1959" gradientUnits="userSpaceOnUse">
<stop stop-color="#FFDA8D"/>
<stop offset="0.456359" stop-color="#E62A21"/>
<stop offset="1" stop-color="#8121A3"/>
</linearGradient>
</defs>
</svg>
