<svg width="32" height="32" viewBox="0 0 32 32" fill="none" xmlns="http://www.w3.org/2000/svg">
<path d="M14 7C14 8.10457 14.8954 9 16 9C17.1046 9 18 8.10457 18 7C18 5.89543 17.1046 5 16 5C14.8954 5 14 5.89543 14 7Z" fill="#161616" stroke="#161616"/>
<path d="M14 16C14 17.1046 14.8954 18 16 18C17.1046 18 18 17.1046 18 16C18 14.8954 17.1046 14 16 14C14.8954 14 14 14.8954 14 16Z" fill="#161616" stroke="#161616"/>
<path d="M14 25C14 26.1046 14.8954 27 16 27C17.1046 27 18 26.1046 18 25C18 23.8954 17.1046 23 16 23C14.8954 23 14 23.8954 14 25Z" fill="#161616" stroke="#161616"/>
</svg>
