<svg width="30" height="31" viewBox="0 0 30 31" fill="none" xmlns="http://www.w3.org/2000/svg">
<path d="M26.7361 14.8003L9.86386 4.48912C9.72174 4.40227 9.55906 4.35485 9.39254 4.35173C9.22602 4.34861 9.06167 4.38991 8.91641 4.47138C8.77114 4.55284 8.6502 4.67154 8.56603 4.81525C8.48185 4.95897 8.43748 5.12251 8.43748 5.28906V25.9114C8.43748 26.0779 8.48185 26.2415 8.56603 26.3852C8.6502 26.5289 8.77114 26.6476 8.91641 26.7291C9.06167 26.8106 9.22602 26.8519 9.39254 26.8487C9.55906 26.8456 9.72174 26.7982 9.86386 26.7113L26.7361 16.4002C26.8732 16.3164 26.9864 16.1989 27.0649 16.0588C27.1435 15.9187 27.1847 15.7608 27.1847 15.6002C27.1847 15.4396 27.1435 15.2817 27.0649 15.1417C26.9864 15.0016 26.8732 14.884 26.7361 14.8003Z" fill="#191A1C"/>
</svg>
