<svg width="18" height="18" viewBox="0 0 18 18" fill="none" xmlns="http://www.w3.org/2000/svg">
<path d="M16.7838 7.06504L13.7833 4.20992C13.7133 4.14337 13.6303 4.09057 13.5389 4.05456C13.4475 4.01854 13.3496 4 13.2507 4C13.0509 4 12.8593 4.07551 12.7181 4.20992C12.5768 4.34432 12.4975 4.52662 12.4975 4.7167C12.4975 4.90678 12.5768 5.08908 12.7181 5.22349L14.4434 6.85805H5.74932C5.55037 6.85805 5.35957 6.93325 5.21889 7.06711C5.07822 7.20097 4.99918 7.38252 4.99918 7.57183C4.99918 7.76113 5.07822 7.94269 5.21889 8.07655C5.35957 8.21041 5.55037 8.28561 5.74932 8.28561H16.2512C16.3993 8.28491 16.5439 8.24251 16.6667 8.16375C16.7895 8.085 16.8851 7.97342 16.9413 7.84307C16.9988 7.71308 17.0145 7.56981 16.9865 7.43135C16.9584 7.29288 16.8879 7.16542 16.7838 7.06504ZM13.2507 9.71317H2.74878C2.60068 9.71388 2.45612 9.75628 2.3333 9.83503C2.21049 9.91378 2.11493 10.0254 2.05865 10.1557C2.00121 10.2857 1.98551 10.429 2.01355 10.5674C2.04158 10.7059 2.11209 10.8334 2.21618 10.9337L5.21672 13.7889C5.28646 13.8558 5.36942 13.9089 5.46084 13.9451C5.55225 13.9813 5.65029 14 5.74932 14C5.84835 14 5.94639 13.9813 6.03781 13.9451C6.12922 13.9089 6.21218 13.8558 6.28192 13.7889C6.35223 13.7225 6.40803 13.6436 6.44612 13.5566C6.4842 13.4696 6.50381 13.3763 6.50381 13.2821C6.50381 13.1879 6.4842 13.0946 6.44612 13.0076C6.40803 12.9206 6.35223 12.8417 6.28192 12.7753L4.5566 11.1407H13.2507C13.4496 11.1407 13.6404 11.0655 13.7811 10.9317C13.9218 10.7978 14.0008 10.6163 14.0008 10.427C14.0008 10.2376 13.9218 10.0561 13.7811 9.92223C13.6404 9.78837 13.4496 9.71317 13.2507 9.71317Z" fill="#161616" stroke="white" stroke-width="0.3"/>
</svg>
