<svg width="40" height="40" viewBox="0 0 40 40" fill="none" xmlns="http://www.w3.org/2000/svg">
<g clip-path="url(#clip0_2389_1171)">
<rect x="0.499756" y="0.499512" width="39" height="39" rx="19.5" fill="white" stroke="black"/>
<path fill-rule="evenodd" clip-rule="evenodd" d="M20.4058 26.7191C20.7118 26.9332 21.177 26.9084 21.4448 26.6638L28.3176 20.3869C28.5605 20.165 28.5605 19.8337 28.3176 19.6119L21.4448 13.3349C21.177 13.0904 20.7118 13.0656 20.4058 13.2796C20.0997 13.4936 20.0687 13.8654 20.3365 14.11L26.1406 19.4109L12.2361 19.4109C11.8294 19.4109 11.4998 19.6744 11.4998 19.9994C11.4998 20.3244 11.8294 20.5878 12.2361 20.5878L26.1406 20.5878L20.3365 25.8888C20.0687 26.1334 20.0997 26.5051 20.4058 26.7191Z" fill="#191A1C"/>
</g>
<defs>
<clipPath id="clip0_2389_1171">
<rect width="40" height="40" fill="white" transform="translate(-0.000244141 -0.000488281)"/>
</clipPath>
</defs>
</svg>
