<svg width="96" height="81" viewBox="0 0 96 81" fill="none" xmlns="http://www.w3.org/2000/svg">
<path opacity="0.5" d="M76.6627 53.9388C88.3102 44.5148 70.7518 33.2089 61.4997 35.5493C58.9729 27.6896 52.9498 27.852 47.7458 26.1229C51.4452 20.6825 57.5376 15.266 54.9105 7.97226C48.7489 -9.14907 4.86962 4.80068 0.651978 20.7876C3.89283 19.3547 6.04464 16.1066 9.48849 13.6229C12.8201 11.2155 16.775 8.5956 21.6136 6.74948C31.7828 2.86619 49.0068 0.138826 52.1617 9.05654C53.7881 13.6467 48.3405 23.386 43.0863 26.3809C39.5756 28.375 32.9984 27.1809 33.894 32.6357C36.447 34.7612 41.9662 31.7234 44.3473 29.5931C50.0791 29.8319 56.0736 29.4354 58.758 36.6432C55.2807 37.9137 51.6745 39.1246 53.1361 42.5541C56.0569 45.7758 60.4226 40.739 62.3117 38.955C68.3587 38.5131 76.5361 40.2781 77.821 46.103C79.8367 55.2524 65.8057 51.6652 61.4687 55.6942C63.8951 59.9931 68.5259 56.5946 72.4546 56.6829C79.2993 56.831 91.68 62.8303 91.1235 70.5348C86.2801 73.2191 84.8114 68.1465 80.6152 69.3669C82.5807 73.6944 79.8988 77.8595 82.0028 81.0001C85.0407 79.4095 83.8035 75.9561 84.8878 73.5129C87.651 74.2127 91.8137 75.1345 94.0467 72.5576C100.54 65.0394 80.835 54.875 76.6627 53.9388Z" fill="url(#paint0_linear_2357_6707)"/>
<defs>
<linearGradient id="paint0_linear_2357_6707" x1="86.1984" y1="62.6389" x2="26.3259" y2="15.1988" gradientUnits="userSpaceOnUse">
<stop stop-color="#F6F6F6"/>
<stop offset="0.28" stop-color="#09DFEB"/>
<stop offset="0.6" stop-color="#AD5FFF"/>
<stop offset="1" stop-color="#FF18F8"/>
</linearGradient>
</defs>
</svg>
