<svg width="27" height="17" viewBox="0 0 27 17" fill="none" xmlns="http://www.w3.org/2000/svg">
<path fill-rule="evenodd" clip-rule="evenodd" d="M18.906 16.8197C19.2121 17.0847 19.6773 17.054 19.9451 16.7512L26.8178 8.97976C27.0607 8.70507 27.0607 8.29492 26.8178 8.02023L19.9451 0.248812C19.6773 -0.0540084 19.2121 -0.0846934 18.906 0.180274C18.5999 0.445242 18.5689 0.905526 18.8367 1.20835L24.6409 7.77143L0.736363 7.77143C0.32968 7.77143 -7.78271e-07 8.09762 -7.43094e-07 8.5C-7.07917e-07 8.90238 0.329681 9.22857 0.736363 9.22857L24.6409 9.22857L18.8367 15.7917C18.5689 16.0945 18.6 16.5548 18.906 16.8197Z" fill="#161616"/>
</svg>
