<svg width="24" height="24" viewBox="0 0 24 24" fill="none" xmlns="http://www.w3.org/2000/svg">
<path d="M21.7556 20.5775L16.0682 14.89C17.1698 13.5292 17.8331 11.8 17.8331 9.91668C17.8331 5.55168 14.2815 2 9.91655 2C5.5516 2 2 5.55164 2 9.91664C2 14.2816 5.55164 17.8333 9.91659 17.8333C11.7999 17.8333 13.5291 17.17 14.8899 16.0683L20.5773 21.7558C20.7398 21.9183 20.9531 22 21.1665 22C21.3798 22 21.5931 21.9183 21.7556 21.7558C22.0815 21.43 22.0815 20.9033 21.7556 20.5775ZM9.91659 16.1666C6.46995 16.1666 3.66666 13.3633 3.66666 9.91664C3.66666 6.46996 6.46995 3.66664 9.91659 3.66664C13.3632 3.66664 16.1665 6.46996 16.1665 9.91664C16.1665 13.3633 13.3632 16.1666 9.91659 16.1666Z" fill="#96A0B5"/>
</svg>
