<svg width="18" height="18" viewBox="0 0 18 18" fill="none" xmlns="http://www.w3.org/2000/svg">
<path fill-rule="evenodd" clip-rule="evenodd" d="M11.929 1.125H16.5938C16.7491 1.125 16.875 1.25092 16.875 1.40625V6.07101C16.875 6.32157 16.572 6.44706 16.3948 6.26987L14.6591 4.53412L10.4404 8.75287C10.1109 9.08237 9.57663 9.08237 9.24713 8.75287C8.91763 8.42337 8.91763 7.88913 9.24713 7.55963L13.4659 3.34088L11.7302 1.60513C11.553 1.42795 11.6784 1.125 11.929 1.125ZM4.21875 2.25C3.13144 2.25 2.25 3.13144 2.25 4.21875V13.7812C2.25 14.8686 3.13144 15.75 4.21875 15.75H13.7812C14.8686 15.75 15.75 14.8686 15.75 13.7812V9.84375C15.75 9.37776 15.3722 9 14.9062 9C14.4403 9 14.0625 9.37776 14.0625 9.84375V13.7812C14.0625 13.9366 13.9366 14.0625 13.7812 14.0625H4.21875C4.06342 14.0625 3.9375 13.9366 3.9375 13.7812V4.21875C3.9375 4.06342 4.06342 3.9375 4.21875 3.9375H8.15625C8.62224 3.9375 9 3.55974 9 3.09375C9 2.62776 8.62224 2.25 8.15625 2.25H4.21875Z" fill="#161616" stroke="#FFF8F1" stroke-width="0.5"/>
</svg>
