<svg width="25" height="25" viewBox="0 0 25 25" fill="none" xmlns="http://www.w3.org/2000/svg">
<path d="M20.4122 5.31855C20.2364 5.07471 19.9547 4.94043 19.6188 4.94043C19.4611 4.94043 19.2921 4.97015 19.1164 5.02874L5.50931 9.56442C5.03931 9.72108 4.71537 10.0412 4.62053 10.4429C4.52568 10.8445 4.67221 11.2758 5.02256 11.6263C5.05681 11.6605 5.09618 11.6893 5.13924 11.7115L10.868 14.6645L13.8212 20.3933C13.8434 20.4364 13.8721 20.4757 13.9064 20.51C14.1879 20.7916 14.5126 20.9404 14.8454 20.9404H14.8455C15.3495 20.9404 15.7797 20.5889 15.9682 20.0233L20.504 6.41621C20.6466 5.98827 20.614 5.59846 20.4122 5.31855ZM5.53293 10.6583C5.55087 10.5823 5.65543 10.504 5.80574 10.4538L18.7209 6.14877L11.1266 13.743L5.64099 10.9154C5.55837 10.8188 5.51753 10.7236 5.53293 10.6583ZM15.0788 19.7268C15.0343 19.8603 14.9497 20.0029 14.8455 20.0029C14.7824 20.0029 14.6997 19.9621 14.6173 19.8915L11.7895 14.4059L19.384 6.81149L15.0788 19.7268Z" fill="#191A1C"/>
</svg>
