<svg width="56" height="56" viewBox="0 0 56 56" fill="none" xmlns="http://www.w3.org/2000/svg">
<circle cx="28" cy="28" r="28" fill="#C5D6F1"/>
<path d="M26.623 31.5571L26.6366 31.5957C26.6366 31.5775 26.6321 31.5617 26.623 31.5571Z" fill="#191A1C"/>
<path d="M13.1408 27.3328H13.0547C13.066 27.3554 13.1 27.3577 13.1408 27.3328Z" fill="#191A1C"/>
<path d="M12.8114 25.9774C12.6748 26.1276 12.4937 26.23 12.2947 26.2698L11.6896 26.4148C11.4195 26.4406 11.1471 26.4136 10.8873 26.3355C10.8447 26.3512 10.7984 26.3537 10.7544 26.3428C10.7103 26.3319 10.6706 26.308 10.6403 26.2743C10.566 26.209 10.4763 26.1637 10.3796 26.1428C10.3763 26.1082 10.3763 26.0733 10.3796 26.0386C10.3116 26.0273 10.2414 25.9955 10.2346 25.9253L10.255 25.9139C10.153 25.8867 10.119 25.7848 10.0669 25.7712H10.0895L10.0216 25.6873H10.0601C9.99053 25.6457 9.9334 25.5862 9.89464 25.5151C9.85153 25.4521 9.8236 25.3799 9.81306 25.3043L9.72694 25.3542C9.71657 25.2278 9.67784 25.1054 9.61362 24.9961C9.58325 24.9434 9.56379 24.8852 9.55639 24.8248C9.54899 24.7645 9.55381 24.7033 9.57056 24.6448H9.59549C9.53747 24.5825 9.50004 24.5038 9.48828 24.4195C9.47652 24.3351 9.491 24.2492 9.52977 24.1734C9.55781 24.0998 9.57979 24.024 9.59549 23.9468C9.6043 23.8566 9.59108 23.7656 9.55696 23.6816C9.57736 23.7337 9.60909 23.6816 9.63175 23.6816C9.63175 23.5071 9.68388 23.3303 9.50484 23.2623C9.5547 23.1377 9.60002 23.183 9.67481 23.1944C9.59096 23.1626 9.60909 23.0448 9.64988 22.9496V23.0063C9.68117 22.9123 9.7206 22.8213 9.76773 22.7343L9.60002 22.7003C9.72694 22.5847 9.78133 22.766 9.82665 22.621L9.71787 22.5462C9.79378 22.4668 9.89451 22.4156 10.0034 22.4011C10.1077 22.3785 10.2165 22.3694 10.3252 22.3377C10.6515 22.0424 11.0122 21.7874 11.3995 21.5785C11.7982 21.3618 12.2612 21.2951 12.7049 21.3904L12.7411 21.4901C12.7411 21.5626 12.8023 21.5082 12.8635 21.4538C12.9247 21.3994 12.9859 21.3496 12.9972 21.4176L13.097 21.3586C13.1196 21.3858 13.1717 21.4221 13.1219 21.447C13.2057 21.4674 13.2103 21.447 13.2805 21.4085L13.3553 21.5127C13.6635 21.6442 13.9944 21.5717 14.3117 21.7756C14.5118 21.9795 14.7346 22.1597 14.9757 22.3128C15.225 22.4842 15.462 22.6727 15.6851 22.8771C15.9797 23.1037 16.084 23.4958 16.1248 23.8743C16.1313 24.2449 16.1971 24.6122 16.3197 24.9621C16.2993 24.987 16.3514 25.0437 16.3673 25.0414C16.3782 25.2605 16.3744 25.4801 16.3559 25.6986C16.3559 25.6986 16.3401 25.8958 16.3219 26.1519C16.3038 26.408 16.2562 26.7366 16.2449 26.9972C16.2335 27.2579 16.263 27.4664 16.433 27.4868C16.6029 27.5072 16.9361 27.3417 17.3871 26.6822L17.4143 26.7072C17.5775 26.2902 17.6183 25.9955 17.4755 25.6873C17.6727 25.6465 17.5049 25.3247 17.5593 25.2204H17.5775C17.4211 24.9621 17.6636 24.6471 17.4868 24.4023C17.5027 24.4023 17.5571 24.4023 17.5707 24.4658C17.5163 24.2777 17.4166 24.0306 17.5208 23.9898C17.4514 23.7393 17.3666 23.4934 17.267 23.2533C17.1869 23.043 17.0485 22.8598 16.8681 22.7252H16.9066C16.714 22.6391 16.782 22.5417 16.6279 22.417C16.6279 22.4011 16.6279 22.3853 16.6392 22.383C16.4398 22.2992 16.3129 21.9615 16.1701 21.889L16.2199 21.83C16.1361 21.7439 16.05 21.6578 15.957 21.5785L16.0409 21.685C15.8619 21.8028 15.9412 21.3949 15.642 21.3246C15.5582 21.2317 15.3859 21.2476 15.2341 21.2544C15.0823 21.2612 14.9327 21.2771 14.8556 21.1728C14.706 21.2023 15.0233 21.0867 14.8352 21.0663C14.8828 20.9688 14.9417 21.0482 14.944 20.9507C14.7695 20.9076 14.74 20.7127 14.5066 20.6855L14.5338 20.6062C14.3924 20.6105 14.2538 20.5657 14.1417 20.4793C14.0307 20.4181 13.9287 20.3479 13.8154 20.4C13.5117 20.4 13.6658 20.1054 13.3213 20.2209C13.2851 20.1756 13.2488 20.1326 13.2103 20.0918C13.0698 20.0646 13.0992 20.2255 12.9496 20.1598C12.9632 20.0827 12.7615 20.0986 12.8499 20.0306C12.7651 20.0036 12.6756 19.9943 12.587 20.0034C12.4964 20.017 12.4057 20.0396 12.3128 20.06C12.1114 20.1237 11.8978 20.1385 11.6896 20.1031C11.6216 20.2549 11.3813 20.2345 11.3383 20.3547C11.3111 20.2935 10.9032 20.4861 11.1117 20.2776C11.1298 20.2617 11.1683 20.2504 11.1728 20.2776V20.1892C10.8669 20.1212 10.7422 20.4295 10.493 20.5201C10.5745 20.5088 10.6652 20.4589 10.6267 20.5405L10.4 20.6357L10.4136 20.5518C10.298 20.5904 10.187 20.6425 10.0714 20.6923L10.1598 20.7422C9.9853 20.7898 9.84705 20.7127 9.7496 20.928C9.7156 21.0368 9.95583 20.928 9.81759 21.055C9.52703 21.1704 9.26038 21.3387 9.03118 21.5513C9.1241 21.5921 9.06517 21.6533 9.03118 21.7326L8.95865 21.6873C8.85667 22.0295 8.73202 21.6714 8.61644 22.0136L8.58244 21.9547L8.68669 22.1269C8.68669 22.4623 8.4442 22.1881 8.50312 22.5802C8.54845 22.4578 8.69576 22.6051 8.60284 22.7298L8.56885 22.6776C8.55298 22.7638 8.56885 22.8046 8.53939 22.8521C8.51672 22.7887 8.4374 22.7842 8.40567 22.9111L8.33995 22.7932C8.3552 22.8889 8.3764 22.9835 8.4034 23.0765C8.26063 23.2329 8.31275 23.5502 8.17677 23.6068C8.15756 23.6764 8.14541 23.7478 8.14051 23.8199C8.12691 23.9332 8.14051 24.0601 8.2017 24.1077C8.12465 24.0238 8.09065 24.2482 8 24.1825C8.0536 24.2625 8.0896 24.3529 8.10562 24.4478C8.12164 24.5428 8.11731 24.6401 8.09292 24.7332L8.07932 24.7105C8.07113 24.8222 8.07953 24.9345 8.10425 25.0437C8.1325 25.1411 8.16733 25.2365 8.2085 25.3292C8.29925 25.508 8.36411 25.6988 8.40114 25.8958C8.48273 25.8392 8.52125 26.0635 8.61417 25.9615C8.72755 26.1153 8.81272 26.2879 8.86573 26.4715C8.92466 26.6278 9.01758 26.7276 9.21248 26.6641C9.34393 26.7978 9.29633 26.8907 9.35073 26.9791L9.30313 26.961C9.40592 27.0511 9.51334 27.1359 9.62495 27.2148C9.70654 27.2828 9.78359 27.3372 9.89691 27.4165C10.0329 27.4596 10.1235 27.3191 10.3298 27.4618C10.2278 27.489 10.3298 27.5253 10.4068 27.5616C10.3479 27.548 10.3184 27.5616 10.4068 27.6567C10.432 27.6434 10.46 27.6364 10.4884 27.6363C10.4905 27.6422 10.4905 27.6486 10.4884 27.6545C10.6425 27.6839 10.6221 27.6545 10.5587 27.6205C10.5587 27.6091 10.5587 27.5955 10.5587 27.5684C10.6765 27.7157 10.9757 27.6817 10.9689 27.795C11.3581 27.8184 11.7472 27.746 12.102 27.5842C12.1564 27.6386 12.0839 27.7111 11.9797 27.7542L12.2358 27.6817C12.2539 27.7701 12.0952 27.7633 12.0091 27.7973C12.0908 27.8189 12.1767 27.8189 12.2584 27.7973C12.3372 27.7664 12.4131 27.7285 12.485 27.6839C12.6335 27.5756 12.8023 27.4985 12.9814 27.4573C12.9927 27.4256 13.0018 27.3871 13.0108 27.3531H13.0358C13.0154 27.3213 13.0584 27.2329 13.0947 27.1944C13.1831 27.2284 13.1989 27.3508 13.3485 27.2239C13.523 27.1899 13.6477 26.8953 13.7247 26.7117C13.6477 26.7887 13.6341 26.7344 13.6386 26.6822C13.6953 26.6097 13.7882 26.6074 13.7972 26.5259L13.8924 26.5734C13.7904 26.553 13.9242 26.306 13.8924 26.2539C13.9876 26.2403 13.8924 26.4148 13.9332 26.4624C13.9777 26.3775 14.0163 26.2896 14.0488 26.1995C14.0841 26.1082 14.1121 26.0142 14.1327 25.9185C14.1077 25.6918 14.0261 25.9298 13.9582 25.8142C13.9449 25.6395 13.9517 25.4639 13.9786 25.2907L13.8834 25.3519C13.8044 25.1345 13.7765 24.9019 13.8018 24.672C13.665 24.4898 13.4941 24.3358 13.2987 24.2187C13.1887 24.1521 13.0673 24.1068 12.9406 24.085C12.757 24.0624 12.6709 24.1303 12.6505 24.2414C12.6278 24.349 12.6278 24.4601 12.6505 24.5677C12.6641 24.6652 12.6822 24.7377 12.6822 24.7377C12.701 24.9396 12.7475 25.1378 12.8205 25.327C12.864 25.43 12.884 25.5415 12.8789 25.6533C12.8738 25.765 12.8438 25.8742 12.791 25.9729L12.8114 25.9774Z" fill="#191A1C"/>
<path d="M43.0156 20.9688H43.1017C43.0791 20.9438 43.0542 20.9416 43.0156 20.9688Z" fill="#191A1C"/>
<path d="M43.3358 22.3241C43.4724 22.1724 43.6545 22.069 43.8547 22.0294L44.4599 21.8844C44.7299 21.8587 45.0023 21.8857 45.2621 21.9637C45.3044 21.9485 45.3502 21.9462 45.3938 21.9571C45.4374 21.968 45.4767 21.9916 45.5069 22.0249C45.5825 22.09 45.6727 22.1359 45.7698 22.1586C45.7698 22.1926 45.7698 22.2243 45.7698 22.2606C45.8355 22.2606 45.9058 22.3037 45.9148 22.3739L45.8944 22.3875C45.9942 22.4124 46.0281 22.5144 46.0803 22.5303H46.0576L46.1256 22.6141H46.0871C46.1553 22.6574 46.2121 22.7165 46.2525 22.7864C46.295 22.8499 46.3236 22.9218 46.3364 22.9972L46.4225 22.9473C46.4307 23.0741 46.4696 23.197 46.5358 23.3054C46.5658 23.3582 46.5849 23.4165 46.5919 23.4769C46.5989 23.5372 46.5937 23.5984 46.5766 23.6567H46.5517C46.6107 23.7179 46.6488 23.7963 46.6606 23.8806C46.6724 23.9648 46.6573 24.0507 46.6174 24.1258C46.5901 24.1995 46.5689 24.2753 46.5539 24.3524C46.5438 24.4426 46.557 24.534 46.5925 24.6176C46.5698 24.5654 46.5381 24.6289 46.5154 24.6176C46.5154 24.7898 46.4655 24.9666 46.6423 25.0346C46.5925 25.1615 46.5494 25.1162 46.4723 25.1026C46.5562 25.1343 46.5381 25.2521 46.4973 25.3496V25.2907C46.4654 25.3847 46.4268 25.4764 46.3817 25.5649L46.5494 25.5966C46.4225 25.7122 46.3681 25.5309 46.3228 25.6759L46.4316 25.7507C46.3578 25.8317 46.2571 25.8833 46.1483 25.8958C46.0417 25.9184 45.933 25.9298 45.8242 25.9592C45.4991 26.256 45.1382 26.5111 44.7499 26.7185C44.352 26.9347 43.89 27.0022 43.4468 26.9088L43.4105 26.8068C43.4105 26.7343 43.3471 26.7887 43.2882 26.8431C43.2292 26.8975 43.1635 26.9474 43.1544 26.8794L43.0547 26.9383C43.0298 26.9134 42.9777 26.8748 43.0275 26.8499C42.9437 26.8318 42.9391 26.8499 42.8712 26.8884L42.7941 26.7864C42.4882 26.6527 42.155 26.7253 41.8377 26.5213C41.637 26.3181 41.4143 26.1379 41.1737 25.9842C40.9253 25.8116 40.6883 25.6231 40.4643 25.4199C40.172 25.1932 40.0655 24.8011 40.0247 24.4227C40.0173 24.0523 39.9523 23.6853 39.832 23.3348C39.8502 23.3099 39.798 23.2555 39.7822 23.2555C39.772 23.0371 39.7765 22.8183 39.7958 22.6006C39.7958 22.6006 39.8094 22.4011 39.8298 22.1473C39.8502 21.8935 39.8955 21.5648 39.9068 21.3019C39.9181 21.0391 39.8864 20.8328 39.7164 20.8124C39.5465 20.792 39.2133 20.9575 38.7646 21.6192L38.7374 21.592C38.5742 22.009 38.5312 22.3037 38.6739 22.6119C38.4768 22.6549 38.6445 22.9745 38.5901 23.0787H38.5742C38.7283 23.3371 38.4858 23.6521 38.6649 23.8969C38.6467 23.8969 38.5924 23.8969 38.5788 23.8334C38.6331 24.0238 38.7329 24.2708 38.6286 24.3116C38.698 24.5614 38.7828 24.8066 38.8824 25.0459C38.9634 25.2564 39.1015 25.4401 39.2813 25.5762H39.2451C39.4377 25.6624 39.3674 25.7598 39.5238 25.8844C39.5238 25.9003 39.5238 25.9162 39.5102 25.9184C39.7096 26.0023 39.8366 26.34 39.9793 26.4148L39.9295 26.4714C40.0134 26.5599 40.1019 26.6438 40.1946 26.723L40.1085 26.6165C40.2876 26.4986 40.2105 26.9088 40.5074 26.9791C40.5935 27.0697 40.7635 27.0561 40.9153 27.0493C41.0672 27.0425 41.2167 27.0244 41.2938 27.1287C41.4434 27.0992 41.1261 27.2148 41.3142 27.2352C41.2666 27.3326 41.2099 27.2533 41.2054 27.3508C41.3822 27.3938 41.4094 27.5887 41.6428 27.6159L41.6179 27.6975C41.7585 27.6917 41.8965 27.7359 42.0077 27.8222C42.1187 27.8856 42.2207 27.9536 42.334 27.9015C42.6377 27.9015 42.4836 28.1961 42.8281 28.0805C42.8644 28.1258 42.9029 28.1689 42.9414 28.2097C43.0797 28.2392 43.0525 28.0782 43.1998 28.144C43.1884 28.2188 43.3901 28.2029 43.2995 28.2709C43.3851 28.298 43.4753 28.3073 43.5647 28.2981C43.6563 28.2842 43.7471 28.2653 43.8366 28.2414C44.038 28.1779 44.2516 28.1631 44.4599 28.1984C44.5301 28.0488 44.7681 28.0669 44.8111 27.9491C44.8406 28.008 45.2463 27.8176 45.0378 28.0239C45.0196 28.042 44.9811 28.051 44.9766 28.0239V28.1122C45.2825 28.1802 45.4072 27.8743 45.6565 27.7836C45.5749 27.7836 45.4865 27.8425 45.525 27.761L45.7517 27.6658L45.7381 27.7496C45.8559 27.7111 45.9647 27.659 46.0803 27.6091L45.9919 27.5593C46.1687 27.5117 46.3046 27.591 46.4044 27.3734C46.4384 27.2669 46.1959 27.3734 46.3341 27.2465C46.6261 27.1325 46.8937 26.9641 47.1228 26.7502C47.0299 26.7094 47.0888 26.6482 47.1228 26.5711L47.193 26.6165C47.295 26.272 47.4197 26.6301 47.5352 26.2879L47.5692 26.3468L47.4673 26.1768C47.4673 25.8391 47.7075 26.1156 47.6486 25.7235C47.6032 25.8459 47.4559 25.7009 47.5488 25.5762L47.61 25.6442C47.6259 25.5558 47.61 25.5173 47.6395 25.4697C47.6622 25.5332 47.7415 25.5377 47.7732 25.4085L47.8389 25.5264C47.8239 25.4314 47.8027 25.3375 47.7755 25.2453C47.9183 25.0867 47.8661 24.7694 47.9908 24.7128C48.0018 24.6393 48.0056 24.5649 48.0021 24.4907C48.0021 24.3773 48.0021 24.2504 47.9387 24.2028C48.0157 24.2867 48.0497 24.0623 48.1404 24.128C48.0871 24.0479 48.0515 23.9574 48.0359 23.8624C48.0203 23.7675 48.025 23.6703 48.0497 23.5773L48.0633 23.6C48.0697 23.489 48.0605 23.3776 48.0361 23.2691C48.0076 23.1713 47.9735 23.0752 47.9341 22.9813C47.8414 22.8042 47.7764 22.6138 47.7415 22.417C47.6576 22.4714 47.6214 22.247 47.5284 22.349C47.4144 22.1953 47.3285 22.0227 47.2746 21.8391C47.218 21.6827 47.1228 21.583 46.9279 21.6464C46.7987 21.5127 46.844 21.4198 46.7896 21.3314L46.8372 21.3495C46.7012 21.2272 46.6106 21.1614 46.5177 21.0957C46.4248 21.03 46.3568 20.9756 46.2457 20.8963C46.1347 20.817 46.0077 20.9915 45.8128 20.851C45.9126 20.8215 45.8128 20.7852 45.7358 20.749C45.7924 20.7626 45.8219 20.749 45.7358 20.656C45.7101 20.6677 45.6824 20.6738 45.6542 20.6742C45.6542 20.6742 45.6542 20.6628 45.6542 20.656C45.5024 20.6266 45.5205 20.656 45.5839 20.6923C45.5839 20.6923 45.5839 20.7172 45.5839 20.7422C45.4661 20.5949 45.1692 20.6311 45.1737 20.5155C44.7847 20.4919 44.3957 20.5635 44.0406 20.724C43.9885 20.6696 44.0587 20.5971 44.163 20.5541L43.9091 20.6289C43.8887 20.5382 44.0474 20.545 44.1358 20.5133C44.0533 20.4917 43.9667 20.4917 43.8842 20.5133C43.8054 20.5441 43.7295 20.5821 43.6576 20.6266C43.5094 20.734 43.3415 20.811 43.1635 20.8532C43.1506 20.8864 43.14 20.9205 43.1318 20.9552H43.1069C43.1273 20.9869 43.0865 21.0753 43.0479 21.1161C42.9596 21.0821 42.9437 20.9575 42.7964 21.0844C42.6219 21.1184 42.495 21.413 42.4202 21.5966C42.495 21.5195 42.5085 21.5762 42.504 21.626C42.4496 21.6986 42.3544 21.7008 42.3476 21.7824L42.2502 21.7348C42.3522 21.7552 42.2185 22.0022 42.2502 22.0544C42.1573 22.0702 42.2502 21.8935 42.2117 21.8459C42.1675 21.9312 42.1282 22.019 42.0938 22.1088C42.0601 22.2006 42.0321 22.2945 42.01 22.3898C42.0372 22.6164 42.1165 22.3785 42.1845 22.494C42.1989 22.6695 42.192 22.846 42.1641 23.0198L42.2593 22.9586C42.3369 23.1724 42.3648 23.401 42.3408 23.6272C42.477 23.8108 42.6489 23.965 42.8462 24.0805C42.9549 24.148 43.0758 24.1934 43.202 24.2142C43.3856 24.2368 43.4717 24.1688 43.4944 24.0578C43.5171 23.9502 43.5171 23.839 43.4944 23.7314C43.4785 23.634 43.4627 23.5615 43.4627 23.5615C43.4417 23.3598 43.3945 23.1617 43.3222 22.9722C43.2874 22.8863 43.2675 22.7951 43.2632 22.7025C43.2575 22.5724 43.2824 22.4428 43.3358 22.3241Z" fill="#191A1C"/>
<path d="M29.8995 33.302C29.8432 33.3993 29.7634 33.4797 29.6679 33.5355C29.6264 33.5625 29.5914 33.5988 29.5653 33.6416C29.5392 33.6844 29.5227 33.7326 29.517 33.7829C29.4854 33.8351 29.4601 33.8911 29.4416 33.9496C29.4251 34.01 29.4053 34.0694 29.3823 34.1275C29.4847 34.2748 29.2988 34.2581 29.3608 34.4055L29.2719 34.3582C29.2934 34.4082 29.2988 34.4527 29.2476 34.4333L29.2261 34.411C29.2584 34.4888 29.2019 34.4861 29.2261 34.5222L29.2072 34.5027L29.1857 34.5389L29.1641 34.5027C29.1641 34.5972 29.1345 34.6501 29.0699 34.6528L29.1453 34.7446C28.9756 34.7001 29.086 34.9447 28.9109 34.8585V34.8307C28.9352 34.9975 28.8624 34.9891 28.7924 34.9558C28.7224 34.9224 28.6631 34.8891 28.655 35.0558C28.655 35.0169 28.6281 35.0003 28.62 34.9725C28.5769 35.0197 28.5257 35.0559 28.585 35.2865C28.5392 35.2865 28.5311 35.2282 28.5015 35.1392C28.5284 35.2421 28.5015 35.2949 28.4638 35.306V35.2643L28.3668 35.3171L28.4207 35.5061C28.3506 35.4616 28.3695 35.2726 28.321 35.331L28.3426 35.4922C28.2537 35.4728 28.1863 35.2143 28.119 35.1087C28.0509 35.0909 27.9796 35.0909 27.9116 35.1087L27.6799 35.1587C27.6027 35.1675 27.5246 35.1589 27.451 35.1337C27.4133 35.1168 27.3799 35.0912 27.3533 35.0589C27.3267 35.0266 27.3076 34.9885 27.2974 34.9475L27.3432 34.8335C27.4267 34.6751 27.1546 35.0253 27.2247 34.8752L27.1546 34.928C27.1575 34.8916 27.1739 34.8577 27.2004 34.8335C27.1762 34.814 27.1627 34.8335 27.1142 34.8668L27.152 34.7557C27.1304 34.6834 27.0685 34.6834 27.0038 34.6723C26.9392 34.6612 26.8664 34.6528 26.8341 34.5945C26.8403 34.5387 26.83 34.4823 26.8045 34.4326C26.779 34.383 26.7396 34.3425 26.6913 34.3165C26.6387 34.2805 26.5827 34.2497 26.5243 34.2248C26.4705 34.1942 26.4112 34.1664 26.3627 34.1414C26.3253 34.1361 26.2909 34.1173 26.2658 34.0883C26.2406 34.0593 26.2263 34.0219 26.2253 33.983C26.2189 33.8995 26.228 33.8155 26.2523 33.7356C26.2778 33.6587 26.2905 33.5779 26.29 33.4966C26.2904 33.4583 26.2792 33.4208 26.258 33.3894C26.2367 33.358 26.2065 33.3342 26.1715 33.3215C26.1903 33.3076 26.131 33.302 26.1122 33.3076C26.1122 33.2242 26.096 33.1408 26.0853 33.0602V33.0102C26.0797 32.9696 26.0707 32.9296 26.0583 32.8907C26.0265 32.7777 25.9724 32.6726 25.8994 32.5822C25.8475 32.5255 25.7834 32.4823 25.7122 32.4562C25.641 32.4301 25.5648 32.4218 25.49 32.4321C25.1778 32.4889 24.8958 32.6595 24.6953 32.9129H24.6549C24.5903 33.113 24.5768 33.2492 24.795 33.3409C24.5714 33.4076 24.795 33.5021 24.7384 33.5633H24.7196C24.9135 33.6328 24.6387 33.8412 24.8246 33.9079C24.8058 33.9079 24.7438 33.9274 24.733 33.9079C24.7842 33.983 24.8677 34.0719 24.733 34.1275C24.7869 34.2165 24.8246 34.336 24.8812 34.4333C24.9075 34.4845 24.9461 34.5279 24.9932 34.5595C25.0403 34.5911 25.0945 34.6098 25.1505 34.6139H25.1155C25.2772 34.6139 25.1721 34.689 25.2798 34.7223C25.2664 34.7362 25.261 34.7446 25.2529 34.7473C25.4172 34.7473 25.3903 34.9336 25.4765 34.953L25.4038 35.0086L25.5115 35.1253L25.4926 35.0642C25.7054 34.9308 25.4388 35.256 25.6354 35.2504C25.6785 35.3616 26.158 35.0614 26.131 35.2171C26.2469 35.1698 25.9667 35.3199 26.0799 35.3088C25.9883 35.4061 25.9991 35.3421 25.9371 35.4311C26.0287 35.4311 25.9371 35.6145 26.061 35.6173L25.9964 35.6951C26.2065 35.6395 26.0906 35.9731 26.2657 35.873C26.4166 35.873 26.1634 36.1787 26.3896 36.0926L26.3627 36.2399C26.4058 36.2927 26.4866 36.1176 26.5109 36.2093C26.4651 36.2844 26.5513 36.3149 26.4785 36.3677C26.5136 36.4706 26.6078 36.4706 26.7048 36.4706C26.7578 36.4645 26.8111 36.4778 26.8555 36.5083C26.8998 36.5389 26.9323 36.5845 26.9472 36.6373C27.0496 36.4928 27.1169 36.6207 27.187 36.5067C27.1708 36.5818 27.3809 36.5818 27.2274 36.7041C27.2139 36.7041 27.1977 36.7041 27.2058 36.679L27.1654 36.7708C27.2382 36.9987 27.4132 36.7263 27.521 36.7708C27.4914 36.7291 27.4429 36.7291 27.486 36.6679L27.5937 36.7013L27.556 36.7819C27.6099 36.8069 27.6638 36.8375 27.7176 36.8569V36.7513C27.7904 36.8097 27.8092 36.9931 27.9143 36.8486C27.9601 36.768 27.8469 36.7013 27.9331 36.6735C28.0519 36.7761 28.1935 36.8468 28.3453 36.8792C28.3237 36.7624 28.3614 36.7624 28.3991 36.7374L28.4126 36.8402C28.5446 36.6846 28.4934 37.0626 28.6335 36.9236V36.9987V36.7763C28.7251 36.5484 28.7493 36.9737 28.8355 36.6707C28.7816 36.6985 28.7601 36.4539 28.8355 36.4789V36.5818C28.8678 36.5512 28.8678 36.5067 28.8975 36.5178C28.8975 36.579 28.9217 36.6624 28.9729 36.629V36.7624C28.9917 36.6902 29.0106 36.6207 29.0268 36.5512C29.1399 36.629 29.2207 36.4595 29.2961 36.5734C29.2961 36.5734 29.4928 36.5595 29.4658 36.4039C29.4658 36.5039 29.579 36.4956 29.6032 36.6068C29.6032 36.49 29.6759 36.3288 29.781 36.4122V36.4289C30.0315 36.4289 29.9857 36.0981 30.2147 36.1037C30.1366 36.0148 30.2497 36.0036 30.1366 35.9008C30.1662 35.6701 30.5945 35.9008 30.309 35.5145C30.3413 35.4394 30.449 35.5145 30.4948 35.5145V35.545C30.5375 35.45 30.5948 35.3627 30.6645 35.2865C30.6645 35.2143 30.4975 35.0725 30.5945 35.0281C30.6457 35.1059 30.6564 35.0642 30.6753 35.0281C30.6753 35.0531 30.6942 35.0781 30.7696 35.0725C30.7569 35.0568 30.7469 35.0389 30.7399 35.0197C30.7462 35.0184 30.7526 35.0184 30.7588 35.0197C30.7588 34.9502 30.7373 34.9447 30.713 34.9613C30.6987 34.9502 30.6821 34.9426 30.6645 34.9391C30.7884 34.9391 30.748 34.7862 30.8746 34.8613C30.9447 34.6862 30.8746 34.4944 30.8746 34.3415C30.9063 34.3487 30.9353 34.3651 30.9582 34.3887C30.9811 34.4124 30.997 34.4423 31.0039 34.4749L31.0255 34.3665C31.1225 34.4138 31.0551 34.4499 31.0605 34.4888C31.2787 34.4472 31.0066 34.1775 31.206 34.1025L31.1386 34.0441H31.1548C31.1128 34.0276 31.0789 33.9947 31.0605 33.9524C31.1548 33.9663 31.2652 34.0302 31.2814 33.9524C31.3837 33.9246 31.2814 33.7773 31.2571 33.6911C31.2302 33.7273 31.1844 33.6911 31.1575 33.6717C31.1305 33.6522 31.2598 33.6439 31.2302 33.6078L31.3541 33.6356C31.2356 33.6189 31.2491 33.5105 31.2006 33.4855C31.2975 33.4855 31.2679 33.5605 31.3353 33.5883C31.3541 33.441 31.3353 33.5133 31.3622 33.3687C31.2841 33.2742 31.241 33.3687 31.1413 33.2992C31.1278 33.2298 31.0551 33.1547 31.1413 33.0936H31.0255C30.9554 32.9629 30.9743 32.899 31.0982 32.8156C30.9485 32.6316 30.7542 32.4916 30.5352 32.4098C30.4096 32.3643 30.2739 32.3575 30.1446 32.3904C30.0324 32.4144 29.9305 32.4748 29.8537 32.5627C29.5709 32.8212 29.8861 32.9713 29.8995 33.302Z" fill="#191A1C"/>
</svg>
