<svg width="20" height="20" viewBox="0 0 20 20" fill="none" xmlns="http://www.w3.org/2000/svg">
<path d="M4.93418 16.7206L4.9247 16.7153L4.915 16.7105C4.65902 16.5832 4.5 16.323 4.5 15.9337C4.5 13.9929 6.11988 12.3776 8.07692 12.3776H11.9231C13.8863 12.3776 15.5 13.9225 15.5 15.9337C15.5 16.2755 15.3016 16.5762 15.058 16.7249C14.4688 17.0475 13.0289 17.5 10 17.5C6.95761 17.5 5.51838 17.0435 4.93418 16.7206ZM13.1923 6.67345C13.1923 8.42369 11.7655 9.8469 10 9.8469C8.23452 9.8469 6.80769 8.42369 6.80769 6.67345C6.80769 4.92321 8.23452 3.5 10 3.5C11.7655 3.5 13.1923 4.92321 13.1923 6.67345Z" stroke="#161616"/>
</svg>
