<svg width="311" height="310" viewBox="0 0 311 310" fill="none" xmlns="http://www.w3.org/2000/svg">
<g clip-path="url(#clip0_522_10552)">
<path d="M10.0229 153.876L0 153.568L0.0881304 150.748C0.0984555 149.942 0.323585 149.154 0.740446 148.464C1.14372 147.81 1.73284 147.29 2.433 146.97C3.20636 146.619 4.05181 146.453 4.90119 146.487H5.53586C6.3973 146.492 7.24465 146.706 8.00416 147.111C8.68962 147.47 9.24686 148.031 9.59965 148.719C9.97047 149.453 10.1466 150.269 10.111 151.091L10.0229 153.876ZM1.11944 152.285L8.98263 152.531V151.143C9.02276 150.703 8.9645 150.26 8.81207 149.845C8.65964 149.431 8.41683 149.055 8.10111 148.745C7.36658 148.117 6.42364 147.785 5.45655 147.814H4.87472C3.93524 147.732 2.99742 147.988 2.23016 148.534C1.89948 148.803 1.63474 149.144 1.45603 149.531C1.27733 149.918 1.18942 150.34 1.19885 150.765L1.11944 152.285Z" fill="black"/>
<path d="M1.71847 131.614L8.47976 132.492C8.90409 132.531 9.31621 132.655 9.69174 132.855C10.0673 133.056 10.3986 133.33 10.6659 133.661C11.2049 134.379 11.4562 135.271 11.3711 136.164V136.516C11.296 137.466 10.861 138.351 10.1546 138.993C9.80367 139.282 9.39449 139.492 8.95485 139.608C8.51521 139.725 8.05554 139.746 7.60707 139.67L0.828125 138.791L0.99567 137.491L7.73038 138.369C8.0436 138.436 8.36716 138.436 8.68066 138.372C8.99417 138.307 9.29084 138.178 9.55196 137.993C9.81308 137.809 10.0331 137.572 10.1979 137.299C10.3628 137.025 10.469 136.721 10.5099 136.404C10.5508 136.088 10.5255 135.766 10.4356 135.46C10.3457 135.154 10.1931 134.87 9.98745 134.625C9.78181 134.38 9.52767 134.181 9.24087 134.039C8.95406 133.897 8.64083 133.816 8.32104 133.801L1.57739 132.923L1.71847 131.614Z" fill="black"/>
<path d="M11.5476 120.28L10.6131 124.365L12.9668 125.859L12.6671 127.186L3.72852 121.255L3.98408 120.131L14.6153 118.602L14.3156 119.929L11.5476 120.28ZM9.6523 123.733L10.4016 120.421L5.44744 121.053L9.6523 123.733Z" fill="black"/>
<path d="M15.7178 111.073L17.19 106.566L18.2125 106.9L16.3349 112.663L6.79688 109.58L7.21116 108.315L15.7178 111.073Z" fill="black"/>
<path d="M21.9937 89.9006L23.2543 90.3311L22.3287 89.5404L17.0396 84.5855L17.5508 83.6015L24.6559 85.0775L25.8636 85.385L24.7617 84.5767L19.3756 80.0698L19.9838 78.8926L27.7852 85.6222L27.2299 86.6852L19.7899 85.1829L19.0406 84.9808L19.64 85.464L25.1583 90.7352L24.6118 91.7983L14.5801 89.3735L15.1884 88.205L21.9937 89.9006Z" fill="black"/>
<path d="M32.9335 76.9334L32.2194 78.0492L23.7568 72.6989L24.4621 71.5831L32.9335 76.9334Z" fill="black"/>
<path d="M35.9572 65.5213L34.5468 67.4014L37.7908 69.8173L36.9974 70.8804L28.9668 64.8975L30.9502 62.2619C31.4605 61.4808 32.2319 60.905 33.1275 60.6366C33.5396 60.5558 33.9647 60.5691 34.3708 60.6756C34.777 60.7821 35.1537 60.9791 35.4724 61.2516C35.9499 61.5855 36.3032 62.0673 36.4774 62.6221C36.6552 63.1944 36.6552 63.8069 36.4774 64.3792L41.2992 65.0381L41.3609 65.0908L40.4794 66.2153L35.9572 65.5213ZM33.6829 66.76L34.8906 65.1347C35.2564 64.7009 35.4452 64.1459 35.4195 63.5797C35.3971 63.3251 35.3192 63.0785 35.1913 62.8569C35.0635 62.6354 34.8886 62.4443 34.679 62.2971C34.4762 62.127 34.2387 62.0028 33.983 61.9331C33.7274 61.8633 33.4595 61.8496 33.198 61.8929C32.6406 62.0405 32.1573 62.3877 31.8406 62.8681L30.6241 64.4846L33.6829 66.76Z" fill="black"/>
<path d="M45.7155 52.9846L42.8153 56.2001L45.4598 58.5721L48.8272 54.8295L49.6294 55.5499L45.3805 60.2677L37.9141 53.5908L42.1276 48.917L42.9299 49.6374L39.6065 53.336L42.0042 55.4797L44.9133 52.273L45.7155 52.9846Z" fill="black"/>
<path d="M59.8993 40.852L57.3428 43.0219L56.6641 42.24L59.2205 40.0613L59.8993 40.852Z" fill="black"/>
<path d="M73.9509 28.9917L73.422 23.3603L74.6826 22.552L75.1938 29.6857L77.2214 32.8133L76.1107 33.5249L74.0831 30.3973L67.7627 27.0062L69.032 26.1804L73.9509 28.9917Z" fill="black"/>
<path d="M89.977 20.2854C90.3985 21.0585 90.6509 21.9119 90.7175 22.7893C90.7744 23.5293 90.6087 24.2695 90.2415 24.9153C89.8626 25.558 89.3012 26.0746 88.6283 26.4C87.9764 26.7572 87.2325 26.9128 86.4915 26.8471C85.7505 26.7814 85.046 26.4973 84.4676 26.0311C83.7942 25.4982 83.2441 24.827 82.8544 24.0631L82.5283 23.4306C82.1072 22.661 81.8576 21.81 81.7965 20.9355C81.7729 20.3814 81.8669 19.8286 82.0722 19.3131C82.2775 18.7976 82.5895 18.3311 82.988 17.9439C83.3864 17.5568 83.8623 17.2577 84.3846 17.0662C84.9069 16.8748 85.4638 16.7952 86.019 16.8328C86.7711 16.9145 87.4808 17.2207 88.0553 17.7113C88.7375 18.2716 89.2933 18.9691 89.6862 19.7583L89.977 20.2854ZM88.5049 20.2854C88.1136 19.4045 87.4494 18.6717 86.6097 18.1945C86.2627 18.0258 85.8793 17.9448 85.4935 17.9586C85.1076 17.9724 84.7311 18.0805 84.3971 18.2736C84.0498 18.4359 83.7481 18.6812 83.519 18.9878C83.2898 19.2943 83.1403 19.6526 83.0836 20.0307C82.9804 20.9609 83.178 21.8997 83.6477 22.7102L83.9827 23.3691C84.3765 24.2416 85.0409 24.9652 85.878 25.4336C86.2222 25.5873 86.5964 25.6628 86.9735 25.6548C87.3506 25.6468 87.7212 25.5555 88.0585 25.3874C88.3959 25.2192 88.6916 24.9786 88.9243 24.6827C89.157 24.3869 89.3208 24.0432 89.404 23.6766C89.5031 22.7376 89.2961 21.7919 88.8135 20.9795L88.5049 20.2854Z" fill="black"/>
<path d="M101.171 9.73425L103.701 16.0421C103.867 16.4343 103.952 16.8555 103.952 17.2809C103.952 17.7063 103.867 18.1274 103.701 18.5196C103.334 19.3374 102.674 19.9891 101.85 20.347L101.524 20.4875C100.658 20.8903 99.6695 20.9438 98.7649 20.6369C98.3418 20.4704 97.9594 20.2158 97.6432 19.89C97.327 19.5643 97.0843 19.1749 96.9314 18.748L94.3926 12.4226L95.6091 11.9394L98.1302 18.2209C98.23 18.512 98.3866 18.7806 98.5908 19.0112C98.795 19.2419 99.0429 19.4301 99.3202 19.5651C99.7499 19.7741 100.234 19.8451 100.706 19.7682C101.178 19.6913 101.614 19.4704 101.955 19.1358C102.295 18.8012 102.523 18.3696 102.607 17.9004C102.691 17.4313 102.627 16.9477 102.423 16.5165L99.9021 10.2262L101.171 9.73425Z" fill="black"/>
<path d="M115.576 6.28152L112.482 7.16006L115.003 15.7082L113.742 16.086L111.221 7.52904L108.136 8.40757L107.827 7.3709L115.267 5.19214L115.576 6.28152Z" fill="black"/>
<path d="M129.284 2.19641L130.588 8.86449C130.682 9.27982 130.692 9.70958 130.618 10.1288C130.544 10.5481 130.387 10.9485 130.156 11.3068C129.641 12.0431 128.867 12.5602 127.988 12.7564L127.644 12.8355C126.716 13.0593 125.738 12.9276 124.903 12.4665C124.518 12.224 124.19 11.9014 123.942 11.5207C123.694 11.1401 123.531 10.7105 123.466 10.2614L122.161 3.57571L123.439 3.32972L124.735 9.97145C124.771 10.2768 124.873 10.5706 125.035 10.832C125.198 11.0933 125.416 11.3158 125.674 11.4836C125.932 11.6514 126.225 11.7603 126.53 11.8026C126.836 11.845 127.147 11.8197 127.441 11.7285C127.748 11.7039 128.046 11.6117 128.313 11.4586C128.579 11.3055 128.809 11.0953 128.984 10.8432C129.159 10.5911 129.277 10.3033 129.327 10.0006C129.377 9.69796 129.359 9.38793 129.275 9.09291L127.979 2.4424L129.284 2.19641Z" fill="black"/>
<path d="M138.055 11.0433L137.085 1.09825L140.347 0.781976C141.209 0.63284 142.096 0.784897 142.859 1.21246C143.162 1.43026 143.412 1.71465 143.587 2.04366C143.763 2.37268 143.861 2.73754 143.873 3.1101C143.925 3.55427 143.826 4.00313 143.59 4.38397C143.347 4.77918 143.004 5.10344 142.594 5.324C143.117 5.40555 143.596 5.66286 143.952 6.05319C144.313 6.45864 144.53 6.97112 144.569 7.51156C144.631 7.90226 144.603 8.30175 144.489 8.68044C144.374 9.05912 144.176 9.40728 143.908 9.69911C143.263 10.3169 142.413 10.6765 141.519 10.7094L138.055 11.0433ZM138.813 5.20979L140.805 5.01652C141.304 4.99348 141.779 4.79418 142.145 4.45425C142.301 4.29477 142.419 4.10192 142.489 3.89032C142.559 3.67873 142.58 3.45396 142.55 3.23309C142.548 3.00792 142.492 2.78651 142.388 2.58664C142.284 2.38677 142.134 2.21401 141.951 2.08221C141.49 1.84532 140.963 1.76511 140.452 1.85379L138.504 2.03828L138.813 5.20979ZM138.918 6.26403L139.271 9.83967L141.44 9.62883C141.969 9.61249 142.472 9.39202 142.841 9.01385C143.004 8.8319 143.125 8.61633 143.195 8.38248C143.266 8.14863 143.283 7.90226 143.247 7.66091C143.132 6.45732 142.418 5.90384 141.113 6.05319L138.918 6.26403Z" fill="black"/>
<path d="M157.263 5.38541L152.917 5.45569L152.97 8.96983L158.021 8.89077V9.96258L151.648 10.068L151.489 0.0790528L157.783 -0.0263672V1.05423L152.812 1.1333L152.864 4.34874L157.201 4.27846L157.263 5.38541Z" fill="black"/>
<path d="M180.667 8.93479C180.47 9.85326 179.928 10.6615 179.151 11.1926C178.333 11.6819 177.363 11.8539 176.427 11.6758C175.887 11.6203 175.368 11.4416 174.91 11.1536C174.451 10.8656 174.065 10.4761 173.782 10.0154C173.176 8.94972 172.973 7.70324 173.209 6.50125L173.341 5.54364C173.457 4.70354 173.758 3.89942 174.223 3.18917C174.614 2.5694 175.182 2.07999 175.854 1.78351C176.541 1.49689 177.296 1.40861 178.031 1.52874C178.965 1.61242 179.829 2.05706 180.438 2.76748C181.012 3.50406 181.286 4.42978 181.204 5.35915L179.891 5.17466C179.935 4.52773 179.762 3.88453 179.397 3.34731C179.007 2.91232 178.465 2.64211 177.881 2.59176C177.505 2.52154 177.118 2.54322 176.753 2.65492C176.387 2.76663 176.055 2.96503 175.783 3.2331C175.153 3.93581 174.769 4.82396 174.69 5.76328L174.549 6.72089C174.377 7.61011 174.485 8.53066 174.858 9.35649C175.022 9.69347 175.27 9.98274 175.579 10.1966C175.888 10.4104 176.246 10.5416 176.621 10.5777C177.22 10.707 177.846 10.6165 178.384 10.3229C178.901 9.92613 179.26 9.35962 179.397 8.72395L180.667 8.93479Z" fill="black"/>
<path d="M195.335 10.639C195.141 11.4971 194.769 12.3051 194.242 13.0111C193.799 13.6131 193.181 14.0648 192.471 14.3052C191.762 14.5456 190.995 14.5631 190.276 14.3553C189.553 14.1935 188.894 13.8239 188.38 13.2922C187.87 12.7538 187.527 12.0794 187.393 11.3507C187.235 10.5082 187.265 9.64124 187.481 8.81169L187.657 8.10887C187.848 7.25481 188.22 6.4517 188.751 5.75439C189.099 5.31991 189.535 4.96389 190.032 4.70981C190.528 4.45572 191.073 4.30933 191.63 4.28028C192.187 4.25123 192.744 4.34017 193.264 4.54126C193.785 4.74235 194.256 5.051 194.648 5.4469C195.16 5.99232 195.498 6.67742 195.618 7.41483C195.763 8.29266 195.718 9.19148 195.485 10.0504L195.335 10.639ZM194.216 9.69902C194.518 8.78309 194.518 7.79485 194.216 6.87892C194.061 6.51867 193.819 6.2024 193.511 5.95856C193.204 5.71472 192.84 5.55097 192.453 5.48204C192.085 5.37595 191.696 5.36132 191.322 5.43943C190.947 5.51754 190.597 5.686 190.302 5.9301C189.608 6.56283 189.136 7.40017 188.953 8.31972L188.777 9.03133C188.495 9.94786 188.517 10.9305 188.839 11.8339C188.994 12.182 189.226 12.4909 189.518 12.7374C189.809 12.984 190.153 13.162 190.523 13.2582C190.893 13.3544 191.28 13.3663 191.655 13.2931C192.031 13.2199 192.385 13.0635 192.691 12.8354C193.383 12.1918 193.852 11.3458 194.031 10.4194L194.216 9.69902Z" fill="black"/>
<path d="M205.773 8.29346L206.046 17.0788L211.926 10.5425L213.539 11.1311L210.101 20.5139L208.858 20.0658L210.198 16.4111L211.758 12.5104L205.879 18.9852L204.927 18.6338L204.627 9.92754L203.305 13.8985L201.965 17.5532L200.722 17.1052L204.168 7.71362L205.773 8.29346Z" fill="black"/>
<path d="M222.707 15.1987L221.94 23.984L228.561 18.1857L230.094 18.9588L225.563 27.8672L224.382 27.2785L226.145 23.8083L228.164 20.1097L221.553 25.8465L220.671 25.3985L221.394 16.7185L219.631 20.505L217.868 24.0192L216.687 23.4218L221.218 14.5046L222.707 15.1987Z" fill="black"/>
<path d="M238.997 30.6522L235.339 28.3065L233.417 31.2847L237.666 34.0082L237.075 34.8867L231.725 31.4517L237.146 23.0529L242.435 26.4528L241.853 27.3313L237.666 24.643L235.903 27.3489L239.553 29.6946L238.997 30.6522Z" fill="black"/>
<path d="M248.412 43.3997L247.372 42.5827L248.183 33.4195L243.406 39.4639L242.356 38.6468L248.527 30.7927L249.567 31.6186L248.747 40.8168L253.552 34.7373L254.583 35.5456L248.412 43.3997Z" fill="black"/>
<path d="M264.87 46.3077L262.534 44.0938L256.363 50.5423L255.411 49.6637L261.582 43.2153L259.255 41.0014L260.004 40.2283L265.61 45.561L264.87 46.3077Z" fill="black"/>
<path d="M272.284 62.1388L269.19 64.546L268.379 63.5006L276.313 57.3508L278.578 60.2588C279.185 60.966 279.5 61.8766 279.46 62.8065C279.356 63.6363 278.927 64.3915 278.266 64.9068C277.605 65.4221 276.767 65.6557 275.933 65.5563C275.028 65.3142 274.24 64.7562 273.712 63.9838L272.284 62.1388ZM273.166 61.4799L274.62 63.3512C274.949 63.833 275.445 64.177 276.013 64.3176C276.278 64.3627 276.551 64.3465 276.809 64.2703C277.067 64.1942 277.304 64.0601 277.503 63.8784C277.722 63.7288 277.905 63.5334 278.041 63.3058C278.176 63.0782 278.26 62.8239 278.287 62.5606C278.325 61.9946 278.146 61.4354 277.785 60.9967L276.277 59.0728L273.166 61.4799Z" fill="black"/>
<path d="M277.325 75.7562L276.594 74.6581L284.959 69.1497L285.691 70.2478L277.325 75.7562Z" fill="black"/>
<path d="M287.543 86.8082C286.692 87.2058 285.72 87.2624 284.828 86.9663C283.942 86.6146 283.22 85.9477 282.8 85.095C282.52 84.6331 282.351 84.113 282.305 83.5752C282.259 83.0374 282.338 82.4962 282.536 81.9938C283.021 80.8674 283.897 79.9534 285.004 79.4197L285.885 78.9541C286.62 78.5302 287.438 78.2723 288.283 78.1985C289.014 78.1401 289.747 78.2959 290.39 78.6466C291.038 79.0194 291.567 79.5677 291.915 80.2279C292.405 81.014 292.57 81.959 292.373 82.8636C292.131 83.7644 291.554 84.54 290.76 85.0335L290.117 83.8739C290.662 83.5201 291.072 82.9941 291.28 82.3804C291.396 81.8079 291.285 81.2131 290.972 80.7199C290.801 80.3819 290.553 80.0892 290.246 79.8662C289.939 79.6431 289.584 79.4961 289.209 79.4373C288.279 79.3692 287.352 79.6001 286.564 80.0962L285.683 80.5706C284.859 80.9718 284.179 81.6159 283.735 82.4155C283.569 82.75 283.49 83.1202 283.504 83.4929C283.518 83.8656 283.624 84.2289 283.814 84.5503C284.075 85.096 284.522 85.5317 285.074 85.7803C285.705 85.9562 286.378 85.9001 286.97 85.6222L287.543 86.8082Z" fill="black"/>
<path d="M292.973 94.7852L291.315 94.1703L288.204 95.5144L287.675 94.3108L296.878 90.3311L297.398 91.5346L292.849 93.5026L299.179 95.611L299.813 97.0694L294.18 95.2245L290.742 101.374L290.108 99.9247L292.973 94.7852Z" fill="black"/>
<path d="M298.985 110.871L297.628 106.76L294.251 107.867L295.829 112.646L294.798 112.98L292.806 106.953L302.335 103.825L304.301 109.791L303.278 110.133L301.718 105.416L298.65 106.426L300.008 110.537L298.985 110.871Z" fill="black"/>
<path d="M301.312 121.897L300.783 119.613L296.834 120.491L296.534 119.2L306.301 116.959L307.051 120.184C307.319 121.077 307.26 122.036 306.883 122.89C306.68 123.256 306.396 123.571 306.052 123.811C305.708 124.052 305.314 124.211 304.9 124.278C304.334 124.422 303.735 124.376 303.199 124.146C302.651 123.909 302.187 123.515 301.867 123.013L298.244 126.254H298.165L297.848 124.875L301.312 121.897ZM301.841 119.367L302.291 121.343C302.397 121.905 302.712 122.407 303.172 122.749C303.382 122.897 303.622 122.997 303.875 123.042C304.127 123.088 304.387 123.078 304.635 123.013C304.897 122.966 305.145 122.864 305.363 122.712C305.581 122.56 305.763 122.363 305.896 122.134C306.143 121.612 306.19 121.019 306.028 120.465L305.579 118.497L301.841 119.367Z" fill="black"/>
<path d="M298.527 142.068L298.43 141.049L310.251 139.951L310.348 140.97L298.527 142.068Z" fill="black"/>
<path d="M300.977 157.513L311 157.917L310.885 160.728C310.866 161.535 310.635 162.322 310.215 163.012C309.8 163.661 309.206 164.176 308.505 164.497C307.73 164.842 306.884 164.995 306.037 164.945H305.393C304.534 164.929 303.691 164.709 302.934 164.304C302.256 163.932 301.706 163.366 301.356 162.678C300.994 161.939 300.827 161.119 300.871 160.298L300.977 157.513ZM309.863 159.182L302.008 158.866L301.947 160.254C301.909 160.695 301.968 161.139 302.121 161.554C302.273 161.97 302.514 162.348 302.828 162.661C303.562 163.293 304.503 163.634 305.473 163.619H306.063C306.999 163.705 307.936 163.459 308.708 162.924C309.04 162.655 309.307 162.315 309.489 161.929C309.671 161.542 309.762 161.12 309.757 160.693L309.863 159.182Z" fill="black"/>
<path d="M309.043 179.845L302.29 178.966C301.865 178.923 301.454 178.794 301.08 178.589C300.706 178.384 300.377 178.106 300.113 177.772C299.572 177.052 299.329 176.152 299.434 175.259V174.916C299.514 173.964 299.955 173.078 300.668 172.439C301.024 172.156 301.436 171.953 301.877 171.842C302.318 171.731 302.777 171.716 303.225 171.798L309.995 172.72L309.818 174.012L303.083 173.133C302.781 173.061 302.466 173.057 302.161 173.122C301.857 173.186 301.571 173.318 301.323 173.506C301.076 173.694 300.874 173.935 300.732 174.211C300.589 174.487 300.51 174.791 300.501 175.101C300.416 175.405 300.402 175.724 300.46 176.034C300.517 176.344 300.645 176.637 300.832 176.89C301.02 177.144 301.263 177.352 301.543 177.499C301.823 177.645 302.133 177.727 302.449 177.736L309.184 178.615L309.043 179.845Z" fill="black"/>
<path d="M299.144 191.082L300.105 187.005L297.769 185.494L298.086 184.167L306.963 190.177L306.698 191.301L296.059 192.724L296.367 191.407L299.144 191.082ZM301.066 187.646L300.281 190.95L305.244 190.37L301.066 187.646Z" fill="black"/>
<path d="M294.877 200.271L293.36 204.76L292.338 204.418L294.268 198.672L303.78 201.844L303.357 203.1L294.877 200.271Z" fill="black"/>
<path d="M288.433 221.365L287.181 220.925L288.063 221.725L293.352 226.724L292.823 227.708L285.771 226.161L284.572 225.845L285.665 226.653L291.007 231.213L290.39 232.39L282.65 225.59L283.215 224.527L290.637 226.1L291.386 226.311L290.787 225.819L285.321 220.548L285.886 219.493L295.882 222.015L295.265 223.174L288.433 221.365Z" fill="black"/>
<path d="M277.326 234.244L278.049 233.137L286.468 238.566L285.745 239.673L277.326 234.244Z" fill="black"/>
<path d="M274.214 245.603L275.642 243.732L272.416 241.281L273.218 240.227L281.152 246.289L279.142 248.924C278.625 249.701 277.847 250.268 276.947 250.523C276.535 250.602 276.11 250.587 275.706 250.477C275.301 250.367 274.926 250.167 274.611 249.891C274.139 249.55 273.789 249.066 273.615 248.511C273.446 247.938 273.446 247.328 273.615 246.754L268.802 246.052L268.74 245.999L269.622 244.874L274.214 245.603ZM276.506 244.382L275.272 245.999C274.904 246.429 274.71 246.98 274.726 247.545C274.747 247.801 274.824 248.05 274.952 248.273C275.08 248.496 275.256 248.688 275.466 248.836C275.667 249.007 275.903 249.133 276.156 249.206C276.41 249.279 276.677 249.297 276.938 249.258C277.498 249.115 277.984 248.771 278.305 248.292L279.53 246.684L276.506 244.382Z" fill="black"/>
<path d="M264.341 258.044L267.267 254.854L264.623 252.465L261.211 256.172L260.418 255.443L264.72 250.76L272.116 257.508L267.858 262.138L267.065 261.417L270.423 257.754L268.043 255.584L265.108 258.773L264.341 258.044Z" fill="black"/>
<path d="M250.034 270.053L252.608 267.901L253.278 268.7L250.704 270.853L250.034 270.053Z" fill="black"/>
<path d="M235.85 281.79L236.326 287.431L235.057 288.23L234.616 281.087L232.615 277.942L233.735 277.231L235.736 280.385L242.021 283.837L240.743 284.646L235.85 281.79Z" fill="black"/>
<path d="M219.763 290.356C219.348 289.579 219.105 288.722 219.049 287.844C218.992 287.104 219.164 286.365 219.542 285.726C219.937 285.098 220.496 284.589 221.159 284.253C221.822 283.917 222.564 283.767 223.306 283.82C224.045 283.9 224.746 284.19 225.325 284.654C225.993 285.195 226.538 285.872 226.92 286.64L227.247 287.281C227.657 288.054 227.897 288.904 227.952 289.776C228.005 290.522 227.833 291.266 227.458 291.913C227.082 292.56 226.52 293.079 225.845 293.405C225.182 293.755 224.433 293.907 223.685 293.844C222.937 293.758 222.231 293.452 221.658 292.965C220.983 292.397 220.437 291.694 220.054 290.901L219.763 290.356ZM221.235 290.356C221.617 291.242 222.276 291.981 223.112 292.465C223.457 292.618 223.831 292.694 224.208 292.686C224.585 292.678 224.956 292.586 225.293 292.418C225.63 292.25 225.926 292.01 226.159 291.714C226.391 291.418 226.555 291.074 226.638 290.708C226.752 289.777 226.563 288.835 226.101 288.019L225.766 287.369C225.381 286.489 224.723 285.756 223.888 285.278C223.541 285.115 223.162 285.031 222.779 285.034C222.395 285.038 222.017 285.127 221.673 285.296C221.329 285.465 221.028 285.709 220.791 286.01C220.555 286.311 220.39 286.662 220.309 287.035C220.209 287.974 220.406 288.92 220.873 289.741L221.235 290.356Z" fill="black"/>
<path d="M208.488 300.775L206.011 294.441C205.845 294.049 205.76 293.628 205.76 293.202C205.76 292.777 205.845 292.356 206.011 291.964C206.384 291.148 207.051 290.502 207.88 290.154L208.197 290.013C209.07 289.622 210.061 289.578 210.965 289.89C211.388 290.061 211.769 290.32 212.083 290.651C212.396 290.981 212.634 291.375 212.781 291.806L215.258 298.149L214.042 298.623L211.573 292.315C211.48 292.022 211.328 291.752 211.126 291.519C210.925 291.287 210.678 291.097 210.401 290.962C209.829 290.747 209.195 290.766 208.638 291.015C208.34 291.11 208.065 291.263 207.827 291.465C207.59 291.667 207.395 291.914 207.254 292.192C207.146 292.474 207.096 292.774 207.105 293.076C207.114 293.377 207.182 293.674 207.307 293.949L209.775 300.266L208.488 300.775Z" fill="black"/>
<path d="M194.04 304.096L197.134 303.218L194.692 294.643L195.962 294.283L198.404 302.858L201.498 301.979L201.789 303.016L194.331 305.124L194.04 304.096Z" fill="black"/>
<path d="M180.297 308.041L179.063 301.355C178.972 300.94 178.965 300.511 179.042 300.094C179.119 299.676 179.279 299.277 179.513 298.922C180.036 298.195 180.813 297.688 181.69 297.499L182.034 297.42C182.965 297.195 183.947 297.336 184.775 297.815C185.157 298.061 185.482 298.386 185.727 298.768C185.972 299.15 186.131 299.58 186.195 300.029L187.438 306.723L186.151 306.96L184.916 300.31C184.811 299.868 184.582 299.464 184.257 299.145C183.931 298.827 183.522 298.606 183.077 298.509C182.631 298.412 182.167 298.442 181.738 298.595C181.308 298.749 180.931 299.021 180.65 299.379C180.486 299.637 180.377 299.926 180.329 300.228C180.28 300.53 180.294 300.839 180.368 301.136L181.602 307.795L180.297 308.041Z" fill="black"/>
<path d="M171.596 299.141L172.478 309.095L169.207 309.376C168.345 309.518 167.46 309.357 166.704 308.919C166.402 308.699 166.156 308.412 165.983 308.082C165.81 307.751 165.716 307.386 165.708 307.013C165.668 306.568 165.77 306.123 165.999 305.739C166.249 305.348 166.599 305.03 167.012 304.817C166.488 304.729 166.009 304.466 165.655 304.07C165.298 303.66 165.087 303.144 165.055 302.603C164.999 302.211 165.031 301.812 165.15 301.435C165.269 301.058 165.472 300.713 165.743 300.424C166.39 299.813 167.241 299.463 168.132 299.44L171.596 299.141ZM170.715 303.912L170.406 300.327L168.229 300.521C167.699 300.533 167.195 300.747 166.819 301.118C166.654 301.299 166.531 301.514 166.46 301.748C166.388 301.982 166.369 302.229 166.404 302.471C166.51 303.678 167.215 304.222 168.52 304.105L170.715 303.912ZM170.812 304.966L168.82 305.133C168.321 305.154 167.846 305.35 167.48 305.686C167.32 305.844 167.2 306.036 167.128 306.248C167.056 306.46 167.034 306.686 167.065 306.908C167.063 307.132 167.115 307.353 167.216 307.553C167.317 307.754 167.465 307.927 167.647 308.058C168.106 308.303 168.633 308.39 169.146 308.304L171.094 308.138L170.812 304.966Z" fill="black"/>
<path d="M152.291 304.536L156.637 304.606L156.69 301.092L151.648 301.013V299.932L158.012 300.038L157.854 310.027L151.551 309.921V308.849L156.531 308.928L156.584 305.713L152.238 305.643L152.291 304.536Z" fill="black"/>
<path d="M128.975 300.828C129.183 299.915 129.731 299.114 130.509 298.588C131.33 298.108 132.299 297.946 133.233 298.131C133.774 298.189 134.295 298.372 134.754 298.665C135.213 298.957 135.597 299.352 135.877 299.818C136.473 300.887 136.664 302.134 136.415 303.332L136.274 304.281C136.155 305.117 135.854 305.918 135.392 306.626C134.989 307.238 134.417 307.721 133.744 308.014C133.052 308.298 132.295 308.383 131.558 308.26C130.626 308.157 129.769 307.705 129.16 306.995C128.594 306.239 128.333 305.299 128.428 304.36L129.742 304.553C129.686 305.198 129.855 305.843 130.218 306.38C130.599 306.826 131.14 307.104 131.725 307.153C132.101 307.228 132.489 307.21 132.856 307.102C133.223 306.993 133.558 306.797 133.832 306.53C134.466 305.835 134.856 304.953 134.943 304.017L135.093 303.06C135.273 302.173 135.175 301.253 134.81 300.424C134.646 300.086 134.398 299.796 134.089 299.581C133.781 299.366 133.422 299.233 133.047 299.194C132.45 299.057 131.824 299.141 131.284 299.431C130.765 299.825 130.4 300.388 130.253 301.021L128.975 300.828Z" fill="black"/>
<path d="M114.315 298.992C114.51 298.133 114.889 297.327 115.426 296.629C115.876 296.041 116.489 295.598 117.189 295.355C117.905 295.143 118.668 295.143 119.384 295.355C120.108 295.523 120.767 295.899 121.28 296.435C121.783 296.98 122.12 297.657 122.249 298.386C122.389 299.231 122.35 300.096 122.135 300.925L121.949 301.628C121.752 302.479 121.37 303.277 120.83 303.965C120.383 304.559 119.769 305.008 119.067 305.256C118.359 305.485 117.599 305.503 116.881 305.309C116.152 305.134 115.489 304.756 114.968 304.219C114.462 303.668 114.131 302.981 114.016 302.243C113.877 301.363 113.931 300.464 114.174 299.607L114.315 298.992ZM115.426 299.941C115.122 300.856 115.122 301.845 115.426 302.761C115.583 303.108 115.816 303.416 116.109 303.66C116.402 303.905 116.746 304.081 117.116 304.175C117.487 304.268 117.873 304.278 118.248 304.202C118.622 304.126 118.974 303.967 119.278 303.736C119.979 303.112 120.461 302.281 120.654 301.364L120.83 300.652C121.137 299.743 121.137 298.759 120.83 297.85C120.679 297.499 120.45 297.187 120.161 296.937C119.872 296.686 119.53 296.505 119.16 296.405C118.79 296.305 118.403 296.29 118.026 296.361C117.65 296.432 117.294 296.586 116.987 296.813C116.287 297.451 115.808 298.294 115.62 299.22L115.426 299.941Z" fill="black"/>
<path d="M103.843 301.232L103.658 292.447L97.7079 298.931L96.1035 298.324L99.6296 288.977L100.864 289.434L99.4886 293.08L97.8842 296.971L103.826 290.549L104.778 290.901L104.998 299.616L106.356 295.654L107.731 292.008L108.965 292.473L105.439 301.83L103.843 301.232Z" fill="black"/>
<path d="M86.9884 294.169L87.8699 285.428L81.1969 291.164L79.6719 290.374L84.291 281.5L85.4634 282.107L83.7004 285.568L81.6553 289.24L88.3107 283.565L89.1922 284.022L88.3813 292.702L90.1972 288.924L91.9602 285.471L93.1326 286.078L88.5223 294.951L86.9884 294.169Z" fill="black"/>
<path d="M70.8563 278.566L74.4881 280.938L76.4362 277.986L72.2137 275.219L72.8132 274.34L78.1023 277.854L72.5928 286.209L67.3037 282.765L67.8943 281.887L72.0551 284.61L73.8182 281.922L70.1863 279.541L70.8563 278.566Z" fill="black"/>
<path d="M61.5391 265.757L62.5706 266.592L61.689 275.746L66.5286 269.737L67.5687 270.571L61.2923 278.364L60.2522 277.529L61.1337 268.34L56.2765 274.376L55.2539 273.558L61.5391 265.757Z" fill="black"/>
<path d="M45.1165 262.647L47.4261 264.887L53.6585 258.491L54.6016 259.37L48.3694 265.766L50.6789 267.997L49.9208 268.77L44.3584 263.385L45.1165 262.647Z" fill="black"/>
<path d="M37.8614 246.746L40.982 244.373L41.7841 245.428L33.8504 251.481L31.6026 248.555C30.9964 247.844 30.6816 246.931 30.7211 245.999C30.7578 245.586 30.8841 245.186 31.091 244.826C31.298 244.467 31.5808 244.157 31.9199 243.917C32.2385 243.643 32.6145 243.444 33.0203 243.335C33.4261 243.226 33.8514 243.208 34.2648 243.284C35.1719 243.528 35.9586 244.094 36.4774 244.874L37.8614 246.746ZM36.9799 247.404L35.5341 245.516C35.2095 245.03 34.717 244.679 34.1502 244.532C33.8854 244.489 33.6144 244.506 33.3568 244.58C33.0992 244.655 32.8614 244.785 32.6604 244.962C32.4423 245.111 32.2587 245.306 32.1219 245.531C31.9851 245.757 31.8982 246.009 31.867 246.271C31.821 246.837 31.9981 247.398 32.3607 247.835L33.8416 249.785L36.9799 247.404Z" fill="black"/>
<path d="M32.9518 233.102L33.6746 234.209L25.256 239.638L24.5332 238.54L32.9518 233.102Z" fill="black"/>
<path d="M22.8137 221.927C23.6708 221.553 24.6382 221.519 25.5199 221.83C26.4012 222.191 27.1172 222.863 27.5298 223.719C27.8042 224.184 27.9675 224.705 28.0073 225.243C28.047 225.781 27.9621 226.32 27.759 226.82C27.2651 227.942 26.3827 228.85 25.2731 229.377L24.3916 229.834C23.6573 230.253 22.8379 230.502 21.9939 230.563C21.261 230.616 20.5284 230.454 19.887 230.097C19.2436 229.72 18.7208 229.169 18.3796 228.507C17.9017 227.716 17.7441 226.774 17.9389 225.871C18.1974 224.975 18.782 224.208 19.5785 223.719L20.2132 224.887C19.6638 225.233 19.2476 225.753 19.032 226.363C18.9097 226.936 19.0139 227.534 19.3228 228.033C19.491 228.373 19.7391 228.668 20.0459 228.893C20.3528 229.118 20.7095 229.266 21.0859 229.324C22.0127 229.402 22.94 229.18 23.7304 228.692L24.6119 228.235C25.4414 227.839 26.128 227.198 26.5777 226.399C26.7481 226.068 26.8319 225.699 26.8211 225.328C26.8103 224.956 26.7054 224.593 26.5161 224.273C26.2647 223.722 25.8237 223.279 25.2731 223.025C24.6417 222.846 23.9671 222.896 23.3691 223.166L22.8137 221.927Z" fill="black"/>
<path d="M17.4802 213.923L19.1374 214.556L22.2581 213.238L22.7693 214.451L13.5398 218.316L13.0196 217.104L17.586 215.18L11.2831 213.019L10.6572 211.551L16.2813 213.449L19.8074 207.37L20.4244 208.828L17.4802 213.923Z" fill="black"/>
<path d="M11.6183 197.758L12.9406 201.888L16.3256 200.816L14.7917 196.019L15.8231 195.694L17.7536 201.738L8.19798 204.769L6.28516 198.786L7.31646 198.461L8.83265 203.188L11.9093 202.213L10.587 198.083L11.6183 197.758Z" fill="black"/>
<path d="M9.39681 186.689L9.90816 188.982L13.8662 188.103L14.1482 189.395L4.36336 191.547L3.64928 188.314C3.38564 187.422 3.45138 186.465 3.83447 185.617C4.04208 185.252 4.33007 184.94 4.67672 184.702C5.02336 184.465 5.41963 184.309 5.83554 184.246C6.40306 184.11 6.99962 184.159 7.53681 184.387C8.08094 184.634 8.54063 185.034 8.85909 185.538L12.5086 182.331H12.5879L12.8877 183.711L9.39681 186.689ZM8.85027 189.21L8.40951 187.234C8.31678 186.675 8.0182 186.17 7.57211 185.819C7.36396 185.671 7.12607 185.57 6.87492 185.523C6.62377 185.476 6.36534 185.484 6.11758 185.547C5.85261 185.59 5.60052 185.691 5.3795 185.843C5.15848 185.995 4.97406 186.194 4.83942 186.425C4.58948 186.946 4.53928 187.54 4.69835 188.094L5.13028 190.062L8.85027 189.21Z" fill="black"/>
<path d="M12.3857 166.597L12.465 167.616L0.626216 168.609L0.538086 167.589L12.3857 166.597Z" fill="black"/>
</g>
<defs>
<clipPath id="clip0_522_10552">
<rect width="311" height="310" fill="white"/>
</clipPath>
</defs>
</svg>
