<svg width="24" height="24" viewBox="0 0 24 24" fill="none" xmlns="http://www.w3.org/2000/svg">
<g clip-path="url(#clip0_218_4635)">
<path fill-rule="evenodd" clip-rule="evenodd" d="M12 2.25C6.61522 2.25 2.25 6.61522 2.25 12C2.25 17.3848 6.61522 21.75 12 21.75C17.3848 21.75 21.75 17.3848 21.75 12C21.75 6.61522 17.3848 2.25 12 2.25ZM0 12C0 5.37258 5.37258 0 12 0C18.6275 0 24 5.37258 24 12C24 18.6275 18.6275 24 12 24C5.37258 24 0 18.6275 0 12ZM13.5 16.5C13.5 17.3284 12.8284 18 12 18C11.1716 18 10.5 17.3284 10.5 16.5C10.5 15.6715 11.1716 15 12 15C12.8284 15 13.5 15.6715 13.5 16.5ZM10.3812 9.12811C10.502 8.88657 10.6655 8.67926 10.8897 8.52981C11.1068 8.38506 11.4469 8.25 12 8.25C12.4196 8.25 12.8294 8.37984 13.1063 8.5875C13.3531 8.77263 13.5 9.01513 13.5 9.375C13.5 9.63993 13.4388 9.77071 13.3842 9.85252C13.3162 9.95459 13.1989 10.0674 12.9697 10.2202C12.8551 10.2966 12.7318 10.3709 12.5813 10.4612L12.5721 10.4667L12.5721 10.4667C12.4315 10.551 12.2656 10.6506 12.1025 10.7593C11.7691 10.9816 11.3709 11.2907 11.0639 11.7512C10.7193 12.2682 10.859 12.9666 11.376 13.3113C11.893 13.6559 12.5915 13.5161 12.9361 12.9991C13.0041 12.897 13.1215 12.7842 13.3506 12.6314C13.4652 12.555 13.5885 12.4808 13.739 12.3905L13.7483 12.3849L13.7484 12.3848C13.8889 12.3005 14.0548 12.201 14.2178 12.0923C14.5511 11.8701 14.9494 11.5611 15.2564 11.1006C15.5769 10.6199 15.75 10.0476 15.75 9.375C15.75 8.23487 15.2094 7.35237 14.4562 6.7875C13.7331 6.24516 12.8304 6 12 6C11.0531 6 10.2682 6.23994 9.64158 6.65769C9.02201 7.07074 8.62299 7.61343 8.36877 8.12189C8.09089 8.6776 8.31615 9.35337 8.87189 9.63123C9.4276 9.90909 10.1034 9.68384 10.3812 9.12811Z" fill="white"/>
</g>
<defs>
<clipPath id="clip0_218_4635">
<rect width="24" height="24" fill="white"/>
</clipPath>
</defs>
</svg>
