<svg width="18" height="18" viewBox="0 0 18 18" fill="none" xmlns="http://www.w3.org/2000/svg">
<g clip-path="url(#clip0_293_11925)">
<path d="M3 4.99996H15V13H3V4.99996Z" fill="white"/>
<path d="M14.2616 2.63135H3.73837C1.67372 2.63135 0 4.30507 0 6.36972V11.6302C0 13.6949 1.67372 15.3686 3.73837 15.3686H14.2616C16.3263 15.3686 18 13.6949 18 11.6302V6.36972C18 4.30507 16.3263 2.63135 14.2616 2.63135ZM11.7334 9.25592L6.81133 11.6034C6.68017 11.666 6.52868 11.5704 6.52868 11.4251V6.5833C6.52868 6.43594 6.68415 6.34043 6.81558 6.40704L11.7377 8.90131C11.884 8.97545 11.8815 9.18532 11.7334 9.25592Z" fill="#F61C0D"/>
</g>
<defs>
<clipPath id="clip0_293_11925">
<rect width="18" height="18" fill="white"/>
</clipPath>
</defs>
</svg>
