<svg width="20" height="13" viewBox="0 0 20 13" fill="none" xmlns="http://www.w3.org/2000/svg">
<path d="M19.154 4.36388C19.1967 3.25121 18.926 2.14687 18.3669 1.1534C17.9876 0.745749 17.4612 0.470652 16.8794 0.376039C14.4729 0.179776 12.0564 0.0993345 9.64037 0.135059C7.23312 0.0977131 4.82537 0.175559 2.42733 0.368266C1.95322 0.445781 1.51447 0.64566 1.16461 0.94351C0.386227 1.58872 0.29974 2.69256 0.213253 3.62539C0.08777 5.30259 0.08777 6.98547 0.213253 8.66267C0.238273 9.1877 0.325248 9.70886 0.472714 10.2174C0.576997 10.61 0.78798 10.9732 1.08677 11.2746C1.43901 11.5882 1.88798 11.7995 2.37544 11.8809C4.24003 12.0878 6.11879 12.1735 7.99711 12.1375C11.0242 12.1763 13.6793 12.1375 16.8188 11.9198C17.3182 11.8433 17.7799 11.6318 18.1421 11.3135C18.3842 11.0957 18.5651 10.8292 18.6696 10.5361C18.9789 9.68304 19.1309 8.79024 19.1194 7.89308C19.154 7.45776 19.154 4.8303 19.154 4.36388ZM7.68575 8.3595V3.54766L12.8058 5.96524C11.3701 6.68041 9.47604 7.48886 7.68575 8.3595Z" fill="#161616"/>
</svg>
